G04 #@! TF.GenerationSoftware,KiCad,Pcbnew,(5.1.4)-1*
G04 #@! TF.CreationDate,2020-09-18T21:31:58+02:00*
G04 #@! TF.ProjectId,cheapFeather,63686561-7046-4656-9174-6865722e6b69,rev?*
G04 #@! TF.SameCoordinates,Original*
G04 #@! TF.FileFunction,Profile,NP*
%FSLAX46Y46*%
G04 Gerber Fmt 4.6, Leading zero omitted, Abs format (unit mm)*
G04 Created by KiCad (PCBNEW (5.1.4)-1) date 2020-09-18 21:31:58*
%MOMM*%
%LPD*%
G04 APERTURE LIST*
%ADD10C,0.050000*%
G04 APERTURE END LIST*
D10*
X111760000Y-104140000D02*
X109220000Y-104140000D01*
X114300000Y-124460000D02*
G75*
G02X111760000Y-127000000I-2540000J0D01*
G01*
X111760000Y-104140000D02*
G75*
G02X114300000Y-106680000I0J-2540000D01*
G01*
X121920000Y-127000000D02*
G75*
G02X119380000Y-124460000I0J2540000D01*
G01*
X167640000Y-104140000D02*
X165100000Y-104140000D01*
X66040000Y-127000000D02*
G75*
G02X63500000Y-124460000I0J2540000D01*
G01*
X111760000Y-127000000D02*
X109220000Y-127000000D01*
X63500000Y-106680000D02*
G75*
G02X66040000Y-104140000I2540000J0D01*
G01*
X63500000Y-124460000D02*
X63500000Y-106680000D01*
X114300000Y-106680000D02*
X114300000Y-124460000D01*
X170180000Y-106680000D02*
X170180000Y-124460000D01*
X119380000Y-124460000D02*
X119380000Y-106680000D01*
X121920000Y-99060000D02*
G75*
G02X119380000Y-96520000I0J2540000D01*
G01*
X167640000Y-76200000D02*
X165100000Y-76200000D01*
X167640000Y-76200000D02*
G75*
G02X170180000Y-78740000I0J-2540000D01*
G01*
X170180000Y-96520000D02*
G75*
G02X167640000Y-99060000I-2540000J0D01*
G01*
X63500000Y-78740000D02*
G75*
G02X66040000Y-76200000I2540000J0D01*
G01*
X111760000Y-76200000D02*
X109220000Y-76200000D01*
X170180000Y-78740000D02*
X170180000Y-96520000D01*
X167640000Y-48260000D02*
X165100000Y-48260000D01*
X119380000Y-78740000D02*
G75*
G02X121920000Y-76200000I2540000J0D01*
G01*
X66040000Y-99060000D02*
G75*
G02X63500000Y-96520000I0J2540000D01*
G01*
X114300000Y-96520000D02*
G75*
G02X111760000Y-99060000I-2540000J0D01*
G01*
X121920000Y-71120000D02*
G75*
G02X119380000Y-68580000I0J2540000D01*
G01*
X170180000Y-124460000D02*
G75*
G02X167640000Y-127000000I-2540000J0D01*
G01*
X167640000Y-127000000D02*
X165100000Y-127000000D01*
X119380000Y-106680000D02*
G75*
G02X121920000Y-104140000I2540000J0D01*
G01*
X111760000Y-99060000D02*
X109220000Y-99060000D01*
X167640000Y-99060000D02*
X165100000Y-99060000D01*
X63500000Y-96520000D02*
X63500000Y-78740000D01*
X114300000Y-78740000D02*
X114300000Y-96520000D01*
X119380000Y-96520000D02*
X119380000Y-78740000D01*
X111760000Y-76200000D02*
G75*
G02X114300000Y-78740000I0J-2540000D01*
G01*
X167640000Y-104140000D02*
G75*
G02X170180000Y-106680000I0J-2540000D01*
G01*
X167640000Y-71120000D02*
X165100000Y-71120000D01*
X114300000Y-50800000D02*
X114300000Y-68580000D01*
X73660000Y-43180000D02*
X104140000Y-43180000D01*
X63500000Y-43180000D02*
X63500000Y-38100000D01*
X167640000Y-48260000D02*
G75*
G02X170180000Y-50800000I0J-2540000D01*
G01*
X111760000Y-48260000D02*
X109220000Y-48260000D01*
X119380000Y-68580000D02*
X119380000Y-50800000D01*
X170180000Y-50800000D02*
X170180000Y-68580000D01*
X170180000Y-68580000D02*
G75*
G02X167640000Y-71120000I-2540000J0D01*
G01*
X68580000Y-43180000D02*
X68580000Y-48260000D01*
X119380000Y-50800000D02*
G75*
G02X121920000Y-48260000I2540000J0D01*
G01*
X66040000Y-71120000D02*
G75*
G02X63500000Y-68580000I0J2540000D01*
G01*
X111760000Y-71120000D02*
X109220000Y-71120000D01*
X111760000Y-48260000D02*
G75*
G02X114300000Y-50800000I0J-2540000D01*
G01*
X63500000Y-68580000D02*
X63500000Y-50800000D01*
X73660000Y-48260000D02*
X73660000Y-43180000D01*
X63500000Y-43180000D02*
X68580000Y-43180000D01*
X63500000Y-38100000D02*
X170180000Y-38100000D01*
X170180000Y-38100000D02*
X170180000Y-43180000D01*
X114300000Y-68580000D02*
G75*
G02X111760000Y-71120000I-2540000J0D01*
G01*
X63500000Y-50800000D02*
G75*
G02X66040000Y-48260000I2540000J0D01*
G01*
X170180000Y-43180000D02*
X165100000Y-43180000D01*
X68580000Y-48260000D02*
X66040000Y-48260000D01*
X170180000Y-132080000D02*
X165100000Y-132080000D01*
X160020000Y-127000000D02*
X129540000Y-127000000D01*
X124460000Y-48260000D02*
X121920000Y-48260000D01*
X104140000Y-127000000D02*
X73660000Y-127000000D01*
X124460000Y-132080000D02*
X109220000Y-132080000D01*
X109220000Y-48260000D02*
X109220000Y-43180000D01*
X170180000Y-137160000D02*
X63500000Y-137160000D01*
X63500000Y-132080000D02*
X68580000Y-132080000D01*
X109220000Y-43180000D02*
X124460000Y-43180000D01*
X160020000Y-43180000D02*
X160020000Y-48260000D01*
X160020000Y-48260000D02*
X129540000Y-48260000D01*
X129540000Y-48260000D02*
X129540000Y-43180000D01*
X124460000Y-127000000D02*
X121920000Y-127000000D01*
X104140000Y-48260000D02*
X73660000Y-48260000D01*
X170180000Y-132080000D02*
X170180000Y-137160000D01*
X73660000Y-127000000D02*
X73660000Y-127000000D01*
X63500000Y-137160000D02*
X63500000Y-132080000D01*
X124460000Y-43180000D02*
X124460000Y-48260000D01*
X160020000Y-132080000D02*
X129540000Y-132080000D01*
X104140000Y-43180000D02*
X104140000Y-48260000D01*
X104140000Y-132080000D02*
X73660000Y-132080000D01*
X129540000Y-43180000D02*
X160020000Y-43180000D01*
X165100000Y-48260000D02*
X165100000Y-43180000D01*
X68580000Y-127000000D02*
X66040000Y-127000000D01*
X165100000Y-127000000D02*
X165100000Y-132080000D01*
X73660000Y-104140000D02*
X73660000Y-99060000D01*
X68580000Y-132080000D02*
X68580000Y-127000000D01*
X73660000Y-127000000D02*
X73660000Y-132080000D01*
X109220000Y-127000000D02*
X109220000Y-132080000D01*
X124460000Y-71120000D02*
X124460000Y-76200000D01*
X109220000Y-76200000D02*
X109220000Y-71120000D01*
X68580000Y-71120000D02*
X68580000Y-76200000D01*
X104140000Y-71120000D02*
X104140000Y-76200000D01*
X104140000Y-99060000D02*
X104140000Y-104140000D01*
X73660000Y-76200000D02*
X73660000Y-71120000D01*
X129540000Y-76200000D02*
X129540000Y-71120000D01*
X68580000Y-99060000D02*
X68580000Y-104140000D01*
X160020000Y-71120000D02*
X160020000Y-76200000D01*
X165100000Y-76200000D02*
X165100000Y-71120000D01*
X124460000Y-132080000D02*
X124460000Y-127000000D01*
X160020000Y-132080000D02*
X160020000Y-127000000D01*
X129540000Y-127000000D02*
X129540000Y-132080000D01*
X109220000Y-104140000D02*
X109220000Y-99060000D01*
X73660000Y-127000000D02*
X73660000Y-127000000D01*
X73660000Y-127000000D02*
X73660000Y-127000000D01*
X104140000Y-132080000D02*
X104140000Y-127000000D01*
X104140000Y-99060000D02*
X73660000Y-99060000D01*
X160020000Y-104140000D02*
X129540000Y-104140000D01*
X124460000Y-104140000D02*
X121920000Y-104140000D01*
X160020000Y-76200000D02*
X129540000Y-76200000D01*
X160020000Y-99060000D02*
X160020000Y-104140000D01*
X68580000Y-104140000D02*
X66040000Y-104140000D01*
X165100000Y-104140000D02*
X165100000Y-99060000D01*
X68580000Y-71120000D02*
X66040000Y-71120000D01*
X68580000Y-76200000D02*
X66040000Y-76200000D01*
X104140000Y-76200000D02*
X73660000Y-76200000D01*
X68580000Y-99060000D02*
X66040000Y-99060000D01*
X160020000Y-99060000D02*
X129540000Y-99060000D01*
X109220000Y-71120000D02*
X109220000Y-71120000D01*
X124460000Y-76200000D02*
X121920000Y-76200000D01*
X104140000Y-71120000D02*
X73660000Y-71120000D01*
X160020000Y-71120000D02*
X129540000Y-71120000D01*
X124460000Y-71120000D02*
X121920000Y-71120000D01*
X104140000Y-104140000D02*
X73660000Y-104140000D01*
X124460000Y-99060000D02*
X121920000Y-99060000D01*
X124460000Y-99060000D02*
X124460000Y-104140000D01*
X129540000Y-104140000D02*
X129540000Y-99060000D01*
M02*
