G04 #@! TF.GenerationSoftware,KiCad,Pcbnew,(5.1.4)-1*
G04 #@! TF.CreationDate,2020-09-18T21:31:58+02:00*
G04 #@! TF.ProjectId,cheapFeather,63686561-7046-4656-9174-6865722e6b69,rev?*
G04 #@! TF.SameCoordinates,Original*
G04 #@! TF.FileFunction,Legend,Top*
G04 #@! TF.FilePolarity,Positive*
%FSLAX46Y46*%
G04 Gerber Fmt 4.6, Leading zero omitted, Abs format (unit mm)*
G04 Created by KiCad (PCBNEW (5.1.4)-1) date 2020-09-18 21:31:58*
%MOMM*%
%LPD*%
G04 APERTURE LIST*
%ADD10C,0.150000*%
%ADD11C,0.300000*%
%ADD12C,0.120000*%
G04 APERTURE END LIST*
D10*
X76089904Y-134945380D02*
X76089904Y-133945380D01*
X76470857Y-133945380D01*
X76566095Y-133993000D01*
X76613714Y-134040619D01*
X76661333Y-134135857D01*
X76661333Y-134278714D01*
X76613714Y-134373952D01*
X76566095Y-134421571D01*
X76470857Y-134469190D01*
X76089904Y-134469190D01*
X77518476Y-134945380D02*
X77518476Y-134421571D01*
X77470857Y-134326333D01*
X77375619Y-134278714D01*
X77185142Y-134278714D01*
X77089904Y-134326333D01*
X77518476Y-134897761D02*
X77423238Y-134945380D01*
X77185142Y-134945380D01*
X77089904Y-134897761D01*
X77042285Y-134802523D01*
X77042285Y-134707285D01*
X77089904Y-134612047D01*
X77185142Y-134564428D01*
X77423238Y-134564428D01*
X77518476Y-134516809D01*
X77994666Y-134278714D02*
X77994666Y-134945380D01*
X77994666Y-134373952D02*
X78042285Y-134326333D01*
X78137523Y-134278714D01*
X78280380Y-134278714D01*
X78375619Y-134326333D01*
X78423238Y-134421571D01*
X78423238Y-134945380D01*
X79280380Y-134897761D02*
X79185142Y-134945380D01*
X78994666Y-134945380D01*
X78899428Y-134897761D01*
X78851809Y-134802523D01*
X78851809Y-134421571D01*
X78899428Y-134326333D01*
X78994666Y-134278714D01*
X79185142Y-134278714D01*
X79280380Y-134326333D01*
X79328000Y-134421571D01*
X79328000Y-134516809D01*
X78851809Y-134612047D01*
X79899428Y-134945380D02*
X79804190Y-134897761D01*
X79756571Y-134802523D01*
X79756571Y-133945380D01*
X81185142Y-134945380D02*
X81089904Y-134897761D01*
X81042285Y-134850142D01*
X80994666Y-134754904D01*
X80994666Y-134469190D01*
X81042285Y-134373952D01*
X81089904Y-134326333D01*
X81185142Y-134278714D01*
X81328000Y-134278714D01*
X81423238Y-134326333D01*
X81470857Y-134373952D01*
X81518476Y-134469190D01*
X81518476Y-134754904D01*
X81470857Y-134850142D01*
X81423238Y-134897761D01*
X81328000Y-134945380D01*
X81185142Y-134945380D01*
X81804190Y-134278714D02*
X82185142Y-134278714D01*
X81947047Y-134945380D02*
X81947047Y-134088238D01*
X81994666Y-133993000D01*
X82089904Y-133945380D01*
X82185142Y-133945380D01*
X83708952Y-133945380D02*
X83518476Y-133945380D01*
X83423238Y-133993000D01*
X83375619Y-134040619D01*
X83280380Y-134183476D01*
X83232761Y-134373952D01*
X83232761Y-134754904D01*
X83280380Y-134850142D01*
X83328000Y-134897761D01*
X83423238Y-134945380D01*
X83613714Y-134945380D01*
X83708952Y-134897761D01*
X83756571Y-134850142D01*
X83804190Y-134754904D01*
X83804190Y-134516809D01*
X83756571Y-134421571D01*
X83708952Y-134373952D01*
X83613714Y-134326333D01*
X83423238Y-134326333D01*
X83328000Y-134373952D01*
X83280380Y-134421571D01*
X83232761Y-134516809D01*
X84994666Y-134945380D02*
X84994666Y-133945380D01*
X85375619Y-133945380D01*
X85470857Y-133993000D01*
X85518476Y-134040619D01*
X85566095Y-134135857D01*
X85566095Y-134278714D01*
X85518476Y-134373952D01*
X85470857Y-134421571D01*
X85375619Y-134469190D01*
X84994666Y-134469190D01*
X86375619Y-134897761D02*
X86280380Y-134945380D01*
X86089904Y-134945380D01*
X85994666Y-134897761D01*
X85947047Y-134802523D01*
X85947047Y-134421571D01*
X85994666Y-134326333D01*
X86089904Y-134278714D01*
X86280380Y-134278714D01*
X86375619Y-134326333D01*
X86423238Y-134421571D01*
X86423238Y-134516809D01*
X85947047Y-134612047D01*
X86851809Y-134278714D02*
X86851809Y-134945380D01*
X86851809Y-134373952D02*
X86899428Y-134326333D01*
X86994666Y-134278714D01*
X87137523Y-134278714D01*
X87232761Y-134326333D01*
X87280380Y-134421571D01*
X87280380Y-134945380D01*
X87756571Y-134278714D02*
X87756571Y-134945380D01*
X87756571Y-134373952D02*
X87804190Y-134326333D01*
X87899428Y-134278714D01*
X88042285Y-134278714D01*
X88137523Y-134326333D01*
X88185142Y-134421571D01*
X88185142Y-134945380D01*
X88566095Y-134278714D02*
X88804190Y-134945380D01*
X89042285Y-134278714D02*
X88804190Y-134945380D01*
X88708952Y-135183476D01*
X88661333Y-135231095D01*
X88566095Y-135278714D01*
X90518476Y-134421571D02*
X90661333Y-134469190D01*
X90708952Y-134516809D01*
X90756571Y-134612047D01*
X90756571Y-134754904D01*
X90708952Y-134850142D01*
X90661333Y-134897761D01*
X90566095Y-134945380D01*
X90185142Y-134945380D01*
X90185142Y-133945380D01*
X90518476Y-133945380D01*
X90613714Y-133993000D01*
X90661333Y-134040619D01*
X90708952Y-134135857D01*
X90708952Y-134231095D01*
X90661333Y-134326333D01*
X90613714Y-134373952D01*
X90518476Y-134421571D01*
X90185142Y-134421571D01*
X91185142Y-134945380D02*
X91185142Y-134278714D01*
X91185142Y-133945380D02*
X91137523Y-133993000D01*
X91185142Y-134040619D01*
X91232761Y-133993000D01*
X91185142Y-133945380D01*
X91185142Y-134040619D01*
X91518476Y-134278714D02*
X91899428Y-134278714D01*
X91661333Y-133945380D02*
X91661333Y-134802523D01*
X91708952Y-134897761D01*
X91804190Y-134945380D01*
X91899428Y-134945380D01*
X92185142Y-134897761D02*
X92280380Y-134945380D01*
X92470857Y-134945380D01*
X92566095Y-134897761D01*
X92613714Y-134802523D01*
X92613714Y-134754904D01*
X92566095Y-134659666D01*
X92470857Y-134612047D01*
X92328000Y-134612047D01*
X92232761Y-134564428D01*
X92185142Y-134469190D01*
X92185142Y-134421571D01*
X92232761Y-134326333D01*
X92328000Y-134278714D01*
X92470857Y-134278714D01*
X92566095Y-134326333D01*
D11*
X76891428Y-39818571D02*
X76891428Y-40890000D01*
X76820000Y-41104285D01*
X76677142Y-41247142D01*
X76462857Y-41318571D01*
X76320000Y-41318571D01*
X78320000Y-41318571D02*
X77605714Y-41318571D01*
X77605714Y-39818571D01*
X79677142Y-41175714D02*
X79605714Y-41247142D01*
X79391428Y-41318571D01*
X79248571Y-41318571D01*
X79034285Y-41247142D01*
X78891428Y-41104285D01*
X78820000Y-40961428D01*
X78748571Y-40675714D01*
X78748571Y-40461428D01*
X78820000Y-40175714D01*
X78891428Y-40032857D01*
X79034285Y-39890000D01*
X79248571Y-39818571D01*
X79391428Y-39818571D01*
X79605714Y-39890000D01*
X79677142Y-39961428D01*
X80748571Y-39818571D02*
X80748571Y-40890000D01*
X80677142Y-41104285D01*
X80534285Y-41247142D01*
X80320000Y-41318571D01*
X80177142Y-41318571D01*
X82177142Y-41318571D02*
X81462857Y-41318571D01*
X81462857Y-39818571D01*
X83534285Y-41175714D02*
X83462857Y-41247142D01*
X83248571Y-41318571D01*
X83105714Y-41318571D01*
X82891428Y-41247142D01*
X82748571Y-41104285D01*
X82677142Y-40961428D01*
X82605714Y-40675714D01*
X82605714Y-40461428D01*
X82677142Y-40175714D01*
X82748571Y-40032857D01*
X82891428Y-39890000D01*
X83105714Y-39818571D01*
X83248571Y-39818571D01*
X83462857Y-39890000D01*
X83534285Y-39961428D01*
X84605714Y-39818571D02*
X84605714Y-40890000D01*
X84534285Y-41104285D01*
X84391428Y-41247142D01*
X84177142Y-41318571D01*
X84034285Y-41318571D01*
X86034285Y-41318571D02*
X85320000Y-41318571D01*
X85320000Y-39818571D01*
X87391428Y-41175714D02*
X87320000Y-41247142D01*
X87105714Y-41318571D01*
X86962857Y-41318571D01*
X86748571Y-41247142D01*
X86605714Y-41104285D01*
X86534285Y-40961428D01*
X86462857Y-40675714D01*
X86462857Y-40461428D01*
X86534285Y-40175714D01*
X86605714Y-40032857D01*
X86748571Y-39890000D01*
X86962857Y-39818571D01*
X87105714Y-39818571D01*
X87320000Y-39890000D01*
X87391428Y-39961428D01*
X88462857Y-39818571D02*
X88462857Y-40890000D01*
X88391428Y-41104285D01*
X88248571Y-41247142D01*
X88034285Y-41318571D01*
X87891428Y-41318571D01*
X89891428Y-41318571D02*
X89177142Y-41318571D01*
X89177142Y-39818571D01*
X91248571Y-41175714D02*
X91177142Y-41247142D01*
X90962857Y-41318571D01*
X90820000Y-41318571D01*
X90605714Y-41247142D01*
X90462857Y-41104285D01*
X90391428Y-40961428D01*
X90320000Y-40675714D01*
X90320000Y-40461428D01*
X90391428Y-40175714D01*
X90462857Y-40032857D01*
X90605714Y-39890000D01*
X90820000Y-39818571D01*
X90962857Y-39818571D01*
X91177142Y-39890000D01*
X91248571Y-39961428D01*
D12*
X122606000Y-57690000D02*
X122606000Y-61690000D01*
X119606000Y-55890000D02*
X122406000Y-55890000D01*
X122406000Y-63490000D02*
X119606000Y-63490000D01*
X159253422Y-66496000D02*
X159770578Y-66496000D01*
X159253422Y-65076000D02*
X159770578Y-65076000D01*
X136402578Y-51614000D02*
X135885422Y-51614000D01*
X136402578Y-53034000D02*
X135885422Y-53034000D01*
X165156000Y-52326000D02*
X165156000Y-53786000D01*
X161996000Y-52326000D02*
X161996000Y-54486000D01*
X161996000Y-52326000D02*
X162926000Y-52326000D01*
X165156000Y-52326000D02*
X164226000Y-52326000D01*
X137044000Y-53508000D02*
X134594000Y-53508000D01*
X135244000Y-56728000D02*
X137044000Y-56728000D01*
X145546578Y-61520000D02*
X145029422Y-61520000D01*
X145546578Y-62940000D02*
X145029422Y-62940000D01*
X150880578Y-53138000D02*
X150363422Y-53138000D01*
X150880578Y-54558000D02*
X150363422Y-54558000D01*
X132178000Y-54724000D02*
X132178000Y-55939000D01*
X132118000Y-50764000D02*
X132118000Y-48504000D01*
X131618000Y-50764000D02*
X131618000Y-48504000D01*
X129018000Y-52364000D02*
X128018000Y-52364000D01*
X129018000Y-50764000D02*
X129018000Y-52364000D01*
X128018000Y-50764000D02*
X129018000Y-50764000D01*
X128018000Y-52364000D02*
X128018000Y-50764000D01*
X131618000Y-52364000D02*
X132618000Y-52364000D01*
X131618000Y-50764000D02*
X131618000Y-52364000D01*
X132618000Y-50764000D02*
X131618000Y-50764000D01*
X132618000Y-52364000D02*
X132618000Y-50764000D01*
X127258000Y-54724000D02*
X128178000Y-54724000D01*
X133378000Y-54724000D02*
X132458000Y-54724000D01*
X129818000Y-52864000D02*
X129818000Y-48504000D01*
X130818000Y-52864000D02*
X129818000Y-52864000D01*
X130818000Y-48504000D02*
X130818000Y-52864000D01*
X128178000Y-54724000D02*
X128458000Y-54724000D01*
X128178000Y-56324000D02*
X128178000Y-54724000D01*
X127258000Y-56324000D02*
X128178000Y-56324000D01*
X127258000Y-48504000D02*
X127258000Y-56324000D01*
X133378000Y-48504000D02*
X127258000Y-48504000D01*
X133378000Y-56324000D02*
X133378000Y-48504000D01*
X132458000Y-56324000D02*
X133378000Y-56324000D01*
X132458000Y-54724000D02*
X132458000Y-56324000D01*
X132178000Y-54724000D02*
X132458000Y-54724000D01*
X137108000Y-65536578D02*
X137108000Y-65019422D01*
X135688000Y-65536578D02*
X135688000Y-65019422D01*
X140466578Y-57964000D02*
X139949422Y-57964000D01*
X140466578Y-59384000D02*
X139949422Y-59384000D01*
X133853422Y-58876000D02*
X134370578Y-58876000D01*
X133853422Y-57456000D02*
X134370578Y-57456000D01*
X150570000Y-58170578D02*
X150570000Y-57653422D01*
X149150000Y-58170578D02*
X149150000Y-57653422D01*
X166880000Y-55824000D02*
X168340000Y-55824000D01*
X166880000Y-58984000D02*
X169040000Y-58984000D01*
X166880000Y-58984000D02*
X166880000Y-58054000D01*
X166880000Y-55824000D02*
X166880000Y-56754000D01*
X141818000Y-56272000D02*
X141818000Y-53822000D01*
X138598000Y-54472000D02*
X138598000Y-56272000D01*
X127306000Y-60955422D02*
X127306000Y-61472578D01*
X128726000Y-60955422D02*
X128726000Y-61472578D01*
X133148000Y-65019422D02*
X133148000Y-65536578D01*
X134568000Y-65019422D02*
X134568000Y-65536578D01*
X142834000Y-60882000D02*
X147234000Y-60882000D01*
X147234000Y-60882000D02*
X147234000Y-60762000D01*
X147234000Y-59752000D02*
X147234000Y-58612000D01*
X147234000Y-57602000D02*
X147234000Y-57482000D01*
X147234000Y-57482000D02*
X142834000Y-57482000D01*
X142834000Y-57482000D02*
X142834000Y-57602000D01*
X142834000Y-58612000D02*
X142834000Y-59752000D01*
X142834000Y-60762000D02*
X142834000Y-60882000D01*
X144775422Y-56844000D02*
X145292578Y-56844000D01*
X144775422Y-55424000D02*
X145292578Y-55424000D01*
X137582000Y-59768000D02*
X133182000Y-59768000D01*
X133182000Y-59768000D02*
X133182000Y-59888000D01*
X133182000Y-60898000D02*
X133182000Y-62038000D01*
X133182000Y-63048000D02*
X133182000Y-63168000D01*
X133182000Y-63168000D02*
X137582000Y-63168000D01*
X137582000Y-63168000D02*
X137582000Y-63048000D01*
X137582000Y-62038000D02*
X137582000Y-60898000D01*
X137582000Y-59888000D02*
X137582000Y-59768000D01*
X129338000Y-60955422D02*
X129338000Y-61472578D01*
X130758000Y-60955422D02*
X130758000Y-61472578D01*
X140466578Y-51614000D02*
X139949422Y-51614000D01*
X140466578Y-53034000D02*
X139949422Y-53034000D01*
X164906000Y-66862000D02*
X163576000Y-66862000D01*
X164906000Y-65532000D02*
X164906000Y-66862000D01*
X164906000Y-64262000D02*
X162246000Y-64262000D01*
X162246000Y-64262000D02*
X162246000Y-61662000D01*
X164906000Y-64262000D02*
X164906000Y-61662000D01*
X164906000Y-61662000D02*
X162246000Y-61662000D01*
X167381422Y-61416000D02*
X167898578Y-61416000D01*
X167381422Y-59996000D02*
X167898578Y-59996000D01*
X167381422Y-55320000D02*
X167898578Y-55320000D01*
X167381422Y-53900000D02*
X167898578Y-53900000D01*
X166880000Y-61920000D02*
X168340000Y-61920000D01*
X166880000Y-65080000D02*
X169040000Y-65080000D01*
X166880000Y-65080000D02*
X166880000Y-64150000D01*
X166880000Y-61920000D02*
X166880000Y-62850000D01*
X152600000Y-55364000D02*
X151285000Y-55364000D01*
X152600000Y-55064000D02*
X152600000Y-55364000D01*
X152900000Y-55064000D02*
X152600000Y-55064000D01*
X159820000Y-55064000D02*
X159820000Y-55364000D01*
X159520000Y-55064000D02*
X159820000Y-55064000D01*
X152600000Y-62284000D02*
X152600000Y-61984000D01*
X152900000Y-62284000D02*
X152600000Y-62284000D01*
X159820000Y-62284000D02*
X159820000Y-61984000D01*
X159520000Y-62284000D02*
X159820000Y-62284000D01*
X126399000Y-52634000D02*
X123714000Y-52634000D01*
X126399000Y-54554000D02*
X126399000Y-52634000D01*
X123714000Y-54554000D02*
X126399000Y-54554000D01*
X163628000Y-56383422D02*
X163628000Y-56900578D01*
X165048000Y-56383422D02*
X165048000Y-56900578D01*
X125020000Y-50541422D02*
X125020000Y-51058578D01*
X126440000Y-50541422D02*
X126440000Y-51058578D01*
X127544000Y-57166000D02*
X131444000Y-57166000D01*
X127544000Y-59166000D02*
X131444000Y-59166000D01*
X127544000Y-57166000D02*
X127544000Y-59166000D01*
X66726000Y-57690000D02*
X66726000Y-61690000D01*
X63726000Y-55890000D02*
X66526000Y-55890000D01*
X66526000Y-63490000D02*
X63726000Y-63490000D01*
X103373422Y-66496000D02*
X103890578Y-66496000D01*
X103373422Y-65076000D02*
X103890578Y-65076000D01*
X80522578Y-51614000D02*
X80005422Y-51614000D01*
X80522578Y-53034000D02*
X80005422Y-53034000D01*
X109276000Y-52326000D02*
X109276000Y-53786000D01*
X106116000Y-52326000D02*
X106116000Y-54486000D01*
X106116000Y-52326000D02*
X107046000Y-52326000D01*
X109276000Y-52326000D02*
X108346000Y-52326000D01*
X81164000Y-53508000D02*
X78714000Y-53508000D01*
X79364000Y-56728000D02*
X81164000Y-56728000D01*
X89666578Y-61520000D02*
X89149422Y-61520000D01*
X89666578Y-62940000D02*
X89149422Y-62940000D01*
X95000578Y-53138000D02*
X94483422Y-53138000D01*
X95000578Y-54558000D02*
X94483422Y-54558000D01*
X76298000Y-54724000D02*
X76298000Y-55939000D01*
X76238000Y-50764000D02*
X76238000Y-48504000D01*
X75738000Y-50764000D02*
X75738000Y-48504000D01*
X73138000Y-52364000D02*
X72138000Y-52364000D01*
X73138000Y-50764000D02*
X73138000Y-52364000D01*
X72138000Y-50764000D02*
X73138000Y-50764000D01*
X72138000Y-52364000D02*
X72138000Y-50764000D01*
X75738000Y-52364000D02*
X76738000Y-52364000D01*
X75738000Y-50764000D02*
X75738000Y-52364000D01*
X76738000Y-50764000D02*
X75738000Y-50764000D01*
X76738000Y-52364000D02*
X76738000Y-50764000D01*
X71378000Y-54724000D02*
X72298000Y-54724000D01*
X77498000Y-54724000D02*
X76578000Y-54724000D01*
X73938000Y-52864000D02*
X73938000Y-48504000D01*
X74938000Y-52864000D02*
X73938000Y-52864000D01*
X74938000Y-48504000D02*
X74938000Y-52864000D01*
X72298000Y-54724000D02*
X72578000Y-54724000D01*
X72298000Y-56324000D02*
X72298000Y-54724000D01*
X71378000Y-56324000D02*
X72298000Y-56324000D01*
X71378000Y-48504000D02*
X71378000Y-56324000D01*
X77498000Y-48504000D02*
X71378000Y-48504000D01*
X77498000Y-56324000D02*
X77498000Y-48504000D01*
X76578000Y-56324000D02*
X77498000Y-56324000D01*
X76578000Y-54724000D02*
X76578000Y-56324000D01*
X76298000Y-54724000D02*
X76578000Y-54724000D01*
X81228000Y-65536578D02*
X81228000Y-65019422D01*
X79808000Y-65536578D02*
X79808000Y-65019422D01*
X84586578Y-57964000D02*
X84069422Y-57964000D01*
X84586578Y-59384000D02*
X84069422Y-59384000D01*
X77973422Y-58876000D02*
X78490578Y-58876000D01*
X77973422Y-57456000D02*
X78490578Y-57456000D01*
X94690000Y-58170578D02*
X94690000Y-57653422D01*
X93270000Y-58170578D02*
X93270000Y-57653422D01*
X111000000Y-55824000D02*
X112460000Y-55824000D01*
X111000000Y-58984000D02*
X113160000Y-58984000D01*
X111000000Y-58984000D02*
X111000000Y-58054000D01*
X111000000Y-55824000D02*
X111000000Y-56754000D01*
X85938000Y-56272000D02*
X85938000Y-53822000D01*
X82718000Y-54472000D02*
X82718000Y-56272000D01*
X71426000Y-60955422D02*
X71426000Y-61472578D01*
X72846000Y-60955422D02*
X72846000Y-61472578D01*
X77268000Y-65019422D02*
X77268000Y-65536578D01*
X78688000Y-65019422D02*
X78688000Y-65536578D01*
X86954000Y-60882000D02*
X91354000Y-60882000D01*
X91354000Y-60882000D02*
X91354000Y-60762000D01*
X91354000Y-59752000D02*
X91354000Y-58612000D01*
X91354000Y-57602000D02*
X91354000Y-57482000D01*
X91354000Y-57482000D02*
X86954000Y-57482000D01*
X86954000Y-57482000D02*
X86954000Y-57602000D01*
X86954000Y-58612000D02*
X86954000Y-59752000D01*
X86954000Y-60762000D02*
X86954000Y-60882000D01*
X88895422Y-56844000D02*
X89412578Y-56844000D01*
X88895422Y-55424000D02*
X89412578Y-55424000D01*
X81702000Y-59768000D02*
X77302000Y-59768000D01*
X77302000Y-59768000D02*
X77302000Y-59888000D01*
X77302000Y-60898000D02*
X77302000Y-62038000D01*
X77302000Y-63048000D02*
X77302000Y-63168000D01*
X77302000Y-63168000D02*
X81702000Y-63168000D01*
X81702000Y-63168000D02*
X81702000Y-63048000D01*
X81702000Y-62038000D02*
X81702000Y-60898000D01*
X81702000Y-59888000D02*
X81702000Y-59768000D01*
X73458000Y-60955422D02*
X73458000Y-61472578D01*
X74878000Y-60955422D02*
X74878000Y-61472578D01*
X84586578Y-51614000D02*
X84069422Y-51614000D01*
X84586578Y-53034000D02*
X84069422Y-53034000D01*
X109026000Y-66862000D02*
X107696000Y-66862000D01*
X109026000Y-65532000D02*
X109026000Y-66862000D01*
X109026000Y-64262000D02*
X106366000Y-64262000D01*
X106366000Y-64262000D02*
X106366000Y-61662000D01*
X109026000Y-64262000D02*
X109026000Y-61662000D01*
X109026000Y-61662000D02*
X106366000Y-61662000D01*
X111501422Y-61416000D02*
X112018578Y-61416000D01*
X111501422Y-59996000D02*
X112018578Y-59996000D01*
X111501422Y-55320000D02*
X112018578Y-55320000D01*
X111501422Y-53900000D02*
X112018578Y-53900000D01*
X111000000Y-61920000D02*
X112460000Y-61920000D01*
X111000000Y-65080000D02*
X113160000Y-65080000D01*
X111000000Y-65080000D02*
X111000000Y-64150000D01*
X111000000Y-61920000D02*
X111000000Y-62850000D01*
X96720000Y-55364000D02*
X95405000Y-55364000D01*
X96720000Y-55064000D02*
X96720000Y-55364000D01*
X97020000Y-55064000D02*
X96720000Y-55064000D01*
X103940000Y-55064000D02*
X103940000Y-55364000D01*
X103640000Y-55064000D02*
X103940000Y-55064000D01*
X96720000Y-62284000D02*
X96720000Y-61984000D01*
X97020000Y-62284000D02*
X96720000Y-62284000D01*
X103940000Y-62284000D02*
X103940000Y-61984000D01*
X103640000Y-62284000D02*
X103940000Y-62284000D01*
X70519000Y-52634000D02*
X67834000Y-52634000D01*
X70519000Y-54554000D02*
X70519000Y-52634000D01*
X67834000Y-54554000D02*
X70519000Y-54554000D01*
X107748000Y-56383422D02*
X107748000Y-56900578D01*
X109168000Y-56383422D02*
X109168000Y-56900578D01*
X69140000Y-50541422D02*
X69140000Y-51058578D01*
X70560000Y-50541422D02*
X70560000Y-51058578D01*
X71664000Y-57166000D02*
X75564000Y-57166000D01*
X71664000Y-59166000D02*
X75564000Y-59166000D01*
X71664000Y-57166000D02*
X71664000Y-59166000D01*
X66726000Y-85630000D02*
X66726000Y-89630000D01*
X63726000Y-83830000D02*
X66526000Y-83830000D01*
X66526000Y-91430000D02*
X63726000Y-91430000D01*
X103373422Y-94436000D02*
X103890578Y-94436000D01*
X103373422Y-93016000D02*
X103890578Y-93016000D01*
X80522578Y-79554000D02*
X80005422Y-79554000D01*
X80522578Y-80974000D02*
X80005422Y-80974000D01*
X109276000Y-80266000D02*
X109276000Y-81726000D01*
X106116000Y-80266000D02*
X106116000Y-82426000D01*
X106116000Y-80266000D02*
X107046000Y-80266000D01*
X109276000Y-80266000D02*
X108346000Y-80266000D01*
X81164000Y-81448000D02*
X78714000Y-81448000D01*
X79364000Y-84668000D02*
X81164000Y-84668000D01*
X89666578Y-89460000D02*
X89149422Y-89460000D01*
X89666578Y-90880000D02*
X89149422Y-90880000D01*
X95000578Y-81078000D02*
X94483422Y-81078000D01*
X95000578Y-82498000D02*
X94483422Y-82498000D01*
X76298000Y-82664000D02*
X76298000Y-83879000D01*
X76238000Y-78704000D02*
X76238000Y-76444000D01*
X75738000Y-78704000D02*
X75738000Y-76444000D01*
X73138000Y-80304000D02*
X72138000Y-80304000D01*
X73138000Y-78704000D02*
X73138000Y-80304000D01*
X72138000Y-78704000D02*
X73138000Y-78704000D01*
X72138000Y-80304000D02*
X72138000Y-78704000D01*
X75738000Y-80304000D02*
X76738000Y-80304000D01*
X75738000Y-78704000D02*
X75738000Y-80304000D01*
X76738000Y-78704000D02*
X75738000Y-78704000D01*
X76738000Y-80304000D02*
X76738000Y-78704000D01*
X71378000Y-82664000D02*
X72298000Y-82664000D01*
X77498000Y-82664000D02*
X76578000Y-82664000D01*
X73938000Y-80804000D02*
X73938000Y-76444000D01*
X74938000Y-80804000D02*
X73938000Y-80804000D01*
X74938000Y-76444000D02*
X74938000Y-80804000D01*
X72298000Y-82664000D02*
X72578000Y-82664000D01*
X72298000Y-84264000D02*
X72298000Y-82664000D01*
X71378000Y-84264000D02*
X72298000Y-84264000D01*
X71378000Y-76444000D02*
X71378000Y-84264000D01*
X77498000Y-76444000D02*
X71378000Y-76444000D01*
X77498000Y-84264000D02*
X77498000Y-76444000D01*
X76578000Y-84264000D02*
X77498000Y-84264000D01*
X76578000Y-82664000D02*
X76578000Y-84264000D01*
X76298000Y-82664000D02*
X76578000Y-82664000D01*
X81228000Y-93476578D02*
X81228000Y-92959422D01*
X79808000Y-93476578D02*
X79808000Y-92959422D01*
X84586578Y-85904000D02*
X84069422Y-85904000D01*
X84586578Y-87324000D02*
X84069422Y-87324000D01*
X77973422Y-86816000D02*
X78490578Y-86816000D01*
X77973422Y-85396000D02*
X78490578Y-85396000D01*
X94690000Y-86110578D02*
X94690000Y-85593422D01*
X93270000Y-86110578D02*
X93270000Y-85593422D01*
X111000000Y-83764000D02*
X112460000Y-83764000D01*
X111000000Y-86924000D02*
X113160000Y-86924000D01*
X111000000Y-86924000D02*
X111000000Y-85994000D01*
X111000000Y-83764000D02*
X111000000Y-84694000D01*
X85938000Y-84212000D02*
X85938000Y-81762000D01*
X82718000Y-82412000D02*
X82718000Y-84212000D01*
X71426000Y-88895422D02*
X71426000Y-89412578D01*
X72846000Y-88895422D02*
X72846000Y-89412578D01*
X77268000Y-92959422D02*
X77268000Y-93476578D01*
X78688000Y-92959422D02*
X78688000Y-93476578D01*
X86954000Y-88822000D02*
X91354000Y-88822000D01*
X91354000Y-88822000D02*
X91354000Y-88702000D01*
X91354000Y-87692000D02*
X91354000Y-86552000D01*
X91354000Y-85542000D02*
X91354000Y-85422000D01*
X91354000Y-85422000D02*
X86954000Y-85422000D01*
X86954000Y-85422000D02*
X86954000Y-85542000D01*
X86954000Y-86552000D02*
X86954000Y-87692000D01*
X86954000Y-88702000D02*
X86954000Y-88822000D01*
X88895422Y-84784000D02*
X89412578Y-84784000D01*
X88895422Y-83364000D02*
X89412578Y-83364000D01*
X81702000Y-87708000D02*
X77302000Y-87708000D01*
X77302000Y-87708000D02*
X77302000Y-87828000D01*
X77302000Y-88838000D02*
X77302000Y-89978000D01*
X77302000Y-90988000D02*
X77302000Y-91108000D01*
X77302000Y-91108000D02*
X81702000Y-91108000D01*
X81702000Y-91108000D02*
X81702000Y-90988000D01*
X81702000Y-89978000D02*
X81702000Y-88838000D01*
X81702000Y-87828000D02*
X81702000Y-87708000D01*
X73458000Y-88895422D02*
X73458000Y-89412578D01*
X74878000Y-88895422D02*
X74878000Y-89412578D01*
X84586578Y-79554000D02*
X84069422Y-79554000D01*
X84586578Y-80974000D02*
X84069422Y-80974000D01*
X109026000Y-94802000D02*
X107696000Y-94802000D01*
X109026000Y-93472000D02*
X109026000Y-94802000D01*
X109026000Y-92202000D02*
X106366000Y-92202000D01*
X106366000Y-92202000D02*
X106366000Y-89602000D01*
X109026000Y-92202000D02*
X109026000Y-89602000D01*
X109026000Y-89602000D02*
X106366000Y-89602000D01*
X111501422Y-89356000D02*
X112018578Y-89356000D01*
X111501422Y-87936000D02*
X112018578Y-87936000D01*
X111501422Y-83260000D02*
X112018578Y-83260000D01*
X111501422Y-81840000D02*
X112018578Y-81840000D01*
X111000000Y-89860000D02*
X112460000Y-89860000D01*
X111000000Y-93020000D02*
X113160000Y-93020000D01*
X111000000Y-93020000D02*
X111000000Y-92090000D01*
X111000000Y-89860000D02*
X111000000Y-90790000D01*
X96720000Y-83304000D02*
X95405000Y-83304000D01*
X96720000Y-83004000D02*
X96720000Y-83304000D01*
X97020000Y-83004000D02*
X96720000Y-83004000D01*
X103940000Y-83004000D02*
X103940000Y-83304000D01*
X103640000Y-83004000D02*
X103940000Y-83004000D01*
X96720000Y-90224000D02*
X96720000Y-89924000D01*
X97020000Y-90224000D02*
X96720000Y-90224000D01*
X103940000Y-90224000D02*
X103940000Y-89924000D01*
X103640000Y-90224000D02*
X103940000Y-90224000D01*
X70519000Y-80574000D02*
X67834000Y-80574000D01*
X70519000Y-82494000D02*
X70519000Y-80574000D01*
X67834000Y-82494000D02*
X70519000Y-82494000D01*
X107748000Y-84323422D02*
X107748000Y-84840578D01*
X109168000Y-84323422D02*
X109168000Y-84840578D01*
X69140000Y-78481422D02*
X69140000Y-78998578D01*
X70560000Y-78481422D02*
X70560000Y-78998578D01*
X71664000Y-85106000D02*
X75564000Y-85106000D01*
X71664000Y-87106000D02*
X75564000Y-87106000D01*
X71664000Y-85106000D02*
X71664000Y-87106000D01*
X122606000Y-85630000D02*
X122606000Y-89630000D01*
X119606000Y-83830000D02*
X122406000Y-83830000D01*
X122406000Y-91430000D02*
X119606000Y-91430000D01*
X159253422Y-94436000D02*
X159770578Y-94436000D01*
X159253422Y-93016000D02*
X159770578Y-93016000D01*
X136402578Y-79554000D02*
X135885422Y-79554000D01*
X136402578Y-80974000D02*
X135885422Y-80974000D01*
X165156000Y-80266000D02*
X165156000Y-81726000D01*
X161996000Y-80266000D02*
X161996000Y-82426000D01*
X161996000Y-80266000D02*
X162926000Y-80266000D01*
X165156000Y-80266000D02*
X164226000Y-80266000D01*
X137044000Y-81448000D02*
X134594000Y-81448000D01*
X135244000Y-84668000D02*
X137044000Y-84668000D01*
X145546578Y-89460000D02*
X145029422Y-89460000D01*
X145546578Y-90880000D02*
X145029422Y-90880000D01*
X150880578Y-81078000D02*
X150363422Y-81078000D01*
X150880578Y-82498000D02*
X150363422Y-82498000D01*
X132178000Y-82664000D02*
X132178000Y-83879000D01*
X132118000Y-78704000D02*
X132118000Y-76444000D01*
X131618000Y-78704000D02*
X131618000Y-76444000D01*
X129018000Y-80304000D02*
X128018000Y-80304000D01*
X129018000Y-78704000D02*
X129018000Y-80304000D01*
X128018000Y-78704000D02*
X129018000Y-78704000D01*
X128018000Y-80304000D02*
X128018000Y-78704000D01*
X131618000Y-80304000D02*
X132618000Y-80304000D01*
X131618000Y-78704000D02*
X131618000Y-80304000D01*
X132618000Y-78704000D02*
X131618000Y-78704000D01*
X132618000Y-80304000D02*
X132618000Y-78704000D01*
X127258000Y-82664000D02*
X128178000Y-82664000D01*
X133378000Y-82664000D02*
X132458000Y-82664000D01*
X129818000Y-80804000D02*
X129818000Y-76444000D01*
X130818000Y-80804000D02*
X129818000Y-80804000D01*
X130818000Y-76444000D02*
X130818000Y-80804000D01*
X128178000Y-82664000D02*
X128458000Y-82664000D01*
X128178000Y-84264000D02*
X128178000Y-82664000D01*
X127258000Y-84264000D02*
X128178000Y-84264000D01*
X127258000Y-76444000D02*
X127258000Y-84264000D01*
X133378000Y-76444000D02*
X127258000Y-76444000D01*
X133378000Y-84264000D02*
X133378000Y-76444000D01*
X132458000Y-84264000D02*
X133378000Y-84264000D01*
X132458000Y-82664000D02*
X132458000Y-84264000D01*
X132178000Y-82664000D02*
X132458000Y-82664000D01*
X137108000Y-93476578D02*
X137108000Y-92959422D01*
X135688000Y-93476578D02*
X135688000Y-92959422D01*
X140466578Y-85904000D02*
X139949422Y-85904000D01*
X140466578Y-87324000D02*
X139949422Y-87324000D01*
X133853422Y-86816000D02*
X134370578Y-86816000D01*
X133853422Y-85396000D02*
X134370578Y-85396000D01*
X150570000Y-86110578D02*
X150570000Y-85593422D01*
X149150000Y-86110578D02*
X149150000Y-85593422D01*
X166880000Y-83764000D02*
X168340000Y-83764000D01*
X166880000Y-86924000D02*
X169040000Y-86924000D01*
X166880000Y-86924000D02*
X166880000Y-85994000D01*
X166880000Y-83764000D02*
X166880000Y-84694000D01*
X141818000Y-84212000D02*
X141818000Y-81762000D01*
X138598000Y-82412000D02*
X138598000Y-84212000D01*
X127306000Y-88895422D02*
X127306000Y-89412578D01*
X128726000Y-88895422D02*
X128726000Y-89412578D01*
X133148000Y-92959422D02*
X133148000Y-93476578D01*
X134568000Y-92959422D02*
X134568000Y-93476578D01*
X142834000Y-88822000D02*
X147234000Y-88822000D01*
X147234000Y-88822000D02*
X147234000Y-88702000D01*
X147234000Y-87692000D02*
X147234000Y-86552000D01*
X147234000Y-85542000D02*
X147234000Y-85422000D01*
X147234000Y-85422000D02*
X142834000Y-85422000D01*
X142834000Y-85422000D02*
X142834000Y-85542000D01*
X142834000Y-86552000D02*
X142834000Y-87692000D01*
X142834000Y-88702000D02*
X142834000Y-88822000D01*
X144775422Y-84784000D02*
X145292578Y-84784000D01*
X144775422Y-83364000D02*
X145292578Y-83364000D01*
X137582000Y-87708000D02*
X133182000Y-87708000D01*
X133182000Y-87708000D02*
X133182000Y-87828000D01*
X133182000Y-88838000D02*
X133182000Y-89978000D01*
X133182000Y-90988000D02*
X133182000Y-91108000D01*
X133182000Y-91108000D02*
X137582000Y-91108000D01*
X137582000Y-91108000D02*
X137582000Y-90988000D01*
X137582000Y-89978000D02*
X137582000Y-88838000D01*
X137582000Y-87828000D02*
X137582000Y-87708000D01*
X129338000Y-88895422D02*
X129338000Y-89412578D01*
X130758000Y-88895422D02*
X130758000Y-89412578D01*
X140466578Y-79554000D02*
X139949422Y-79554000D01*
X140466578Y-80974000D02*
X139949422Y-80974000D01*
X164906000Y-94802000D02*
X163576000Y-94802000D01*
X164906000Y-93472000D02*
X164906000Y-94802000D01*
X164906000Y-92202000D02*
X162246000Y-92202000D01*
X162246000Y-92202000D02*
X162246000Y-89602000D01*
X164906000Y-92202000D02*
X164906000Y-89602000D01*
X164906000Y-89602000D02*
X162246000Y-89602000D01*
X167381422Y-89356000D02*
X167898578Y-89356000D01*
X167381422Y-87936000D02*
X167898578Y-87936000D01*
X167381422Y-83260000D02*
X167898578Y-83260000D01*
X167381422Y-81840000D02*
X167898578Y-81840000D01*
X166880000Y-89860000D02*
X168340000Y-89860000D01*
X166880000Y-93020000D02*
X169040000Y-93020000D01*
X166880000Y-93020000D02*
X166880000Y-92090000D01*
X166880000Y-89860000D02*
X166880000Y-90790000D01*
X152600000Y-83304000D02*
X151285000Y-83304000D01*
X152600000Y-83004000D02*
X152600000Y-83304000D01*
X152900000Y-83004000D02*
X152600000Y-83004000D01*
X159820000Y-83004000D02*
X159820000Y-83304000D01*
X159520000Y-83004000D02*
X159820000Y-83004000D01*
X152600000Y-90224000D02*
X152600000Y-89924000D01*
X152900000Y-90224000D02*
X152600000Y-90224000D01*
X159820000Y-90224000D02*
X159820000Y-89924000D01*
X159520000Y-90224000D02*
X159820000Y-90224000D01*
X126399000Y-80574000D02*
X123714000Y-80574000D01*
X126399000Y-82494000D02*
X126399000Y-80574000D01*
X123714000Y-82494000D02*
X126399000Y-82494000D01*
X163628000Y-84323422D02*
X163628000Y-84840578D01*
X165048000Y-84323422D02*
X165048000Y-84840578D01*
X125020000Y-78481422D02*
X125020000Y-78998578D01*
X126440000Y-78481422D02*
X126440000Y-78998578D01*
X127544000Y-85106000D02*
X131444000Y-85106000D01*
X127544000Y-87106000D02*
X131444000Y-87106000D01*
X127544000Y-85106000D02*
X127544000Y-87106000D01*
X122606000Y-113570000D02*
X122606000Y-117570000D01*
X119606000Y-111770000D02*
X122406000Y-111770000D01*
X122406000Y-119370000D02*
X119606000Y-119370000D01*
X159253422Y-122376000D02*
X159770578Y-122376000D01*
X159253422Y-120956000D02*
X159770578Y-120956000D01*
X136402578Y-107494000D02*
X135885422Y-107494000D01*
X136402578Y-108914000D02*
X135885422Y-108914000D01*
X165156000Y-108206000D02*
X165156000Y-109666000D01*
X161996000Y-108206000D02*
X161996000Y-110366000D01*
X161996000Y-108206000D02*
X162926000Y-108206000D01*
X165156000Y-108206000D02*
X164226000Y-108206000D01*
X137044000Y-109388000D02*
X134594000Y-109388000D01*
X135244000Y-112608000D02*
X137044000Y-112608000D01*
X145546578Y-117400000D02*
X145029422Y-117400000D01*
X145546578Y-118820000D02*
X145029422Y-118820000D01*
X150880578Y-109018000D02*
X150363422Y-109018000D01*
X150880578Y-110438000D02*
X150363422Y-110438000D01*
X132178000Y-110604000D02*
X132178000Y-111819000D01*
X132118000Y-106644000D02*
X132118000Y-104384000D01*
X131618000Y-106644000D02*
X131618000Y-104384000D01*
X129018000Y-108244000D02*
X128018000Y-108244000D01*
X129018000Y-106644000D02*
X129018000Y-108244000D01*
X128018000Y-106644000D02*
X129018000Y-106644000D01*
X128018000Y-108244000D02*
X128018000Y-106644000D01*
X131618000Y-108244000D02*
X132618000Y-108244000D01*
X131618000Y-106644000D02*
X131618000Y-108244000D01*
X132618000Y-106644000D02*
X131618000Y-106644000D01*
X132618000Y-108244000D02*
X132618000Y-106644000D01*
X127258000Y-110604000D02*
X128178000Y-110604000D01*
X133378000Y-110604000D02*
X132458000Y-110604000D01*
X129818000Y-108744000D02*
X129818000Y-104384000D01*
X130818000Y-108744000D02*
X129818000Y-108744000D01*
X130818000Y-104384000D02*
X130818000Y-108744000D01*
X128178000Y-110604000D02*
X128458000Y-110604000D01*
X128178000Y-112204000D02*
X128178000Y-110604000D01*
X127258000Y-112204000D02*
X128178000Y-112204000D01*
X127258000Y-104384000D02*
X127258000Y-112204000D01*
X133378000Y-104384000D02*
X127258000Y-104384000D01*
X133378000Y-112204000D02*
X133378000Y-104384000D01*
X132458000Y-112204000D02*
X133378000Y-112204000D01*
X132458000Y-110604000D02*
X132458000Y-112204000D01*
X132178000Y-110604000D02*
X132458000Y-110604000D01*
X137108000Y-121416578D02*
X137108000Y-120899422D01*
X135688000Y-121416578D02*
X135688000Y-120899422D01*
X140466578Y-113844000D02*
X139949422Y-113844000D01*
X140466578Y-115264000D02*
X139949422Y-115264000D01*
X133853422Y-114756000D02*
X134370578Y-114756000D01*
X133853422Y-113336000D02*
X134370578Y-113336000D01*
X150570000Y-114050578D02*
X150570000Y-113533422D01*
X149150000Y-114050578D02*
X149150000Y-113533422D01*
X166880000Y-111704000D02*
X168340000Y-111704000D01*
X166880000Y-114864000D02*
X169040000Y-114864000D01*
X166880000Y-114864000D02*
X166880000Y-113934000D01*
X166880000Y-111704000D02*
X166880000Y-112634000D01*
X141818000Y-112152000D02*
X141818000Y-109702000D01*
X138598000Y-110352000D02*
X138598000Y-112152000D01*
X127306000Y-116835422D02*
X127306000Y-117352578D01*
X128726000Y-116835422D02*
X128726000Y-117352578D01*
X133148000Y-120899422D02*
X133148000Y-121416578D01*
X134568000Y-120899422D02*
X134568000Y-121416578D01*
X142834000Y-116762000D02*
X147234000Y-116762000D01*
X147234000Y-116762000D02*
X147234000Y-116642000D01*
X147234000Y-115632000D02*
X147234000Y-114492000D01*
X147234000Y-113482000D02*
X147234000Y-113362000D01*
X147234000Y-113362000D02*
X142834000Y-113362000D01*
X142834000Y-113362000D02*
X142834000Y-113482000D01*
X142834000Y-114492000D02*
X142834000Y-115632000D01*
X142834000Y-116642000D02*
X142834000Y-116762000D01*
X144775422Y-112724000D02*
X145292578Y-112724000D01*
X144775422Y-111304000D02*
X145292578Y-111304000D01*
X137582000Y-115648000D02*
X133182000Y-115648000D01*
X133182000Y-115648000D02*
X133182000Y-115768000D01*
X133182000Y-116778000D02*
X133182000Y-117918000D01*
X133182000Y-118928000D02*
X133182000Y-119048000D01*
X133182000Y-119048000D02*
X137582000Y-119048000D01*
X137582000Y-119048000D02*
X137582000Y-118928000D01*
X137582000Y-117918000D02*
X137582000Y-116778000D01*
X137582000Y-115768000D02*
X137582000Y-115648000D01*
X129338000Y-116835422D02*
X129338000Y-117352578D01*
X130758000Y-116835422D02*
X130758000Y-117352578D01*
X140466578Y-107494000D02*
X139949422Y-107494000D01*
X140466578Y-108914000D02*
X139949422Y-108914000D01*
X164906000Y-122742000D02*
X163576000Y-122742000D01*
X164906000Y-121412000D02*
X164906000Y-122742000D01*
X164906000Y-120142000D02*
X162246000Y-120142000D01*
X162246000Y-120142000D02*
X162246000Y-117542000D01*
X164906000Y-120142000D02*
X164906000Y-117542000D01*
X164906000Y-117542000D02*
X162246000Y-117542000D01*
X167381422Y-117296000D02*
X167898578Y-117296000D01*
X167381422Y-115876000D02*
X167898578Y-115876000D01*
X167381422Y-111200000D02*
X167898578Y-111200000D01*
X167381422Y-109780000D02*
X167898578Y-109780000D01*
X166880000Y-117800000D02*
X168340000Y-117800000D01*
X166880000Y-120960000D02*
X169040000Y-120960000D01*
X166880000Y-120960000D02*
X166880000Y-120030000D01*
X166880000Y-117800000D02*
X166880000Y-118730000D01*
X152600000Y-111244000D02*
X151285000Y-111244000D01*
X152600000Y-110944000D02*
X152600000Y-111244000D01*
X152900000Y-110944000D02*
X152600000Y-110944000D01*
X159820000Y-110944000D02*
X159820000Y-111244000D01*
X159520000Y-110944000D02*
X159820000Y-110944000D01*
X152600000Y-118164000D02*
X152600000Y-117864000D01*
X152900000Y-118164000D02*
X152600000Y-118164000D01*
X159820000Y-118164000D02*
X159820000Y-117864000D01*
X159520000Y-118164000D02*
X159820000Y-118164000D01*
X126399000Y-108514000D02*
X123714000Y-108514000D01*
X126399000Y-110434000D02*
X126399000Y-108514000D01*
X123714000Y-110434000D02*
X126399000Y-110434000D01*
X163628000Y-112263422D02*
X163628000Y-112780578D01*
X165048000Y-112263422D02*
X165048000Y-112780578D01*
X125020000Y-106421422D02*
X125020000Y-106938578D01*
X126440000Y-106421422D02*
X126440000Y-106938578D01*
X127544000Y-113046000D02*
X131444000Y-113046000D01*
X127544000Y-115046000D02*
X131444000Y-115046000D01*
X127544000Y-113046000D02*
X127544000Y-115046000D01*
X66526000Y-119370000D02*
X63726000Y-119370000D01*
X63726000Y-111770000D02*
X66526000Y-111770000D01*
X66726000Y-113570000D02*
X66726000Y-117570000D01*
X103373422Y-120956000D02*
X103890578Y-120956000D01*
X103373422Y-122376000D02*
X103890578Y-122376000D01*
X77973422Y-113336000D02*
X78490578Y-113336000D01*
X77973422Y-114756000D02*
X78490578Y-114756000D01*
X74878000Y-116835422D02*
X74878000Y-117352578D01*
X73458000Y-116835422D02*
X73458000Y-117352578D01*
X80522578Y-108914000D02*
X80005422Y-108914000D01*
X80522578Y-107494000D02*
X80005422Y-107494000D01*
X84586578Y-108914000D02*
X84069422Y-108914000D01*
X84586578Y-107494000D02*
X84069422Y-107494000D01*
X93270000Y-114050578D02*
X93270000Y-113533422D01*
X94690000Y-114050578D02*
X94690000Y-113533422D01*
X89666578Y-118820000D02*
X89149422Y-118820000D01*
X89666578Y-117400000D02*
X89149422Y-117400000D01*
X78688000Y-120899422D02*
X78688000Y-121416578D01*
X77268000Y-120899422D02*
X77268000Y-121416578D01*
X81702000Y-115768000D02*
X81702000Y-115648000D01*
X81702000Y-117918000D02*
X81702000Y-116778000D01*
X81702000Y-119048000D02*
X81702000Y-118928000D01*
X77302000Y-119048000D02*
X81702000Y-119048000D01*
X77302000Y-118928000D02*
X77302000Y-119048000D01*
X77302000Y-116778000D02*
X77302000Y-117918000D01*
X77302000Y-115648000D02*
X77302000Y-115768000D01*
X81702000Y-115648000D02*
X77302000Y-115648000D01*
X72846000Y-116835422D02*
X72846000Y-117352578D01*
X71426000Y-116835422D02*
X71426000Y-117352578D01*
X95000578Y-110438000D02*
X94483422Y-110438000D01*
X95000578Y-109018000D02*
X94483422Y-109018000D01*
X79808000Y-121416578D02*
X79808000Y-120899422D01*
X81228000Y-121416578D02*
X81228000Y-120899422D01*
X84586578Y-115264000D02*
X84069422Y-115264000D01*
X84586578Y-113844000D02*
X84069422Y-113844000D01*
X82718000Y-110352000D02*
X82718000Y-112152000D01*
X85938000Y-112152000D02*
X85938000Y-109702000D01*
X88895422Y-111304000D02*
X89412578Y-111304000D01*
X88895422Y-112724000D02*
X89412578Y-112724000D01*
X86954000Y-116642000D02*
X86954000Y-116762000D01*
X86954000Y-114492000D02*
X86954000Y-115632000D01*
X86954000Y-113362000D02*
X86954000Y-113482000D01*
X91354000Y-113362000D02*
X86954000Y-113362000D01*
X91354000Y-113482000D02*
X91354000Y-113362000D01*
X91354000Y-115632000D02*
X91354000Y-114492000D01*
X91354000Y-116762000D02*
X91354000Y-116642000D01*
X86954000Y-116762000D02*
X91354000Y-116762000D01*
X79364000Y-112608000D02*
X81164000Y-112608000D01*
X81164000Y-109388000D02*
X78714000Y-109388000D01*
X111000000Y-111704000D02*
X111000000Y-112634000D01*
X111000000Y-114864000D02*
X111000000Y-113934000D01*
X111000000Y-114864000D02*
X113160000Y-114864000D01*
X111000000Y-111704000D02*
X112460000Y-111704000D01*
X76298000Y-110604000D02*
X76578000Y-110604000D01*
X76578000Y-110604000D02*
X76578000Y-112204000D01*
X76578000Y-112204000D02*
X77498000Y-112204000D01*
X77498000Y-112204000D02*
X77498000Y-104384000D01*
X77498000Y-104384000D02*
X71378000Y-104384000D01*
X71378000Y-104384000D02*
X71378000Y-112204000D01*
X71378000Y-112204000D02*
X72298000Y-112204000D01*
X72298000Y-112204000D02*
X72298000Y-110604000D01*
X72298000Y-110604000D02*
X72578000Y-110604000D01*
X74938000Y-104384000D02*
X74938000Y-108744000D01*
X74938000Y-108744000D02*
X73938000Y-108744000D01*
X73938000Y-108744000D02*
X73938000Y-104384000D01*
X77498000Y-110604000D02*
X76578000Y-110604000D01*
X71378000Y-110604000D02*
X72298000Y-110604000D01*
X76738000Y-108244000D02*
X76738000Y-106644000D01*
X76738000Y-106644000D02*
X75738000Y-106644000D01*
X75738000Y-106644000D02*
X75738000Y-108244000D01*
X75738000Y-108244000D02*
X76738000Y-108244000D01*
X72138000Y-108244000D02*
X72138000Y-106644000D01*
X72138000Y-106644000D02*
X73138000Y-106644000D01*
X73138000Y-106644000D02*
X73138000Y-108244000D01*
X73138000Y-108244000D02*
X72138000Y-108244000D01*
X75738000Y-106644000D02*
X75738000Y-104384000D01*
X76238000Y-106644000D02*
X76238000Y-104384000D01*
X76298000Y-110604000D02*
X76298000Y-111819000D01*
X109276000Y-108206000D02*
X108346000Y-108206000D01*
X106116000Y-108206000D02*
X107046000Y-108206000D01*
X106116000Y-108206000D02*
X106116000Y-110366000D01*
X109276000Y-108206000D02*
X109276000Y-109666000D01*
X109026000Y-117542000D02*
X106366000Y-117542000D01*
X109026000Y-120142000D02*
X109026000Y-117542000D01*
X106366000Y-120142000D02*
X106366000Y-117542000D01*
X109026000Y-120142000D02*
X106366000Y-120142000D01*
X109026000Y-121412000D02*
X109026000Y-122742000D01*
X109026000Y-122742000D02*
X107696000Y-122742000D01*
X111501422Y-115876000D02*
X112018578Y-115876000D01*
X111501422Y-117296000D02*
X112018578Y-117296000D01*
X111501422Y-109780000D02*
X112018578Y-109780000D01*
X111501422Y-111200000D02*
X112018578Y-111200000D01*
X111000000Y-117800000D02*
X111000000Y-118730000D01*
X111000000Y-120960000D02*
X111000000Y-120030000D01*
X111000000Y-120960000D02*
X113160000Y-120960000D01*
X111000000Y-117800000D02*
X112460000Y-117800000D01*
X67834000Y-110434000D02*
X70519000Y-110434000D01*
X70519000Y-110434000D02*
X70519000Y-108514000D01*
X70519000Y-108514000D02*
X67834000Y-108514000D01*
X109168000Y-112263422D02*
X109168000Y-112780578D01*
X107748000Y-112263422D02*
X107748000Y-112780578D01*
X70560000Y-106421422D02*
X70560000Y-106938578D01*
X69140000Y-106421422D02*
X69140000Y-106938578D01*
X103640000Y-118164000D02*
X103940000Y-118164000D01*
X103940000Y-118164000D02*
X103940000Y-117864000D01*
X97020000Y-118164000D02*
X96720000Y-118164000D01*
X96720000Y-118164000D02*
X96720000Y-117864000D01*
X103640000Y-110944000D02*
X103940000Y-110944000D01*
X103940000Y-110944000D02*
X103940000Y-111244000D01*
X97020000Y-110944000D02*
X96720000Y-110944000D01*
X96720000Y-110944000D02*
X96720000Y-111244000D01*
X96720000Y-111244000D02*
X95405000Y-111244000D01*
X71664000Y-113046000D02*
X71664000Y-115046000D01*
X71664000Y-115046000D02*
X75564000Y-115046000D01*
X71664000Y-113046000D02*
X75564000Y-113046000D01*
D10*
X124408380Y-60023333D02*
X125122666Y-60023333D01*
X125265523Y-60070952D01*
X125360761Y-60166190D01*
X125408380Y-60309047D01*
X125408380Y-60404285D01*
X124408380Y-59642380D02*
X124408380Y-59023333D01*
X124789333Y-59356666D01*
X124789333Y-59213809D01*
X124836952Y-59118571D01*
X124884571Y-59070952D01*
X124979809Y-59023333D01*
X125217904Y-59023333D01*
X125313142Y-59070952D01*
X125360761Y-59118571D01*
X125408380Y-59213809D01*
X125408380Y-59499523D01*
X125360761Y-59594761D01*
X125313142Y-59642380D01*
X159345333Y-67921142D02*
X159297714Y-67968761D01*
X159154857Y-68016380D01*
X159059619Y-68016380D01*
X158916761Y-67968761D01*
X158821523Y-67873523D01*
X158773904Y-67778285D01*
X158726285Y-67587809D01*
X158726285Y-67444952D01*
X158773904Y-67254476D01*
X158821523Y-67159238D01*
X158916761Y-67064000D01*
X159059619Y-67016380D01*
X159154857Y-67016380D01*
X159297714Y-67064000D01*
X159345333Y-67111619D01*
X159726285Y-67111619D02*
X159773904Y-67064000D01*
X159869142Y-67016380D01*
X160107238Y-67016380D01*
X160202476Y-67064000D01*
X160250095Y-67111619D01*
X160297714Y-67206857D01*
X160297714Y-67302095D01*
X160250095Y-67444952D01*
X159678666Y-68016380D01*
X160297714Y-68016380D01*
X137026666Y-51161904D02*
X136760000Y-50780952D01*
X136569523Y-51161904D02*
X136569523Y-50361904D01*
X136874285Y-50361904D01*
X136950476Y-50400000D01*
X136988571Y-50438095D01*
X137026666Y-50514285D01*
X137026666Y-50628571D01*
X136988571Y-50704761D01*
X136950476Y-50742857D01*
X136874285Y-50780952D01*
X136569523Y-50780952D01*
X137712380Y-50628571D02*
X137712380Y-51161904D01*
X137521904Y-50323809D02*
X137331428Y-50895238D01*
X137826666Y-50895238D01*
X161623619Y-53181238D02*
X161576000Y-53276476D01*
X161480761Y-53371714D01*
X161337904Y-53514571D01*
X161290285Y-53609809D01*
X161290285Y-53705047D01*
X161528380Y-53657428D02*
X161480761Y-53752666D01*
X161385523Y-53847904D01*
X161195047Y-53895523D01*
X160861714Y-53895523D01*
X160671238Y-53847904D01*
X160576000Y-53752666D01*
X160528380Y-53657428D01*
X160528380Y-53466952D01*
X160576000Y-53371714D01*
X160671238Y-53276476D01*
X160861714Y-53228857D01*
X161195047Y-53228857D01*
X161385523Y-53276476D01*
X161480761Y-53371714D01*
X161528380Y-53466952D01*
X161528380Y-53657428D01*
X160528380Y-52895523D02*
X160528380Y-52276476D01*
X160909333Y-52609809D01*
X160909333Y-52466952D01*
X160956952Y-52371714D01*
X161004571Y-52324095D01*
X161099809Y-52276476D01*
X161337904Y-52276476D01*
X161433142Y-52324095D01*
X161480761Y-52371714D01*
X161528380Y-52466952D01*
X161528380Y-52752666D01*
X161480761Y-52847904D01*
X161433142Y-52895523D01*
X136398095Y-57110380D02*
X136398095Y-57919904D01*
X136445714Y-58015142D01*
X136493333Y-58062761D01*
X136588571Y-58110380D01*
X136779047Y-58110380D01*
X136874285Y-58062761D01*
X136921904Y-58015142D01*
X136969523Y-57919904D01*
X136969523Y-57110380D01*
X137350476Y-57110380D02*
X137969523Y-57110380D01*
X137636190Y-57491333D01*
X137779047Y-57491333D01*
X137874285Y-57538952D01*
X137921904Y-57586571D01*
X137969523Y-57681809D01*
X137969523Y-57919904D01*
X137921904Y-58015142D01*
X137874285Y-58062761D01*
X137779047Y-58110380D01*
X137493333Y-58110380D01*
X137398095Y-58062761D01*
X137350476Y-58015142D01*
X145121333Y-64237142D02*
X145073714Y-64284761D01*
X144930857Y-64332380D01*
X144835619Y-64332380D01*
X144692761Y-64284761D01*
X144597523Y-64189523D01*
X144549904Y-64094285D01*
X144502285Y-63903809D01*
X144502285Y-63760952D01*
X144549904Y-63570476D01*
X144597523Y-63475238D01*
X144692761Y-63380000D01*
X144835619Y-63332380D01*
X144930857Y-63332380D01*
X145073714Y-63380000D01*
X145121333Y-63427619D01*
X145978476Y-63332380D02*
X145788000Y-63332380D01*
X145692761Y-63380000D01*
X145645142Y-63427619D01*
X145549904Y-63570476D01*
X145502285Y-63760952D01*
X145502285Y-64141904D01*
X145549904Y-64237142D01*
X145597523Y-64284761D01*
X145692761Y-64332380D01*
X145883238Y-64332380D01*
X145978476Y-64284761D01*
X146026095Y-64237142D01*
X146073714Y-64141904D01*
X146073714Y-63903809D01*
X146026095Y-63808571D01*
X145978476Y-63760952D01*
X145883238Y-63713333D01*
X145692761Y-63713333D01*
X145597523Y-63760952D01*
X145549904Y-63808571D01*
X145502285Y-63903809D01*
X150455333Y-55855142D02*
X150407714Y-55902761D01*
X150264857Y-55950380D01*
X150169619Y-55950380D01*
X150026761Y-55902761D01*
X149931523Y-55807523D01*
X149883904Y-55712285D01*
X149836285Y-55521809D01*
X149836285Y-55378952D01*
X149883904Y-55188476D01*
X149931523Y-55093238D01*
X150026761Y-54998000D01*
X150169619Y-54950380D01*
X150264857Y-54950380D01*
X150407714Y-54998000D01*
X150455333Y-55045619D01*
X151407714Y-55950380D02*
X150836285Y-55950380D01*
X151122000Y-55950380D02*
X151122000Y-54950380D01*
X151026761Y-55093238D01*
X150931523Y-55188476D01*
X150836285Y-55236095D01*
X128444666Y-52792380D02*
X128444666Y-53506666D01*
X128397047Y-53649523D01*
X128301809Y-53744761D01*
X128158952Y-53792380D01*
X128063714Y-53792380D01*
X129397047Y-52792380D02*
X128920857Y-52792380D01*
X128873238Y-53268571D01*
X128920857Y-53220952D01*
X129016095Y-53173333D01*
X129254190Y-53173333D01*
X129349428Y-53220952D01*
X129397047Y-53268571D01*
X129444666Y-53363809D01*
X129444666Y-53601904D01*
X129397047Y-53697142D01*
X129349428Y-53744761D01*
X129254190Y-53792380D01*
X129016095Y-53792380D01*
X128920857Y-53744761D01*
X128873238Y-53697142D01*
X138374380Y-65444666D02*
X137898190Y-65778000D01*
X138374380Y-66016095D02*
X137374380Y-66016095D01*
X137374380Y-65635142D01*
X137422000Y-65539904D01*
X137469619Y-65492285D01*
X137564857Y-65444666D01*
X137707714Y-65444666D01*
X137802952Y-65492285D01*
X137850571Y-65539904D01*
X137898190Y-65635142D01*
X137898190Y-66016095D01*
X137374380Y-65111333D02*
X137374380Y-64492285D01*
X137755333Y-64825619D01*
X137755333Y-64682761D01*
X137802952Y-64587523D01*
X137850571Y-64539904D01*
X137945809Y-64492285D01*
X138183904Y-64492285D01*
X138279142Y-64539904D01*
X138326761Y-64587523D01*
X138374380Y-64682761D01*
X138374380Y-64968476D01*
X138326761Y-65063714D01*
X138279142Y-65111333D01*
X140041333Y-60681142D02*
X139993714Y-60728761D01*
X139850857Y-60776380D01*
X139755619Y-60776380D01*
X139612761Y-60728761D01*
X139517523Y-60633523D01*
X139469904Y-60538285D01*
X139422285Y-60347809D01*
X139422285Y-60204952D01*
X139469904Y-60014476D01*
X139517523Y-59919238D01*
X139612761Y-59824000D01*
X139755619Y-59776380D01*
X139850857Y-59776380D01*
X139993714Y-59824000D01*
X140041333Y-59871619D01*
X140946095Y-59776380D02*
X140469904Y-59776380D01*
X140422285Y-60252571D01*
X140469904Y-60204952D01*
X140565142Y-60157333D01*
X140803238Y-60157333D01*
X140898476Y-60204952D01*
X140946095Y-60252571D01*
X140993714Y-60347809D01*
X140993714Y-60585904D01*
X140946095Y-60681142D01*
X140898476Y-60728761D01*
X140803238Y-60776380D01*
X140565142Y-60776380D01*
X140469904Y-60728761D01*
X140422285Y-60681142D01*
X136739333Y-59285142D02*
X136691714Y-59332761D01*
X136548857Y-59380380D01*
X136453619Y-59380380D01*
X136310761Y-59332761D01*
X136215523Y-59237523D01*
X136167904Y-59142285D01*
X136120285Y-58951809D01*
X136120285Y-58808952D01*
X136167904Y-58618476D01*
X136215523Y-58523238D01*
X136310761Y-58428000D01*
X136453619Y-58380380D01*
X136548857Y-58380380D01*
X136691714Y-58428000D01*
X136739333Y-58475619D01*
X137215523Y-59380380D02*
X137406000Y-59380380D01*
X137501238Y-59332761D01*
X137548857Y-59285142D01*
X137644095Y-59142285D01*
X137691714Y-58951809D01*
X137691714Y-58570857D01*
X137644095Y-58475619D01*
X137596476Y-58428000D01*
X137501238Y-58380380D01*
X137310761Y-58380380D01*
X137215523Y-58428000D01*
X137167904Y-58475619D01*
X137120285Y-58570857D01*
X137120285Y-58808952D01*
X137167904Y-58904190D01*
X137215523Y-58951809D01*
X137310761Y-58999428D01*
X137501238Y-58999428D01*
X137596476Y-58951809D01*
X137644095Y-58904190D01*
X137691714Y-58808952D01*
X148567142Y-58078666D02*
X148614761Y-58126285D01*
X148662380Y-58269142D01*
X148662380Y-58364380D01*
X148614761Y-58507238D01*
X148519523Y-58602476D01*
X148424285Y-58650095D01*
X148233809Y-58697714D01*
X148090952Y-58697714D01*
X147900476Y-58650095D01*
X147805238Y-58602476D01*
X147710000Y-58507238D01*
X147662380Y-58364380D01*
X147662380Y-58269142D01*
X147710000Y-58126285D01*
X147757619Y-58078666D01*
X147662380Y-57745333D02*
X147662380Y-57126285D01*
X148043333Y-57459619D01*
X148043333Y-57316761D01*
X148090952Y-57221523D01*
X148138571Y-57173904D01*
X148233809Y-57126285D01*
X148471904Y-57126285D01*
X148567142Y-57173904D01*
X148614761Y-57221523D01*
X148662380Y-57316761D01*
X148662380Y-57602476D01*
X148614761Y-57697714D01*
X148567142Y-57745333D01*
X165004761Y-59729619D02*
X164909523Y-59682000D01*
X164814285Y-59586761D01*
X164671428Y-59443904D01*
X164576190Y-59396285D01*
X164480952Y-59396285D01*
X164528571Y-59634380D02*
X164433333Y-59586761D01*
X164338095Y-59491523D01*
X164290476Y-59301047D01*
X164290476Y-58967714D01*
X164338095Y-58777238D01*
X164433333Y-58682000D01*
X164528571Y-58634380D01*
X164719047Y-58634380D01*
X164814285Y-58682000D01*
X164909523Y-58777238D01*
X164957142Y-58967714D01*
X164957142Y-59301047D01*
X164909523Y-59491523D01*
X164814285Y-59586761D01*
X164719047Y-59634380D01*
X164528571Y-59634380D01*
X165338095Y-58729619D02*
X165385714Y-58682000D01*
X165480952Y-58634380D01*
X165719047Y-58634380D01*
X165814285Y-58682000D01*
X165861904Y-58729619D01*
X165909523Y-58824857D01*
X165909523Y-58920095D01*
X165861904Y-59062952D01*
X165290476Y-59634380D01*
X165909523Y-59634380D01*
X142200380Y-54863904D02*
X143009904Y-54863904D01*
X143105142Y-54816285D01*
X143152761Y-54768666D01*
X143200380Y-54673428D01*
X143200380Y-54482952D01*
X143152761Y-54387714D01*
X143105142Y-54340095D01*
X143009904Y-54292476D01*
X142200380Y-54292476D01*
X143200380Y-53292476D02*
X143200380Y-53863904D01*
X143200380Y-53578190D02*
X142200380Y-53578190D01*
X142343238Y-53673428D01*
X142438476Y-53768666D01*
X142486095Y-53863904D01*
X128373142Y-64174666D02*
X128420761Y-64222285D01*
X128468380Y-64365142D01*
X128468380Y-64460380D01*
X128420761Y-64603238D01*
X128325523Y-64698476D01*
X128230285Y-64746095D01*
X128039809Y-64793714D01*
X127896952Y-64793714D01*
X127706476Y-64746095D01*
X127611238Y-64698476D01*
X127516000Y-64603238D01*
X127468380Y-64460380D01*
X127468380Y-64365142D01*
X127516000Y-64222285D01*
X127563619Y-64174666D01*
X127896952Y-63603238D02*
X127849333Y-63698476D01*
X127801714Y-63746095D01*
X127706476Y-63793714D01*
X127658857Y-63793714D01*
X127563619Y-63746095D01*
X127516000Y-63698476D01*
X127468380Y-63603238D01*
X127468380Y-63412761D01*
X127516000Y-63317523D01*
X127563619Y-63269904D01*
X127658857Y-63222285D01*
X127706476Y-63222285D01*
X127801714Y-63269904D01*
X127849333Y-63317523D01*
X127896952Y-63412761D01*
X127896952Y-63603238D01*
X127944571Y-63698476D01*
X127992190Y-63746095D01*
X128087428Y-63793714D01*
X128277904Y-63793714D01*
X128373142Y-63746095D01*
X128420761Y-63698476D01*
X128468380Y-63603238D01*
X128468380Y-63412761D01*
X128420761Y-63317523D01*
X128373142Y-63269904D01*
X128277904Y-63222285D01*
X128087428Y-63222285D01*
X127992190Y-63269904D01*
X127944571Y-63317523D01*
X127896952Y-63412761D01*
X132691142Y-65444666D02*
X132738761Y-65492285D01*
X132786380Y-65635142D01*
X132786380Y-65730380D01*
X132738761Y-65873238D01*
X132643523Y-65968476D01*
X132548285Y-66016095D01*
X132357809Y-66063714D01*
X132214952Y-66063714D01*
X132024476Y-66016095D01*
X131929238Y-65968476D01*
X131834000Y-65873238D01*
X131786380Y-65730380D01*
X131786380Y-65635142D01*
X131834000Y-65492285D01*
X131881619Y-65444666D01*
X131786380Y-65111333D02*
X131786380Y-64444666D01*
X132786380Y-64873238D01*
X143700666Y-59586761D02*
X143843523Y-59634380D01*
X144081619Y-59634380D01*
X144176857Y-59586761D01*
X144224476Y-59539142D01*
X144272095Y-59443904D01*
X144272095Y-59348666D01*
X144224476Y-59253428D01*
X144176857Y-59205809D01*
X144081619Y-59158190D01*
X143891142Y-59110571D01*
X143795904Y-59062952D01*
X143748285Y-59015333D01*
X143700666Y-58920095D01*
X143700666Y-58824857D01*
X143748285Y-58729619D01*
X143795904Y-58682000D01*
X143891142Y-58634380D01*
X144129238Y-58634380D01*
X144272095Y-58682000D01*
X144605428Y-58634380D02*
X144843523Y-59634380D01*
X145034000Y-58920095D01*
X145224476Y-59634380D01*
X145462571Y-58634380D01*
X146367333Y-59634380D02*
X145795904Y-59634380D01*
X146081619Y-59634380D02*
X146081619Y-58634380D01*
X145986380Y-58777238D01*
X145891142Y-58872476D01*
X145795904Y-58920095D01*
X144867333Y-54936380D02*
X144534000Y-54460190D01*
X144295904Y-54936380D02*
X144295904Y-53936380D01*
X144676857Y-53936380D01*
X144772095Y-53984000D01*
X144819714Y-54031619D01*
X144867333Y-54126857D01*
X144867333Y-54269714D01*
X144819714Y-54364952D01*
X144772095Y-54412571D01*
X144676857Y-54460190D01*
X144295904Y-54460190D01*
X145248285Y-54031619D02*
X145295904Y-53984000D01*
X145391142Y-53936380D01*
X145629238Y-53936380D01*
X145724476Y-53984000D01*
X145772095Y-54031619D01*
X145819714Y-54126857D01*
X145819714Y-54222095D01*
X145772095Y-54364952D01*
X145200666Y-54936380D01*
X145819714Y-54936380D01*
X134048666Y-61872761D02*
X134191523Y-61920380D01*
X134429619Y-61920380D01*
X134524857Y-61872761D01*
X134572476Y-61825142D01*
X134620095Y-61729904D01*
X134620095Y-61634666D01*
X134572476Y-61539428D01*
X134524857Y-61491809D01*
X134429619Y-61444190D01*
X134239142Y-61396571D01*
X134143904Y-61348952D01*
X134096285Y-61301333D01*
X134048666Y-61206095D01*
X134048666Y-61110857D01*
X134096285Y-61015619D01*
X134143904Y-60968000D01*
X134239142Y-60920380D01*
X134477238Y-60920380D01*
X134620095Y-60968000D01*
X134953428Y-60920380D02*
X135191523Y-61920380D01*
X135382000Y-61206095D01*
X135572476Y-61920380D01*
X135810571Y-60920380D01*
X136143904Y-61015619D02*
X136191523Y-60968000D01*
X136286761Y-60920380D01*
X136524857Y-60920380D01*
X136620095Y-60968000D01*
X136667714Y-61015619D01*
X136715333Y-61110857D01*
X136715333Y-61206095D01*
X136667714Y-61348952D01*
X136096285Y-61920380D01*
X136715333Y-61920380D01*
X132055142Y-61380666D02*
X132102761Y-61428285D01*
X132150380Y-61571142D01*
X132150380Y-61666380D01*
X132102761Y-61809238D01*
X132007523Y-61904476D01*
X131912285Y-61952095D01*
X131721809Y-61999714D01*
X131578952Y-61999714D01*
X131388476Y-61952095D01*
X131293238Y-61904476D01*
X131198000Y-61809238D01*
X131150380Y-61666380D01*
X131150380Y-61571142D01*
X131198000Y-61428285D01*
X131245619Y-61380666D01*
X131483714Y-60523523D02*
X132150380Y-60523523D01*
X131102761Y-60761619D02*
X131817047Y-60999714D01*
X131817047Y-60380666D01*
X142581333Y-52776380D02*
X142248000Y-52300190D01*
X142009904Y-52776380D02*
X142009904Y-51776380D01*
X142390857Y-51776380D01*
X142486095Y-51824000D01*
X142533714Y-51871619D01*
X142581333Y-51966857D01*
X142581333Y-52109714D01*
X142533714Y-52204952D01*
X142486095Y-52252571D01*
X142390857Y-52300190D01*
X142009904Y-52300190D01*
X143533714Y-52776380D02*
X142962285Y-52776380D01*
X143248000Y-52776380D02*
X143248000Y-51776380D01*
X143152761Y-51919238D01*
X143057523Y-52014476D01*
X142962285Y-52062095D01*
X163242666Y-67314380D02*
X163242666Y-68028666D01*
X163195047Y-68171523D01*
X163099809Y-68266761D01*
X162956952Y-68314380D01*
X162861714Y-68314380D01*
X164147428Y-67647714D02*
X164147428Y-68314380D01*
X163909333Y-67266761D02*
X163671238Y-67981047D01*
X164290285Y-67981047D01*
X164679333Y-61158380D02*
X164346000Y-60682190D01*
X164107904Y-61158380D02*
X164107904Y-60158380D01*
X164488857Y-60158380D01*
X164584095Y-60206000D01*
X164631714Y-60253619D01*
X164679333Y-60348857D01*
X164679333Y-60491714D01*
X164631714Y-60586952D01*
X164584095Y-60634571D01*
X164488857Y-60682190D01*
X164107904Y-60682190D01*
X165584095Y-60158380D02*
X165107904Y-60158380D01*
X165060285Y-60634571D01*
X165107904Y-60586952D01*
X165203142Y-60539333D01*
X165441238Y-60539333D01*
X165536476Y-60586952D01*
X165584095Y-60634571D01*
X165631714Y-60729809D01*
X165631714Y-60967904D01*
X165584095Y-61063142D01*
X165536476Y-61110761D01*
X165441238Y-61158380D01*
X165203142Y-61158380D01*
X165107904Y-61110761D01*
X165060285Y-61063142D01*
X167473333Y-53412380D02*
X167140000Y-52936190D01*
X166901904Y-53412380D02*
X166901904Y-52412380D01*
X167282857Y-52412380D01*
X167378095Y-52460000D01*
X167425714Y-52507619D01*
X167473333Y-52602857D01*
X167473333Y-52745714D01*
X167425714Y-52840952D01*
X167378095Y-52888571D01*
X167282857Y-52936190D01*
X166901904Y-52936190D01*
X168330476Y-52412380D02*
X168140000Y-52412380D01*
X168044761Y-52460000D01*
X167997142Y-52507619D01*
X167901904Y-52650476D01*
X167854285Y-52840952D01*
X167854285Y-53221904D01*
X167901904Y-53317142D01*
X167949523Y-53364761D01*
X168044761Y-53412380D01*
X168235238Y-53412380D01*
X168330476Y-53364761D01*
X168378095Y-53317142D01*
X168425714Y-53221904D01*
X168425714Y-52983809D01*
X168378095Y-52888571D01*
X168330476Y-52840952D01*
X168235238Y-52793333D01*
X168044761Y-52793333D01*
X167949523Y-52840952D01*
X167901904Y-52888571D01*
X167854285Y-52983809D01*
X167544761Y-66547619D02*
X167449523Y-66500000D01*
X167354285Y-66404761D01*
X167211428Y-66261904D01*
X167116190Y-66214285D01*
X167020952Y-66214285D01*
X167068571Y-66452380D02*
X166973333Y-66404761D01*
X166878095Y-66309523D01*
X166830476Y-66119047D01*
X166830476Y-65785714D01*
X166878095Y-65595238D01*
X166973333Y-65500000D01*
X167068571Y-65452380D01*
X167259047Y-65452380D01*
X167354285Y-65500000D01*
X167449523Y-65595238D01*
X167497142Y-65785714D01*
X167497142Y-66119047D01*
X167449523Y-66309523D01*
X167354285Y-66404761D01*
X167259047Y-66452380D01*
X167068571Y-66452380D01*
X168449523Y-66452380D02*
X167878095Y-66452380D01*
X168163809Y-66452380D02*
X168163809Y-65452380D01*
X168068571Y-65595238D01*
X167973333Y-65690476D01*
X167878095Y-65738095D01*
X155448095Y-52246380D02*
X155448095Y-53055904D01*
X155495714Y-53151142D01*
X155543333Y-53198761D01*
X155638571Y-53246380D01*
X155829047Y-53246380D01*
X155924285Y-53198761D01*
X155971904Y-53151142D01*
X156019523Y-53055904D01*
X156019523Y-52246380D01*
X156448095Y-52341619D02*
X156495714Y-52294000D01*
X156590952Y-52246380D01*
X156829047Y-52246380D01*
X156924285Y-52294000D01*
X156971904Y-52341619D01*
X157019523Y-52436857D01*
X157019523Y-52532095D01*
X156971904Y-52674952D01*
X156400476Y-53246380D01*
X157019523Y-53246380D01*
X121181904Y-54808380D02*
X121181904Y-53808380D01*
X121420000Y-53808380D01*
X121562857Y-53856000D01*
X121658095Y-53951238D01*
X121705714Y-54046476D01*
X121753333Y-54236952D01*
X121753333Y-54379809D01*
X121705714Y-54570285D01*
X121658095Y-54665523D01*
X121562857Y-54760761D01*
X121420000Y-54808380D01*
X121181904Y-54808380D01*
X122134285Y-53903619D02*
X122181904Y-53856000D01*
X122277142Y-53808380D01*
X122515238Y-53808380D01*
X122610476Y-53856000D01*
X122658095Y-53903619D01*
X122705714Y-53998857D01*
X122705714Y-54094095D01*
X122658095Y-54236952D01*
X122086666Y-54808380D01*
X122705714Y-54808380D01*
X163266380Y-56808666D02*
X162790190Y-57142000D01*
X163266380Y-57380095D02*
X162266380Y-57380095D01*
X162266380Y-56999142D01*
X162314000Y-56903904D01*
X162361619Y-56856285D01*
X162456857Y-56808666D01*
X162599714Y-56808666D01*
X162694952Y-56856285D01*
X162742571Y-56903904D01*
X162790190Y-56999142D01*
X162790190Y-57380095D01*
X162266380Y-56475333D02*
X162266380Y-55808666D01*
X163266380Y-56237238D01*
X124912380Y-50966666D02*
X124436190Y-51300000D01*
X124912380Y-51538095D02*
X123912380Y-51538095D01*
X123912380Y-51157142D01*
X123960000Y-51061904D01*
X124007619Y-51014285D01*
X124102857Y-50966666D01*
X124245714Y-50966666D01*
X124340952Y-51014285D01*
X124388571Y-51061904D01*
X124436190Y-51157142D01*
X124436190Y-51538095D01*
X124340952Y-50395238D02*
X124293333Y-50490476D01*
X124245714Y-50538095D01*
X124150476Y-50585714D01*
X124102857Y-50585714D01*
X124007619Y-50538095D01*
X123960000Y-50490476D01*
X123912380Y-50395238D01*
X123912380Y-50204761D01*
X123960000Y-50109523D01*
X124007619Y-50061904D01*
X124102857Y-50014285D01*
X124150476Y-50014285D01*
X124245714Y-50061904D01*
X124293333Y-50109523D01*
X124340952Y-50204761D01*
X124340952Y-50395238D01*
X124388571Y-50490476D01*
X124436190Y-50538095D01*
X124531428Y-50585714D01*
X124721904Y-50585714D01*
X124817142Y-50538095D01*
X124864761Y-50490476D01*
X124912380Y-50395238D01*
X124912380Y-50204761D01*
X124864761Y-50109523D01*
X124817142Y-50061904D01*
X124721904Y-50014285D01*
X124531428Y-50014285D01*
X124436190Y-50061904D01*
X124388571Y-50109523D01*
X124340952Y-50204761D01*
X129309904Y-57094380D02*
X129309904Y-56094380D01*
X129548000Y-56094380D01*
X129690857Y-56142000D01*
X129786095Y-56237238D01*
X129833714Y-56332476D01*
X129881333Y-56522952D01*
X129881333Y-56665809D01*
X129833714Y-56856285D01*
X129786095Y-56951523D01*
X129690857Y-57046761D01*
X129548000Y-57094380D01*
X129309904Y-57094380D01*
X130833714Y-57094380D02*
X130262285Y-57094380D01*
X130548000Y-57094380D02*
X130548000Y-56094380D01*
X130452761Y-56237238D01*
X130357523Y-56332476D01*
X130262285Y-56380095D01*
X68528380Y-60023333D02*
X69242666Y-60023333D01*
X69385523Y-60070952D01*
X69480761Y-60166190D01*
X69528380Y-60309047D01*
X69528380Y-60404285D01*
X68528380Y-59642380D02*
X68528380Y-59023333D01*
X68909333Y-59356666D01*
X68909333Y-59213809D01*
X68956952Y-59118571D01*
X69004571Y-59070952D01*
X69099809Y-59023333D01*
X69337904Y-59023333D01*
X69433142Y-59070952D01*
X69480761Y-59118571D01*
X69528380Y-59213809D01*
X69528380Y-59499523D01*
X69480761Y-59594761D01*
X69433142Y-59642380D01*
X103465333Y-67921142D02*
X103417714Y-67968761D01*
X103274857Y-68016380D01*
X103179619Y-68016380D01*
X103036761Y-67968761D01*
X102941523Y-67873523D01*
X102893904Y-67778285D01*
X102846285Y-67587809D01*
X102846285Y-67444952D01*
X102893904Y-67254476D01*
X102941523Y-67159238D01*
X103036761Y-67064000D01*
X103179619Y-67016380D01*
X103274857Y-67016380D01*
X103417714Y-67064000D01*
X103465333Y-67111619D01*
X103846285Y-67111619D02*
X103893904Y-67064000D01*
X103989142Y-67016380D01*
X104227238Y-67016380D01*
X104322476Y-67064000D01*
X104370095Y-67111619D01*
X104417714Y-67206857D01*
X104417714Y-67302095D01*
X104370095Y-67444952D01*
X103798666Y-68016380D01*
X104417714Y-68016380D01*
X81146666Y-51161904D02*
X80880000Y-50780952D01*
X80689523Y-51161904D02*
X80689523Y-50361904D01*
X80994285Y-50361904D01*
X81070476Y-50400000D01*
X81108571Y-50438095D01*
X81146666Y-50514285D01*
X81146666Y-50628571D01*
X81108571Y-50704761D01*
X81070476Y-50742857D01*
X80994285Y-50780952D01*
X80689523Y-50780952D01*
X81832380Y-50628571D02*
X81832380Y-51161904D01*
X81641904Y-50323809D02*
X81451428Y-50895238D01*
X81946666Y-50895238D01*
X105743619Y-53181238D02*
X105696000Y-53276476D01*
X105600761Y-53371714D01*
X105457904Y-53514571D01*
X105410285Y-53609809D01*
X105410285Y-53705047D01*
X105648380Y-53657428D02*
X105600761Y-53752666D01*
X105505523Y-53847904D01*
X105315047Y-53895523D01*
X104981714Y-53895523D01*
X104791238Y-53847904D01*
X104696000Y-53752666D01*
X104648380Y-53657428D01*
X104648380Y-53466952D01*
X104696000Y-53371714D01*
X104791238Y-53276476D01*
X104981714Y-53228857D01*
X105315047Y-53228857D01*
X105505523Y-53276476D01*
X105600761Y-53371714D01*
X105648380Y-53466952D01*
X105648380Y-53657428D01*
X104648380Y-52895523D02*
X104648380Y-52276476D01*
X105029333Y-52609809D01*
X105029333Y-52466952D01*
X105076952Y-52371714D01*
X105124571Y-52324095D01*
X105219809Y-52276476D01*
X105457904Y-52276476D01*
X105553142Y-52324095D01*
X105600761Y-52371714D01*
X105648380Y-52466952D01*
X105648380Y-52752666D01*
X105600761Y-52847904D01*
X105553142Y-52895523D01*
X80518095Y-57110380D02*
X80518095Y-57919904D01*
X80565714Y-58015142D01*
X80613333Y-58062761D01*
X80708571Y-58110380D01*
X80899047Y-58110380D01*
X80994285Y-58062761D01*
X81041904Y-58015142D01*
X81089523Y-57919904D01*
X81089523Y-57110380D01*
X81470476Y-57110380D02*
X82089523Y-57110380D01*
X81756190Y-57491333D01*
X81899047Y-57491333D01*
X81994285Y-57538952D01*
X82041904Y-57586571D01*
X82089523Y-57681809D01*
X82089523Y-57919904D01*
X82041904Y-58015142D01*
X81994285Y-58062761D01*
X81899047Y-58110380D01*
X81613333Y-58110380D01*
X81518095Y-58062761D01*
X81470476Y-58015142D01*
X89241333Y-64237142D02*
X89193714Y-64284761D01*
X89050857Y-64332380D01*
X88955619Y-64332380D01*
X88812761Y-64284761D01*
X88717523Y-64189523D01*
X88669904Y-64094285D01*
X88622285Y-63903809D01*
X88622285Y-63760952D01*
X88669904Y-63570476D01*
X88717523Y-63475238D01*
X88812761Y-63380000D01*
X88955619Y-63332380D01*
X89050857Y-63332380D01*
X89193714Y-63380000D01*
X89241333Y-63427619D01*
X90098476Y-63332380D02*
X89908000Y-63332380D01*
X89812761Y-63380000D01*
X89765142Y-63427619D01*
X89669904Y-63570476D01*
X89622285Y-63760952D01*
X89622285Y-64141904D01*
X89669904Y-64237142D01*
X89717523Y-64284761D01*
X89812761Y-64332380D01*
X90003238Y-64332380D01*
X90098476Y-64284761D01*
X90146095Y-64237142D01*
X90193714Y-64141904D01*
X90193714Y-63903809D01*
X90146095Y-63808571D01*
X90098476Y-63760952D01*
X90003238Y-63713333D01*
X89812761Y-63713333D01*
X89717523Y-63760952D01*
X89669904Y-63808571D01*
X89622285Y-63903809D01*
X94575333Y-55855142D02*
X94527714Y-55902761D01*
X94384857Y-55950380D01*
X94289619Y-55950380D01*
X94146761Y-55902761D01*
X94051523Y-55807523D01*
X94003904Y-55712285D01*
X93956285Y-55521809D01*
X93956285Y-55378952D01*
X94003904Y-55188476D01*
X94051523Y-55093238D01*
X94146761Y-54998000D01*
X94289619Y-54950380D01*
X94384857Y-54950380D01*
X94527714Y-54998000D01*
X94575333Y-55045619D01*
X95527714Y-55950380D02*
X94956285Y-55950380D01*
X95242000Y-55950380D02*
X95242000Y-54950380D01*
X95146761Y-55093238D01*
X95051523Y-55188476D01*
X94956285Y-55236095D01*
X72564666Y-52792380D02*
X72564666Y-53506666D01*
X72517047Y-53649523D01*
X72421809Y-53744761D01*
X72278952Y-53792380D01*
X72183714Y-53792380D01*
X73517047Y-52792380D02*
X73040857Y-52792380D01*
X72993238Y-53268571D01*
X73040857Y-53220952D01*
X73136095Y-53173333D01*
X73374190Y-53173333D01*
X73469428Y-53220952D01*
X73517047Y-53268571D01*
X73564666Y-53363809D01*
X73564666Y-53601904D01*
X73517047Y-53697142D01*
X73469428Y-53744761D01*
X73374190Y-53792380D01*
X73136095Y-53792380D01*
X73040857Y-53744761D01*
X72993238Y-53697142D01*
X82494380Y-65444666D02*
X82018190Y-65778000D01*
X82494380Y-66016095D02*
X81494380Y-66016095D01*
X81494380Y-65635142D01*
X81542000Y-65539904D01*
X81589619Y-65492285D01*
X81684857Y-65444666D01*
X81827714Y-65444666D01*
X81922952Y-65492285D01*
X81970571Y-65539904D01*
X82018190Y-65635142D01*
X82018190Y-66016095D01*
X81494380Y-65111333D02*
X81494380Y-64492285D01*
X81875333Y-64825619D01*
X81875333Y-64682761D01*
X81922952Y-64587523D01*
X81970571Y-64539904D01*
X82065809Y-64492285D01*
X82303904Y-64492285D01*
X82399142Y-64539904D01*
X82446761Y-64587523D01*
X82494380Y-64682761D01*
X82494380Y-64968476D01*
X82446761Y-65063714D01*
X82399142Y-65111333D01*
X84161333Y-60681142D02*
X84113714Y-60728761D01*
X83970857Y-60776380D01*
X83875619Y-60776380D01*
X83732761Y-60728761D01*
X83637523Y-60633523D01*
X83589904Y-60538285D01*
X83542285Y-60347809D01*
X83542285Y-60204952D01*
X83589904Y-60014476D01*
X83637523Y-59919238D01*
X83732761Y-59824000D01*
X83875619Y-59776380D01*
X83970857Y-59776380D01*
X84113714Y-59824000D01*
X84161333Y-59871619D01*
X85066095Y-59776380D02*
X84589904Y-59776380D01*
X84542285Y-60252571D01*
X84589904Y-60204952D01*
X84685142Y-60157333D01*
X84923238Y-60157333D01*
X85018476Y-60204952D01*
X85066095Y-60252571D01*
X85113714Y-60347809D01*
X85113714Y-60585904D01*
X85066095Y-60681142D01*
X85018476Y-60728761D01*
X84923238Y-60776380D01*
X84685142Y-60776380D01*
X84589904Y-60728761D01*
X84542285Y-60681142D01*
X80859333Y-59285142D02*
X80811714Y-59332761D01*
X80668857Y-59380380D01*
X80573619Y-59380380D01*
X80430761Y-59332761D01*
X80335523Y-59237523D01*
X80287904Y-59142285D01*
X80240285Y-58951809D01*
X80240285Y-58808952D01*
X80287904Y-58618476D01*
X80335523Y-58523238D01*
X80430761Y-58428000D01*
X80573619Y-58380380D01*
X80668857Y-58380380D01*
X80811714Y-58428000D01*
X80859333Y-58475619D01*
X81335523Y-59380380D02*
X81526000Y-59380380D01*
X81621238Y-59332761D01*
X81668857Y-59285142D01*
X81764095Y-59142285D01*
X81811714Y-58951809D01*
X81811714Y-58570857D01*
X81764095Y-58475619D01*
X81716476Y-58428000D01*
X81621238Y-58380380D01*
X81430761Y-58380380D01*
X81335523Y-58428000D01*
X81287904Y-58475619D01*
X81240285Y-58570857D01*
X81240285Y-58808952D01*
X81287904Y-58904190D01*
X81335523Y-58951809D01*
X81430761Y-58999428D01*
X81621238Y-58999428D01*
X81716476Y-58951809D01*
X81764095Y-58904190D01*
X81811714Y-58808952D01*
X92687142Y-58078666D02*
X92734761Y-58126285D01*
X92782380Y-58269142D01*
X92782380Y-58364380D01*
X92734761Y-58507238D01*
X92639523Y-58602476D01*
X92544285Y-58650095D01*
X92353809Y-58697714D01*
X92210952Y-58697714D01*
X92020476Y-58650095D01*
X91925238Y-58602476D01*
X91830000Y-58507238D01*
X91782380Y-58364380D01*
X91782380Y-58269142D01*
X91830000Y-58126285D01*
X91877619Y-58078666D01*
X91782380Y-57745333D02*
X91782380Y-57126285D01*
X92163333Y-57459619D01*
X92163333Y-57316761D01*
X92210952Y-57221523D01*
X92258571Y-57173904D01*
X92353809Y-57126285D01*
X92591904Y-57126285D01*
X92687142Y-57173904D01*
X92734761Y-57221523D01*
X92782380Y-57316761D01*
X92782380Y-57602476D01*
X92734761Y-57697714D01*
X92687142Y-57745333D01*
X109124761Y-59729619D02*
X109029523Y-59682000D01*
X108934285Y-59586761D01*
X108791428Y-59443904D01*
X108696190Y-59396285D01*
X108600952Y-59396285D01*
X108648571Y-59634380D02*
X108553333Y-59586761D01*
X108458095Y-59491523D01*
X108410476Y-59301047D01*
X108410476Y-58967714D01*
X108458095Y-58777238D01*
X108553333Y-58682000D01*
X108648571Y-58634380D01*
X108839047Y-58634380D01*
X108934285Y-58682000D01*
X109029523Y-58777238D01*
X109077142Y-58967714D01*
X109077142Y-59301047D01*
X109029523Y-59491523D01*
X108934285Y-59586761D01*
X108839047Y-59634380D01*
X108648571Y-59634380D01*
X109458095Y-58729619D02*
X109505714Y-58682000D01*
X109600952Y-58634380D01*
X109839047Y-58634380D01*
X109934285Y-58682000D01*
X109981904Y-58729619D01*
X110029523Y-58824857D01*
X110029523Y-58920095D01*
X109981904Y-59062952D01*
X109410476Y-59634380D01*
X110029523Y-59634380D01*
X86320380Y-54863904D02*
X87129904Y-54863904D01*
X87225142Y-54816285D01*
X87272761Y-54768666D01*
X87320380Y-54673428D01*
X87320380Y-54482952D01*
X87272761Y-54387714D01*
X87225142Y-54340095D01*
X87129904Y-54292476D01*
X86320380Y-54292476D01*
X87320380Y-53292476D02*
X87320380Y-53863904D01*
X87320380Y-53578190D02*
X86320380Y-53578190D01*
X86463238Y-53673428D01*
X86558476Y-53768666D01*
X86606095Y-53863904D01*
X72493142Y-64174666D02*
X72540761Y-64222285D01*
X72588380Y-64365142D01*
X72588380Y-64460380D01*
X72540761Y-64603238D01*
X72445523Y-64698476D01*
X72350285Y-64746095D01*
X72159809Y-64793714D01*
X72016952Y-64793714D01*
X71826476Y-64746095D01*
X71731238Y-64698476D01*
X71636000Y-64603238D01*
X71588380Y-64460380D01*
X71588380Y-64365142D01*
X71636000Y-64222285D01*
X71683619Y-64174666D01*
X72016952Y-63603238D02*
X71969333Y-63698476D01*
X71921714Y-63746095D01*
X71826476Y-63793714D01*
X71778857Y-63793714D01*
X71683619Y-63746095D01*
X71636000Y-63698476D01*
X71588380Y-63603238D01*
X71588380Y-63412761D01*
X71636000Y-63317523D01*
X71683619Y-63269904D01*
X71778857Y-63222285D01*
X71826476Y-63222285D01*
X71921714Y-63269904D01*
X71969333Y-63317523D01*
X72016952Y-63412761D01*
X72016952Y-63603238D01*
X72064571Y-63698476D01*
X72112190Y-63746095D01*
X72207428Y-63793714D01*
X72397904Y-63793714D01*
X72493142Y-63746095D01*
X72540761Y-63698476D01*
X72588380Y-63603238D01*
X72588380Y-63412761D01*
X72540761Y-63317523D01*
X72493142Y-63269904D01*
X72397904Y-63222285D01*
X72207428Y-63222285D01*
X72112190Y-63269904D01*
X72064571Y-63317523D01*
X72016952Y-63412761D01*
X76811142Y-65444666D02*
X76858761Y-65492285D01*
X76906380Y-65635142D01*
X76906380Y-65730380D01*
X76858761Y-65873238D01*
X76763523Y-65968476D01*
X76668285Y-66016095D01*
X76477809Y-66063714D01*
X76334952Y-66063714D01*
X76144476Y-66016095D01*
X76049238Y-65968476D01*
X75954000Y-65873238D01*
X75906380Y-65730380D01*
X75906380Y-65635142D01*
X75954000Y-65492285D01*
X76001619Y-65444666D01*
X75906380Y-65111333D02*
X75906380Y-64444666D01*
X76906380Y-64873238D01*
X87820666Y-59586761D02*
X87963523Y-59634380D01*
X88201619Y-59634380D01*
X88296857Y-59586761D01*
X88344476Y-59539142D01*
X88392095Y-59443904D01*
X88392095Y-59348666D01*
X88344476Y-59253428D01*
X88296857Y-59205809D01*
X88201619Y-59158190D01*
X88011142Y-59110571D01*
X87915904Y-59062952D01*
X87868285Y-59015333D01*
X87820666Y-58920095D01*
X87820666Y-58824857D01*
X87868285Y-58729619D01*
X87915904Y-58682000D01*
X88011142Y-58634380D01*
X88249238Y-58634380D01*
X88392095Y-58682000D01*
X88725428Y-58634380D02*
X88963523Y-59634380D01*
X89154000Y-58920095D01*
X89344476Y-59634380D01*
X89582571Y-58634380D01*
X90487333Y-59634380D02*
X89915904Y-59634380D01*
X90201619Y-59634380D02*
X90201619Y-58634380D01*
X90106380Y-58777238D01*
X90011142Y-58872476D01*
X89915904Y-58920095D01*
X88987333Y-54936380D02*
X88654000Y-54460190D01*
X88415904Y-54936380D02*
X88415904Y-53936380D01*
X88796857Y-53936380D01*
X88892095Y-53984000D01*
X88939714Y-54031619D01*
X88987333Y-54126857D01*
X88987333Y-54269714D01*
X88939714Y-54364952D01*
X88892095Y-54412571D01*
X88796857Y-54460190D01*
X88415904Y-54460190D01*
X89368285Y-54031619D02*
X89415904Y-53984000D01*
X89511142Y-53936380D01*
X89749238Y-53936380D01*
X89844476Y-53984000D01*
X89892095Y-54031619D01*
X89939714Y-54126857D01*
X89939714Y-54222095D01*
X89892095Y-54364952D01*
X89320666Y-54936380D01*
X89939714Y-54936380D01*
X78168666Y-61872761D02*
X78311523Y-61920380D01*
X78549619Y-61920380D01*
X78644857Y-61872761D01*
X78692476Y-61825142D01*
X78740095Y-61729904D01*
X78740095Y-61634666D01*
X78692476Y-61539428D01*
X78644857Y-61491809D01*
X78549619Y-61444190D01*
X78359142Y-61396571D01*
X78263904Y-61348952D01*
X78216285Y-61301333D01*
X78168666Y-61206095D01*
X78168666Y-61110857D01*
X78216285Y-61015619D01*
X78263904Y-60968000D01*
X78359142Y-60920380D01*
X78597238Y-60920380D01*
X78740095Y-60968000D01*
X79073428Y-60920380D02*
X79311523Y-61920380D01*
X79502000Y-61206095D01*
X79692476Y-61920380D01*
X79930571Y-60920380D01*
X80263904Y-61015619D02*
X80311523Y-60968000D01*
X80406761Y-60920380D01*
X80644857Y-60920380D01*
X80740095Y-60968000D01*
X80787714Y-61015619D01*
X80835333Y-61110857D01*
X80835333Y-61206095D01*
X80787714Y-61348952D01*
X80216285Y-61920380D01*
X80835333Y-61920380D01*
X76175142Y-61380666D02*
X76222761Y-61428285D01*
X76270380Y-61571142D01*
X76270380Y-61666380D01*
X76222761Y-61809238D01*
X76127523Y-61904476D01*
X76032285Y-61952095D01*
X75841809Y-61999714D01*
X75698952Y-61999714D01*
X75508476Y-61952095D01*
X75413238Y-61904476D01*
X75318000Y-61809238D01*
X75270380Y-61666380D01*
X75270380Y-61571142D01*
X75318000Y-61428285D01*
X75365619Y-61380666D01*
X75603714Y-60523523D02*
X76270380Y-60523523D01*
X75222761Y-60761619D02*
X75937047Y-60999714D01*
X75937047Y-60380666D01*
X86701333Y-52776380D02*
X86368000Y-52300190D01*
X86129904Y-52776380D02*
X86129904Y-51776380D01*
X86510857Y-51776380D01*
X86606095Y-51824000D01*
X86653714Y-51871619D01*
X86701333Y-51966857D01*
X86701333Y-52109714D01*
X86653714Y-52204952D01*
X86606095Y-52252571D01*
X86510857Y-52300190D01*
X86129904Y-52300190D01*
X87653714Y-52776380D02*
X87082285Y-52776380D01*
X87368000Y-52776380D02*
X87368000Y-51776380D01*
X87272761Y-51919238D01*
X87177523Y-52014476D01*
X87082285Y-52062095D01*
X107362666Y-67314380D02*
X107362666Y-68028666D01*
X107315047Y-68171523D01*
X107219809Y-68266761D01*
X107076952Y-68314380D01*
X106981714Y-68314380D01*
X108267428Y-67647714D02*
X108267428Y-68314380D01*
X108029333Y-67266761D02*
X107791238Y-67981047D01*
X108410285Y-67981047D01*
X108799333Y-61158380D02*
X108466000Y-60682190D01*
X108227904Y-61158380D02*
X108227904Y-60158380D01*
X108608857Y-60158380D01*
X108704095Y-60206000D01*
X108751714Y-60253619D01*
X108799333Y-60348857D01*
X108799333Y-60491714D01*
X108751714Y-60586952D01*
X108704095Y-60634571D01*
X108608857Y-60682190D01*
X108227904Y-60682190D01*
X109704095Y-60158380D02*
X109227904Y-60158380D01*
X109180285Y-60634571D01*
X109227904Y-60586952D01*
X109323142Y-60539333D01*
X109561238Y-60539333D01*
X109656476Y-60586952D01*
X109704095Y-60634571D01*
X109751714Y-60729809D01*
X109751714Y-60967904D01*
X109704095Y-61063142D01*
X109656476Y-61110761D01*
X109561238Y-61158380D01*
X109323142Y-61158380D01*
X109227904Y-61110761D01*
X109180285Y-61063142D01*
X111593333Y-53412380D02*
X111260000Y-52936190D01*
X111021904Y-53412380D02*
X111021904Y-52412380D01*
X111402857Y-52412380D01*
X111498095Y-52460000D01*
X111545714Y-52507619D01*
X111593333Y-52602857D01*
X111593333Y-52745714D01*
X111545714Y-52840952D01*
X111498095Y-52888571D01*
X111402857Y-52936190D01*
X111021904Y-52936190D01*
X112450476Y-52412380D02*
X112260000Y-52412380D01*
X112164761Y-52460000D01*
X112117142Y-52507619D01*
X112021904Y-52650476D01*
X111974285Y-52840952D01*
X111974285Y-53221904D01*
X112021904Y-53317142D01*
X112069523Y-53364761D01*
X112164761Y-53412380D01*
X112355238Y-53412380D01*
X112450476Y-53364761D01*
X112498095Y-53317142D01*
X112545714Y-53221904D01*
X112545714Y-52983809D01*
X112498095Y-52888571D01*
X112450476Y-52840952D01*
X112355238Y-52793333D01*
X112164761Y-52793333D01*
X112069523Y-52840952D01*
X112021904Y-52888571D01*
X111974285Y-52983809D01*
X111664761Y-66547619D02*
X111569523Y-66500000D01*
X111474285Y-66404761D01*
X111331428Y-66261904D01*
X111236190Y-66214285D01*
X111140952Y-66214285D01*
X111188571Y-66452380D02*
X111093333Y-66404761D01*
X110998095Y-66309523D01*
X110950476Y-66119047D01*
X110950476Y-65785714D01*
X110998095Y-65595238D01*
X111093333Y-65500000D01*
X111188571Y-65452380D01*
X111379047Y-65452380D01*
X111474285Y-65500000D01*
X111569523Y-65595238D01*
X111617142Y-65785714D01*
X111617142Y-66119047D01*
X111569523Y-66309523D01*
X111474285Y-66404761D01*
X111379047Y-66452380D01*
X111188571Y-66452380D01*
X112569523Y-66452380D02*
X111998095Y-66452380D01*
X112283809Y-66452380D02*
X112283809Y-65452380D01*
X112188571Y-65595238D01*
X112093333Y-65690476D01*
X111998095Y-65738095D01*
X99568095Y-52246380D02*
X99568095Y-53055904D01*
X99615714Y-53151142D01*
X99663333Y-53198761D01*
X99758571Y-53246380D01*
X99949047Y-53246380D01*
X100044285Y-53198761D01*
X100091904Y-53151142D01*
X100139523Y-53055904D01*
X100139523Y-52246380D01*
X100568095Y-52341619D02*
X100615714Y-52294000D01*
X100710952Y-52246380D01*
X100949047Y-52246380D01*
X101044285Y-52294000D01*
X101091904Y-52341619D01*
X101139523Y-52436857D01*
X101139523Y-52532095D01*
X101091904Y-52674952D01*
X100520476Y-53246380D01*
X101139523Y-53246380D01*
X65301904Y-54808380D02*
X65301904Y-53808380D01*
X65540000Y-53808380D01*
X65682857Y-53856000D01*
X65778095Y-53951238D01*
X65825714Y-54046476D01*
X65873333Y-54236952D01*
X65873333Y-54379809D01*
X65825714Y-54570285D01*
X65778095Y-54665523D01*
X65682857Y-54760761D01*
X65540000Y-54808380D01*
X65301904Y-54808380D01*
X66254285Y-53903619D02*
X66301904Y-53856000D01*
X66397142Y-53808380D01*
X66635238Y-53808380D01*
X66730476Y-53856000D01*
X66778095Y-53903619D01*
X66825714Y-53998857D01*
X66825714Y-54094095D01*
X66778095Y-54236952D01*
X66206666Y-54808380D01*
X66825714Y-54808380D01*
X107386380Y-56808666D02*
X106910190Y-57142000D01*
X107386380Y-57380095D02*
X106386380Y-57380095D01*
X106386380Y-56999142D01*
X106434000Y-56903904D01*
X106481619Y-56856285D01*
X106576857Y-56808666D01*
X106719714Y-56808666D01*
X106814952Y-56856285D01*
X106862571Y-56903904D01*
X106910190Y-56999142D01*
X106910190Y-57380095D01*
X106386380Y-56475333D02*
X106386380Y-55808666D01*
X107386380Y-56237238D01*
X69032380Y-50966666D02*
X68556190Y-51300000D01*
X69032380Y-51538095D02*
X68032380Y-51538095D01*
X68032380Y-51157142D01*
X68080000Y-51061904D01*
X68127619Y-51014285D01*
X68222857Y-50966666D01*
X68365714Y-50966666D01*
X68460952Y-51014285D01*
X68508571Y-51061904D01*
X68556190Y-51157142D01*
X68556190Y-51538095D01*
X68460952Y-50395238D02*
X68413333Y-50490476D01*
X68365714Y-50538095D01*
X68270476Y-50585714D01*
X68222857Y-50585714D01*
X68127619Y-50538095D01*
X68080000Y-50490476D01*
X68032380Y-50395238D01*
X68032380Y-50204761D01*
X68080000Y-50109523D01*
X68127619Y-50061904D01*
X68222857Y-50014285D01*
X68270476Y-50014285D01*
X68365714Y-50061904D01*
X68413333Y-50109523D01*
X68460952Y-50204761D01*
X68460952Y-50395238D01*
X68508571Y-50490476D01*
X68556190Y-50538095D01*
X68651428Y-50585714D01*
X68841904Y-50585714D01*
X68937142Y-50538095D01*
X68984761Y-50490476D01*
X69032380Y-50395238D01*
X69032380Y-50204761D01*
X68984761Y-50109523D01*
X68937142Y-50061904D01*
X68841904Y-50014285D01*
X68651428Y-50014285D01*
X68556190Y-50061904D01*
X68508571Y-50109523D01*
X68460952Y-50204761D01*
X73429904Y-57094380D02*
X73429904Y-56094380D01*
X73668000Y-56094380D01*
X73810857Y-56142000D01*
X73906095Y-56237238D01*
X73953714Y-56332476D01*
X74001333Y-56522952D01*
X74001333Y-56665809D01*
X73953714Y-56856285D01*
X73906095Y-56951523D01*
X73810857Y-57046761D01*
X73668000Y-57094380D01*
X73429904Y-57094380D01*
X74953714Y-57094380D02*
X74382285Y-57094380D01*
X74668000Y-57094380D02*
X74668000Y-56094380D01*
X74572761Y-56237238D01*
X74477523Y-56332476D01*
X74382285Y-56380095D01*
X68528380Y-87963333D02*
X69242666Y-87963333D01*
X69385523Y-88010952D01*
X69480761Y-88106190D01*
X69528380Y-88249047D01*
X69528380Y-88344285D01*
X68528380Y-87582380D02*
X68528380Y-86963333D01*
X68909333Y-87296666D01*
X68909333Y-87153809D01*
X68956952Y-87058571D01*
X69004571Y-87010952D01*
X69099809Y-86963333D01*
X69337904Y-86963333D01*
X69433142Y-87010952D01*
X69480761Y-87058571D01*
X69528380Y-87153809D01*
X69528380Y-87439523D01*
X69480761Y-87534761D01*
X69433142Y-87582380D01*
X103465333Y-95861142D02*
X103417714Y-95908761D01*
X103274857Y-95956380D01*
X103179619Y-95956380D01*
X103036761Y-95908761D01*
X102941523Y-95813523D01*
X102893904Y-95718285D01*
X102846285Y-95527809D01*
X102846285Y-95384952D01*
X102893904Y-95194476D01*
X102941523Y-95099238D01*
X103036761Y-95004000D01*
X103179619Y-94956380D01*
X103274857Y-94956380D01*
X103417714Y-95004000D01*
X103465333Y-95051619D01*
X103846285Y-95051619D02*
X103893904Y-95004000D01*
X103989142Y-94956380D01*
X104227238Y-94956380D01*
X104322476Y-95004000D01*
X104370095Y-95051619D01*
X104417714Y-95146857D01*
X104417714Y-95242095D01*
X104370095Y-95384952D01*
X103798666Y-95956380D01*
X104417714Y-95956380D01*
X81146666Y-79101904D02*
X80880000Y-78720952D01*
X80689523Y-79101904D02*
X80689523Y-78301904D01*
X80994285Y-78301904D01*
X81070476Y-78340000D01*
X81108571Y-78378095D01*
X81146666Y-78454285D01*
X81146666Y-78568571D01*
X81108571Y-78644761D01*
X81070476Y-78682857D01*
X80994285Y-78720952D01*
X80689523Y-78720952D01*
X81832380Y-78568571D02*
X81832380Y-79101904D01*
X81641904Y-78263809D02*
X81451428Y-78835238D01*
X81946666Y-78835238D01*
X105743619Y-81121238D02*
X105696000Y-81216476D01*
X105600761Y-81311714D01*
X105457904Y-81454571D01*
X105410285Y-81549809D01*
X105410285Y-81645047D01*
X105648380Y-81597428D02*
X105600761Y-81692666D01*
X105505523Y-81787904D01*
X105315047Y-81835523D01*
X104981714Y-81835523D01*
X104791238Y-81787904D01*
X104696000Y-81692666D01*
X104648380Y-81597428D01*
X104648380Y-81406952D01*
X104696000Y-81311714D01*
X104791238Y-81216476D01*
X104981714Y-81168857D01*
X105315047Y-81168857D01*
X105505523Y-81216476D01*
X105600761Y-81311714D01*
X105648380Y-81406952D01*
X105648380Y-81597428D01*
X104648380Y-80835523D02*
X104648380Y-80216476D01*
X105029333Y-80549809D01*
X105029333Y-80406952D01*
X105076952Y-80311714D01*
X105124571Y-80264095D01*
X105219809Y-80216476D01*
X105457904Y-80216476D01*
X105553142Y-80264095D01*
X105600761Y-80311714D01*
X105648380Y-80406952D01*
X105648380Y-80692666D01*
X105600761Y-80787904D01*
X105553142Y-80835523D01*
X80518095Y-85050380D02*
X80518095Y-85859904D01*
X80565714Y-85955142D01*
X80613333Y-86002761D01*
X80708571Y-86050380D01*
X80899047Y-86050380D01*
X80994285Y-86002761D01*
X81041904Y-85955142D01*
X81089523Y-85859904D01*
X81089523Y-85050380D01*
X81470476Y-85050380D02*
X82089523Y-85050380D01*
X81756190Y-85431333D01*
X81899047Y-85431333D01*
X81994285Y-85478952D01*
X82041904Y-85526571D01*
X82089523Y-85621809D01*
X82089523Y-85859904D01*
X82041904Y-85955142D01*
X81994285Y-86002761D01*
X81899047Y-86050380D01*
X81613333Y-86050380D01*
X81518095Y-86002761D01*
X81470476Y-85955142D01*
X89241333Y-92177142D02*
X89193714Y-92224761D01*
X89050857Y-92272380D01*
X88955619Y-92272380D01*
X88812761Y-92224761D01*
X88717523Y-92129523D01*
X88669904Y-92034285D01*
X88622285Y-91843809D01*
X88622285Y-91700952D01*
X88669904Y-91510476D01*
X88717523Y-91415238D01*
X88812761Y-91320000D01*
X88955619Y-91272380D01*
X89050857Y-91272380D01*
X89193714Y-91320000D01*
X89241333Y-91367619D01*
X90098476Y-91272380D02*
X89908000Y-91272380D01*
X89812761Y-91320000D01*
X89765142Y-91367619D01*
X89669904Y-91510476D01*
X89622285Y-91700952D01*
X89622285Y-92081904D01*
X89669904Y-92177142D01*
X89717523Y-92224761D01*
X89812761Y-92272380D01*
X90003238Y-92272380D01*
X90098476Y-92224761D01*
X90146095Y-92177142D01*
X90193714Y-92081904D01*
X90193714Y-91843809D01*
X90146095Y-91748571D01*
X90098476Y-91700952D01*
X90003238Y-91653333D01*
X89812761Y-91653333D01*
X89717523Y-91700952D01*
X89669904Y-91748571D01*
X89622285Y-91843809D01*
X94575333Y-83795142D02*
X94527714Y-83842761D01*
X94384857Y-83890380D01*
X94289619Y-83890380D01*
X94146761Y-83842761D01*
X94051523Y-83747523D01*
X94003904Y-83652285D01*
X93956285Y-83461809D01*
X93956285Y-83318952D01*
X94003904Y-83128476D01*
X94051523Y-83033238D01*
X94146761Y-82938000D01*
X94289619Y-82890380D01*
X94384857Y-82890380D01*
X94527714Y-82938000D01*
X94575333Y-82985619D01*
X95527714Y-83890380D02*
X94956285Y-83890380D01*
X95242000Y-83890380D02*
X95242000Y-82890380D01*
X95146761Y-83033238D01*
X95051523Y-83128476D01*
X94956285Y-83176095D01*
X72564666Y-80732380D02*
X72564666Y-81446666D01*
X72517047Y-81589523D01*
X72421809Y-81684761D01*
X72278952Y-81732380D01*
X72183714Y-81732380D01*
X73517047Y-80732380D02*
X73040857Y-80732380D01*
X72993238Y-81208571D01*
X73040857Y-81160952D01*
X73136095Y-81113333D01*
X73374190Y-81113333D01*
X73469428Y-81160952D01*
X73517047Y-81208571D01*
X73564666Y-81303809D01*
X73564666Y-81541904D01*
X73517047Y-81637142D01*
X73469428Y-81684761D01*
X73374190Y-81732380D01*
X73136095Y-81732380D01*
X73040857Y-81684761D01*
X72993238Y-81637142D01*
X82494380Y-93384666D02*
X82018190Y-93718000D01*
X82494380Y-93956095D02*
X81494380Y-93956095D01*
X81494380Y-93575142D01*
X81542000Y-93479904D01*
X81589619Y-93432285D01*
X81684857Y-93384666D01*
X81827714Y-93384666D01*
X81922952Y-93432285D01*
X81970571Y-93479904D01*
X82018190Y-93575142D01*
X82018190Y-93956095D01*
X81494380Y-93051333D02*
X81494380Y-92432285D01*
X81875333Y-92765619D01*
X81875333Y-92622761D01*
X81922952Y-92527523D01*
X81970571Y-92479904D01*
X82065809Y-92432285D01*
X82303904Y-92432285D01*
X82399142Y-92479904D01*
X82446761Y-92527523D01*
X82494380Y-92622761D01*
X82494380Y-92908476D01*
X82446761Y-93003714D01*
X82399142Y-93051333D01*
X84161333Y-88621142D02*
X84113714Y-88668761D01*
X83970857Y-88716380D01*
X83875619Y-88716380D01*
X83732761Y-88668761D01*
X83637523Y-88573523D01*
X83589904Y-88478285D01*
X83542285Y-88287809D01*
X83542285Y-88144952D01*
X83589904Y-87954476D01*
X83637523Y-87859238D01*
X83732761Y-87764000D01*
X83875619Y-87716380D01*
X83970857Y-87716380D01*
X84113714Y-87764000D01*
X84161333Y-87811619D01*
X85066095Y-87716380D02*
X84589904Y-87716380D01*
X84542285Y-88192571D01*
X84589904Y-88144952D01*
X84685142Y-88097333D01*
X84923238Y-88097333D01*
X85018476Y-88144952D01*
X85066095Y-88192571D01*
X85113714Y-88287809D01*
X85113714Y-88525904D01*
X85066095Y-88621142D01*
X85018476Y-88668761D01*
X84923238Y-88716380D01*
X84685142Y-88716380D01*
X84589904Y-88668761D01*
X84542285Y-88621142D01*
X80859333Y-87225142D02*
X80811714Y-87272761D01*
X80668857Y-87320380D01*
X80573619Y-87320380D01*
X80430761Y-87272761D01*
X80335523Y-87177523D01*
X80287904Y-87082285D01*
X80240285Y-86891809D01*
X80240285Y-86748952D01*
X80287904Y-86558476D01*
X80335523Y-86463238D01*
X80430761Y-86368000D01*
X80573619Y-86320380D01*
X80668857Y-86320380D01*
X80811714Y-86368000D01*
X80859333Y-86415619D01*
X81335523Y-87320380D02*
X81526000Y-87320380D01*
X81621238Y-87272761D01*
X81668857Y-87225142D01*
X81764095Y-87082285D01*
X81811714Y-86891809D01*
X81811714Y-86510857D01*
X81764095Y-86415619D01*
X81716476Y-86368000D01*
X81621238Y-86320380D01*
X81430761Y-86320380D01*
X81335523Y-86368000D01*
X81287904Y-86415619D01*
X81240285Y-86510857D01*
X81240285Y-86748952D01*
X81287904Y-86844190D01*
X81335523Y-86891809D01*
X81430761Y-86939428D01*
X81621238Y-86939428D01*
X81716476Y-86891809D01*
X81764095Y-86844190D01*
X81811714Y-86748952D01*
X92687142Y-86018666D02*
X92734761Y-86066285D01*
X92782380Y-86209142D01*
X92782380Y-86304380D01*
X92734761Y-86447238D01*
X92639523Y-86542476D01*
X92544285Y-86590095D01*
X92353809Y-86637714D01*
X92210952Y-86637714D01*
X92020476Y-86590095D01*
X91925238Y-86542476D01*
X91830000Y-86447238D01*
X91782380Y-86304380D01*
X91782380Y-86209142D01*
X91830000Y-86066285D01*
X91877619Y-86018666D01*
X91782380Y-85685333D02*
X91782380Y-85066285D01*
X92163333Y-85399619D01*
X92163333Y-85256761D01*
X92210952Y-85161523D01*
X92258571Y-85113904D01*
X92353809Y-85066285D01*
X92591904Y-85066285D01*
X92687142Y-85113904D01*
X92734761Y-85161523D01*
X92782380Y-85256761D01*
X92782380Y-85542476D01*
X92734761Y-85637714D01*
X92687142Y-85685333D01*
X109124761Y-87669619D02*
X109029523Y-87622000D01*
X108934285Y-87526761D01*
X108791428Y-87383904D01*
X108696190Y-87336285D01*
X108600952Y-87336285D01*
X108648571Y-87574380D02*
X108553333Y-87526761D01*
X108458095Y-87431523D01*
X108410476Y-87241047D01*
X108410476Y-86907714D01*
X108458095Y-86717238D01*
X108553333Y-86622000D01*
X108648571Y-86574380D01*
X108839047Y-86574380D01*
X108934285Y-86622000D01*
X109029523Y-86717238D01*
X109077142Y-86907714D01*
X109077142Y-87241047D01*
X109029523Y-87431523D01*
X108934285Y-87526761D01*
X108839047Y-87574380D01*
X108648571Y-87574380D01*
X109458095Y-86669619D02*
X109505714Y-86622000D01*
X109600952Y-86574380D01*
X109839047Y-86574380D01*
X109934285Y-86622000D01*
X109981904Y-86669619D01*
X110029523Y-86764857D01*
X110029523Y-86860095D01*
X109981904Y-87002952D01*
X109410476Y-87574380D01*
X110029523Y-87574380D01*
X86320380Y-82803904D02*
X87129904Y-82803904D01*
X87225142Y-82756285D01*
X87272761Y-82708666D01*
X87320380Y-82613428D01*
X87320380Y-82422952D01*
X87272761Y-82327714D01*
X87225142Y-82280095D01*
X87129904Y-82232476D01*
X86320380Y-82232476D01*
X87320380Y-81232476D02*
X87320380Y-81803904D01*
X87320380Y-81518190D02*
X86320380Y-81518190D01*
X86463238Y-81613428D01*
X86558476Y-81708666D01*
X86606095Y-81803904D01*
X72493142Y-92114666D02*
X72540761Y-92162285D01*
X72588380Y-92305142D01*
X72588380Y-92400380D01*
X72540761Y-92543238D01*
X72445523Y-92638476D01*
X72350285Y-92686095D01*
X72159809Y-92733714D01*
X72016952Y-92733714D01*
X71826476Y-92686095D01*
X71731238Y-92638476D01*
X71636000Y-92543238D01*
X71588380Y-92400380D01*
X71588380Y-92305142D01*
X71636000Y-92162285D01*
X71683619Y-92114666D01*
X72016952Y-91543238D02*
X71969333Y-91638476D01*
X71921714Y-91686095D01*
X71826476Y-91733714D01*
X71778857Y-91733714D01*
X71683619Y-91686095D01*
X71636000Y-91638476D01*
X71588380Y-91543238D01*
X71588380Y-91352761D01*
X71636000Y-91257523D01*
X71683619Y-91209904D01*
X71778857Y-91162285D01*
X71826476Y-91162285D01*
X71921714Y-91209904D01*
X71969333Y-91257523D01*
X72016952Y-91352761D01*
X72016952Y-91543238D01*
X72064571Y-91638476D01*
X72112190Y-91686095D01*
X72207428Y-91733714D01*
X72397904Y-91733714D01*
X72493142Y-91686095D01*
X72540761Y-91638476D01*
X72588380Y-91543238D01*
X72588380Y-91352761D01*
X72540761Y-91257523D01*
X72493142Y-91209904D01*
X72397904Y-91162285D01*
X72207428Y-91162285D01*
X72112190Y-91209904D01*
X72064571Y-91257523D01*
X72016952Y-91352761D01*
X76811142Y-93384666D02*
X76858761Y-93432285D01*
X76906380Y-93575142D01*
X76906380Y-93670380D01*
X76858761Y-93813238D01*
X76763523Y-93908476D01*
X76668285Y-93956095D01*
X76477809Y-94003714D01*
X76334952Y-94003714D01*
X76144476Y-93956095D01*
X76049238Y-93908476D01*
X75954000Y-93813238D01*
X75906380Y-93670380D01*
X75906380Y-93575142D01*
X75954000Y-93432285D01*
X76001619Y-93384666D01*
X75906380Y-93051333D02*
X75906380Y-92384666D01*
X76906380Y-92813238D01*
X87820666Y-87526761D02*
X87963523Y-87574380D01*
X88201619Y-87574380D01*
X88296857Y-87526761D01*
X88344476Y-87479142D01*
X88392095Y-87383904D01*
X88392095Y-87288666D01*
X88344476Y-87193428D01*
X88296857Y-87145809D01*
X88201619Y-87098190D01*
X88011142Y-87050571D01*
X87915904Y-87002952D01*
X87868285Y-86955333D01*
X87820666Y-86860095D01*
X87820666Y-86764857D01*
X87868285Y-86669619D01*
X87915904Y-86622000D01*
X88011142Y-86574380D01*
X88249238Y-86574380D01*
X88392095Y-86622000D01*
X88725428Y-86574380D02*
X88963523Y-87574380D01*
X89154000Y-86860095D01*
X89344476Y-87574380D01*
X89582571Y-86574380D01*
X90487333Y-87574380D02*
X89915904Y-87574380D01*
X90201619Y-87574380D02*
X90201619Y-86574380D01*
X90106380Y-86717238D01*
X90011142Y-86812476D01*
X89915904Y-86860095D01*
X88987333Y-82876380D02*
X88654000Y-82400190D01*
X88415904Y-82876380D02*
X88415904Y-81876380D01*
X88796857Y-81876380D01*
X88892095Y-81924000D01*
X88939714Y-81971619D01*
X88987333Y-82066857D01*
X88987333Y-82209714D01*
X88939714Y-82304952D01*
X88892095Y-82352571D01*
X88796857Y-82400190D01*
X88415904Y-82400190D01*
X89368285Y-81971619D02*
X89415904Y-81924000D01*
X89511142Y-81876380D01*
X89749238Y-81876380D01*
X89844476Y-81924000D01*
X89892095Y-81971619D01*
X89939714Y-82066857D01*
X89939714Y-82162095D01*
X89892095Y-82304952D01*
X89320666Y-82876380D01*
X89939714Y-82876380D01*
X78168666Y-89812761D02*
X78311523Y-89860380D01*
X78549619Y-89860380D01*
X78644857Y-89812761D01*
X78692476Y-89765142D01*
X78740095Y-89669904D01*
X78740095Y-89574666D01*
X78692476Y-89479428D01*
X78644857Y-89431809D01*
X78549619Y-89384190D01*
X78359142Y-89336571D01*
X78263904Y-89288952D01*
X78216285Y-89241333D01*
X78168666Y-89146095D01*
X78168666Y-89050857D01*
X78216285Y-88955619D01*
X78263904Y-88908000D01*
X78359142Y-88860380D01*
X78597238Y-88860380D01*
X78740095Y-88908000D01*
X79073428Y-88860380D02*
X79311523Y-89860380D01*
X79502000Y-89146095D01*
X79692476Y-89860380D01*
X79930571Y-88860380D01*
X80263904Y-88955619D02*
X80311523Y-88908000D01*
X80406761Y-88860380D01*
X80644857Y-88860380D01*
X80740095Y-88908000D01*
X80787714Y-88955619D01*
X80835333Y-89050857D01*
X80835333Y-89146095D01*
X80787714Y-89288952D01*
X80216285Y-89860380D01*
X80835333Y-89860380D01*
X76175142Y-89320666D02*
X76222761Y-89368285D01*
X76270380Y-89511142D01*
X76270380Y-89606380D01*
X76222761Y-89749238D01*
X76127523Y-89844476D01*
X76032285Y-89892095D01*
X75841809Y-89939714D01*
X75698952Y-89939714D01*
X75508476Y-89892095D01*
X75413238Y-89844476D01*
X75318000Y-89749238D01*
X75270380Y-89606380D01*
X75270380Y-89511142D01*
X75318000Y-89368285D01*
X75365619Y-89320666D01*
X75603714Y-88463523D02*
X76270380Y-88463523D01*
X75222761Y-88701619D02*
X75937047Y-88939714D01*
X75937047Y-88320666D01*
X86701333Y-80716380D02*
X86368000Y-80240190D01*
X86129904Y-80716380D02*
X86129904Y-79716380D01*
X86510857Y-79716380D01*
X86606095Y-79764000D01*
X86653714Y-79811619D01*
X86701333Y-79906857D01*
X86701333Y-80049714D01*
X86653714Y-80144952D01*
X86606095Y-80192571D01*
X86510857Y-80240190D01*
X86129904Y-80240190D01*
X87653714Y-80716380D02*
X87082285Y-80716380D01*
X87368000Y-80716380D02*
X87368000Y-79716380D01*
X87272761Y-79859238D01*
X87177523Y-79954476D01*
X87082285Y-80002095D01*
X107362666Y-95254380D02*
X107362666Y-95968666D01*
X107315047Y-96111523D01*
X107219809Y-96206761D01*
X107076952Y-96254380D01*
X106981714Y-96254380D01*
X108267428Y-95587714D02*
X108267428Y-96254380D01*
X108029333Y-95206761D02*
X107791238Y-95921047D01*
X108410285Y-95921047D01*
X108799333Y-89098380D02*
X108466000Y-88622190D01*
X108227904Y-89098380D02*
X108227904Y-88098380D01*
X108608857Y-88098380D01*
X108704095Y-88146000D01*
X108751714Y-88193619D01*
X108799333Y-88288857D01*
X108799333Y-88431714D01*
X108751714Y-88526952D01*
X108704095Y-88574571D01*
X108608857Y-88622190D01*
X108227904Y-88622190D01*
X109704095Y-88098380D02*
X109227904Y-88098380D01*
X109180285Y-88574571D01*
X109227904Y-88526952D01*
X109323142Y-88479333D01*
X109561238Y-88479333D01*
X109656476Y-88526952D01*
X109704095Y-88574571D01*
X109751714Y-88669809D01*
X109751714Y-88907904D01*
X109704095Y-89003142D01*
X109656476Y-89050761D01*
X109561238Y-89098380D01*
X109323142Y-89098380D01*
X109227904Y-89050761D01*
X109180285Y-89003142D01*
X111593333Y-81352380D02*
X111260000Y-80876190D01*
X111021904Y-81352380D02*
X111021904Y-80352380D01*
X111402857Y-80352380D01*
X111498095Y-80400000D01*
X111545714Y-80447619D01*
X111593333Y-80542857D01*
X111593333Y-80685714D01*
X111545714Y-80780952D01*
X111498095Y-80828571D01*
X111402857Y-80876190D01*
X111021904Y-80876190D01*
X112450476Y-80352380D02*
X112260000Y-80352380D01*
X112164761Y-80400000D01*
X112117142Y-80447619D01*
X112021904Y-80590476D01*
X111974285Y-80780952D01*
X111974285Y-81161904D01*
X112021904Y-81257142D01*
X112069523Y-81304761D01*
X112164761Y-81352380D01*
X112355238Y-81352380D01*
X112450476Y-81304761D01*
X112498095Y-81257142D01*
X112545714Y-81161904D01*
X112545714Y-80923809D01*
X112498095Y-80828571D01*
X112450476Y-80780952D01*
X112355238Y-80733333D01*
X112164761Y-80733333D01*
X112069523Y-80780952D01*
X112021904Y-80828571D01*
X111974285Y-80923809D01*
X111664761Y-94487619D02*
X111569523Y-94440000D01*
X111474285Y-94344761D01*
X111331428Y-94201904D01*
X111236190Y-94154285D01*
X111140952Y-94154285D01*
X111188571Y-94392380D02*
X111093333Y-94344761D01*
X110998095Y-94249523D01*
X110950476Y-94059047D01*
X110950476Y-93725714D01*
X110998095Y-93535238D01*
X111093333Y-93440000D01*
X111188571Y-93392380D01*
X111379047Y-93392380D01*
X111474285Y-93440000D01*
X111569523Y-93535238D01*
X111617142Y-93725714D01*
X111617142Y-94059047D01*
X111569523Y-94249523D01*
X111474285Y-94344761D01*
X111379047Y-94392380D01*
X111188571Y-94392380D01*
X112569523Y-94392380D02*
X111998095Y-94392380D01*
X112283809Y-94392380D02*
X112283809Y-93392380D01*
X112188571Y-93535238D01*
X112093333Y-93630476D01*
X111998095Y-93678095D01*
X99568095Y-80186380D02*
X99568095Y-80995904D01*
X99615714Y-81091142D01*
X99663333Y-81138761D01*
X99758571Y-81186380D01*
X99949047Y-81186380D01*
X100044285Y-81138761D01*
X100091904Y-81091142D01*
X100139523Y-80995904D01*
X100139523Y-80186380D01*
X100568095Y-80281619D02*
X100615714Y-80234000D01*
X100710952Y-80186380D01*
X100949047Y-80186380D01*
X101044285Y-80234000D01*
X101091904Y-80281619D01*
X101139523Y-80376857D01*
X101139523Y-80472095D01*
X101091904Y-80614952D01*
X100520476Y-81186380D01*
X101139523Y-81186380D01*
X65301904Y-82748380D02*
X65301904Y-81748380D01*
X65540000Y-81748380D01*
X65682857Y-81796000D01*
X65778095Y-81891238D01*
X65825714Y-81986476D01*
X65873333Y-82176952D01*
X65873333Y-82319809D01*
X65825714Y-82510285D01*
X65778095Y-82605523D01*
X65682857Y-82700761D01*
X65540000Y-82748380D01*
X65301904Y-82748380D01*
X66254285Y-81843619D02*
X66301904Y-81796000D01*
X66397142Y-81748380D01*
X66635238Y-81748380D01*
X66730476Y-81796000D01*
X66778095Y-81843619D01*
X66825714Y-81938857D01*
X66825714Y-82034095D01*
X66778095Y-82176952D01*
X66206666Y-82748380D01*
X66825714Y-82748380D01*
X107386380Y-84748666D02*
X106910190Y-85082000D01*
X107386380Y-85320095D02*
X106386380Y-85320095D01*
X106386380Y-84939142D01*
X106434000Y-84843904D01*
X106481619Y-84796285D01*
X106576857Y-84748666D01*
X106719714Y-84748666D01*
X106814952Y-84796285D01*
X106862571Y-84843904D01*
X106910190Y-84939142D01*
X106910190Y-85320095D01*
X106386380Y-84415333D02*
X106386380Y-83748666D01*
X107386380Y-84177238D01*
X69032380Y-78906666D02*
X68556190Y-79240000D01*
X69032380Y-79478095D02*
X68032380Y-79478095D01*
X68032380Y-79097142D01*
X68080000Y-79001904D01*
X68127619Y-78954285D01*
X68222857Y-78906666D01*
X68365714Y-78906666D01*
X68460952Y-78954285D01*
X68508571Y-79001904D01*
X68556190Y-79097142D01*
X68556190Y-79478095D01*
X68460952Y-78335238D02*
X68413333Y-78430476D01*
X68365714Y-78478095D01*
X68270476Y-78525714D01*
X68222857Y-78525714D01*
X68127619Y-78478095D01*
X68080000Y-78430476D01*
X68032380Y-78335238D01*
X68032380Y-78144761D01*
X68080000Y-78049523D01*
X68127619Y-78001904D01*
X68222857Y-77954285D01*
X68270476Y-77954285D01*
X68365714Y-78001904D01*
X68413333Y-78049523D01*
X68460952Y-78144761D01*
X68460952Y-78335238D01*
X68508571Y-78430476D01*
X68556190Y-78478095D01*
X68651428Y-78525714D01*
X68841904Y-78525714D01*
X68937142Y-78478095D01*
X68984761Y-78430476D01*
X69032380Y-78335238D01*
X69032380Y-78144761D01*
X68984761Y-78049523D01*
X68937142Y-78001904D01*
X68841904Y-77954285D01*
X68651428Y-77954285D01*
X68556190Y-78001904D01*
X68508571Y-78049523D01*
X68460952Y-78144761D01*
X73429904Y-85034380D02*
X73429904Y-84034380D01*
X73668000Y-84034380D01*
X73810857Y-84082000D01*
X73906095Y-84177238D01*
X73953714Y-84272476D01*
X74001333Y-84462952D01*
X74001333Y-84605809D01*
X73953714Y-84796285D01*
X73906095Y-84891523D01*
X73810857Y-84986761D01*
X73668000Y-85034380D01*
X73429904Y-85034380D01*
X74953714Y-85034380D02*
X74382285Y-85034380D01*
X74668000Y-85034380D02*
X74668000Y-84034380D01*
X74572761Y-84177238D01*
X74477523Y-84272476D01*
X74382285Y-84320095D01*
X124408380Y-87963333D02*
X125122666Y-87963333D01*
X125265523Y-88010952D01*
X125360761Y-88106190D01*
X125408380Y-88249047D01*
X125408380Y-88344285D01*
X124408380Y-87582380D02*
X124408380Y-86963333D01*
X124789333Y-87296666D01*
X124789333Y-87153809D01*
X124836952Y-87058571D01*
X124884571Y-87010952D01*
X124979809Y-86963333D01*
X125217904Y-86963333D01*
X125313142Y-87010952D01*
X125360761Y-87058571D01*
X125408380Y-87153809D01*
X125408380Y-87439523D01*
X125360761Y-87534761D01*
X125313142Y-87582380D01*
X159345333Y-95861142D02*
X159297714Y-95908761D01*
X159154857Y-95956380D01*
X159059619Y-95956380D01*
X158916761Y-95908761D01*
X158821523Y-95813523D01*
X158773904Y-95718285D01*
X158726285Y-95527809D01*
X158726285Y-95384952D01*
X158773904Y-95194476D01*
X158821523Y-95099238D01*
X158916761Y-95004000D01*
X159059619Y-94956380D01*
X159154857Y-94956380D01*
X159297714Y-95004000D01*
X159345333Y-95051619D01*
X159726285Y-95051619D02*
X159773904Y-95004000D01*
X159869142Y-94956380D01*
X160107238Y-94956380D01*
X160202476Y-95004000D01*
X160250095Y-95051619D01*
X160297714Y-95146857D01*
X160297714Y-95242095D01*
X160250095Y-95384952D01*
X159678666Y-95956380D01*
X160297714Y-95956380D01*
X137026666Y-79101904D02*
X136760000Y-78720952D01*
X136569523Y-79101904D02*
X136569523Y-78301904D01*
X136874285Y-78301904D01*
X136950476Y-78340000D01*
X136988571Y-78378095D01*
X137026666Y-78454285D01*
X137026666Y-78568571D01*
X136988571Y-78644761D01*
X136950476Y-78682857D01*
X136874285Y-78720952D01*
X136569523Y-78720952D01*
X137712380Y-78568571D02*
X137712380Y-79101904D01*
X137521904Y-78263809D02*
X137331428Y-78835238D01*
X137826666Y-78835238D01*
X161623619Y-81121238D02*
X161576000Y-81216476D01*
X161480761Y-81311714D01*
X161337904Y-81454571D01*
X161290285Y-81549809D01*
X161290285Y-81645047D01*
X161528380Y-81597428D02*
X161480761Y-81692666D01*
X161385523Y-81787904D01*
X161195047Y-81835523D01*
X160861714Y-81835523D01*
X160671238Y-81787904D01*
X160576000Y-81692666D01*
X160528380Y-81597428D01*
X160528380Y-81406952D01*
X160576000Y-81311714D01*
X160671238Y-81216476D01*
X160861714Y-81168857D01*
X161195047Y-81168857D01*
X161385523Y-81216476D01*
X161480761Y-81311714D01*
X161528380Y-81406952D01*
X161528380Y-81597428D01*
X160528380Y-80835523D02*
X160528380Y-80216476D01*
X160909333Y-80549809D01*
X160909333Y-80406952D01*
X160956952Y-80311714D01*
X161004571Y-80264095D01*
X161099809Y-80216476D01*
X161337904Y-80216476D01*
X161433142Y-80264095D01*
X161480761Y-80311714D01*
X161528380Y-80406952D01*
X161528380Y-80692666D01*
X161480761Y-80787904D01*
X161433142Y-80835523D01*
X136398095Y-85050380D02*
X136398095Y-85859904D01*
X136445714Y-85955142D01*
X136493333Y-86002761D01*
X136588571Y-86050380D01*
X136779047Y-86050380D01*
X136874285Y-86002761D01*
X136921904Y-85955142D01*
X136969523Y-85859904D01*
X136969523Y-85050380D01*
X137350476Y-85050380D02*
X137969523Y-85050380D01*
X137636190Y-85431333D01*
X137779047Y-85431333D01*
X137874285Y-85478952D01*
X137921904Y-85526571D01*
X137969523Y-85621809D01*
X137969523Y-85859904D01*
X137921904Y-85955142D01*
X137874285Y-86002761D01*
X137779047Y-86050380D01*
X137493333Y-86050380D01*
X137398095Y-86002761D01*
X137350476Y-85955142D01*
X145121333Y-92177142D02*
X145073714Y-92224761D01*
X144930857Y-92272380D01*
X144835619Y-92272380D01*
X144692761Y-92224761D01*
X144597523Y-92129523D01*
X144549904Y-92034285D01*
X144502285Y-91843809D01*
X144502285Y-91700952D01*
X144549904Y-91510476D01*
X144597523Y-91415238D01*
X144692761Y-91320000D01*
X144835619Y-91272380D01*
X144930857Y-91272380D01*
X145073714Y-91320000D01*
X145121333Y-91367619D01*
X145978476Y-91272380D02*
X145788000Y-91272380D01*
X145692761Y-91320000D01*
X145645142Y-91367619D01*
X145549904Y-91510476D01*
X145502285Y-91700952D01*
X145502285Y-92081904D01*
X145549904Y-92177142D01*
X145597523Y-92224761D01*
X145692761Y-92272380D01*
X145883238Y-92272380D01*
X145978476Y-92224761D01*
X146026095Y-92177142D01*
X146073714Y-92081904D01*
X146073714Y-91843809D01*
X146026095Y-91748571D01*
X145978476Y-91700952D01*
X145883238Y-91653333D01*
X145692761Y-91653333D01*
X145597523Y-91700952D01*
X145549904Y-91748571D01*
X145502285Y-91843809D01*
X150455333Y-83795142D02*
X150407714Y-83842761D01*
X150264857Y-83890380D01*
X150169619Y-83890380D01*
X150026761Y-83842761D01*
X149931523Y-83747523D01*
X149883904Y-83652285D01*
X149836285Y-83461809D01*
X149836285Y-83318952D01*
X149883904Y-83128476D01*
X149931523Y-83033238D01*
X150026761Y-82938000D01*
X150169619Y-82890380D01*
X150264857Y-82890380D01*
X150407714Y-82938000D01*
X150455333Y-82985619D01*
X151407714Y-83890380D02*
X150836285Y-83890380D01*
X151122000Y-83890380D02*
X151122000Y-82890380D01*
X151026761Y-83033238D01*
X150931523Y-83128476D01*
X150836285Y-83176095D01*
X128444666Y-80732380D02*
X128444666Y-81446666D01*
X128397047Y-81589523D01*
X128301809Y-81684761D01*
X128158952Y-81732380D01*
X128063714Y-81732380D01*
X129397047Y-80732380D02*
X128920857Y-80732380D01*
X128873238Y-81208571D01*
X128920857Y-81160952D01*
X129016095Y-81113333D01*
X129254190Y-81113333D01*
X129349428Y-81160952D01*
X129397047Y-81208571D01*
X129444666Y-81303809D01*
X129444666Y-81541904D01*
X129397047Y-81637142D01*
X129349428Y-81684761D01*
X129254190Y-81732380D01*
X129016095Y-81732380D01*
X128920857Y-81684761D01*
X128873238Y-81637142D01*
X138374380Y-93384666D02*
X137898190Y-93718000D01*
X138374380Y-93956095D02*
X137374380Y-93956095D01*
X137374380Y-93575142D01*
X137422000Y-93479904D01*
X137469619Y-93432285D01*
X137564857Y-93384666D01*
X137707714Y-93384666D01*
X137802952Y-93432285D01*
X137850571Y-93479904D01*
X137898190Y-93575142D01*
X137898190Y-93956095D01*
X137374380Y-93051333D02*
X137374380Y-92432285D01*
X137755333Y-92765619D01*
X137755333Y-92622761D01*
X137802952Y-92527523D01*
X137850571Y-92479904D01*
X137945809Y-92432285D01*
X138183904Y-92432285D01*
X138279142Y-92479904D01*
X138326761Y-92527523D01*
X138374380Y-92622761D01*
X138374380Y-92908476D01*
X138326761Y-93003714D01*
X138279142Y-93051333D01*
X140041333Y-88621142D02*
X139993714Y-88668761D01*
X139850857Y-88716380D01*
X139755619Y-88716380D01*
X139612761Y-88668761D01*
X139517523Y-88573523D01*
X139469904Y-88478285D01*
X139422285Y-88287809D01*
X139422285Y-88144952D01*
X139469904Y-87954476D01*
X139517523Y-87859238D01*
X139612761Y-87764000D01*
X139755619Y-87716380D01*
X139850857Y-87716380D01*
X139993714Y-87764000D01*
X140041333Y-87811619D01*
X140946095Y-87716380D02*
X140469904Y-87716380D01*
X140422285Y-88192571D01*
X140469904Y-88144952D01*
X140565142Y-88097333D01*
X140803238Y-88097333D01*
X140898476Y-88144952D01*
X140946095Y-88192571D01*
X140993714Y-88287809D01*
X140993714Y-88525904D01*
X140946095Y-88621142D01*
X140898476Y-88668761D01*
X140803238Y-88716380D01*
X140565142Y-88716380D01*
X140469904Y-88668761D01*
X140422285Y-88621142D01*
X136739333Y-87225142D02*
X136691714Y-87272761D01*
X136548857Y-87320380D01*
X136453619Y-87320380D01*
X136310761Y-87272761D01*
X136215523Y-87177523D01*
X136167904Y-87082285D01*
X136120285Y-86891809D01*
X136120285Y-86748952D01*
X136167904Y-86558476D01*
X136215523Y-86463238D01*
X136310761Y-86368000D01*
X136453619Y-86320380D01*
X136548857Y-86320380D01*
X136691714Y-86368000D01*
X136739333Y-86415619D01*
X137215523Y-87320380D02*
X137406000Y-87320380D01*
X137501238Y-87272761D01*
X137548857Y-87225142D01*
X137644095Y-87082285D01*
X137691714Y-86891809D01*
X137691714Y-86510857D01*
X137644095Y-86415619D01*
X137596476Y-86368000D01*
X137501238Y-86320380D01*
X137310761Y-86320380D01*
X137215523Y-86368000D01*
X137167904Y-86415619D01*
X137120285Y-86510857D01*
X137120285Y-86748952D01*
X137167904Y-86844190D01*
X137215523Y-86891809D01*
X137310761Y-86939428D01*
X137501238Y-86939428D01*
X137596476Y-86891809D01*
X137644095Y-86844190D01*
X137691714Y-86748952D01*
X148567142Y-86018666D02*
X148614761Y-86066285D01*
X148662380Y-86209142D01*
X148662380Y-86304380D01*
X148614761Y-86447238D01*
X148519523Y-86542476D01*
X148424285Y-86590095D01*
X148233809Y-86637714D01*
X148090952Y-86637714D01*
X147900476Y-86590095D01*
X147805238Y-86542476D01*
X147710000Y-86447238D01*
X147662380Y-86304380D01*
X147662380Y-86209142D01*
X147710000Y-86066285D01*
X147757619Y-86018666D01*
X147662380Y-85685333D02*
X147662380Y-85066285D01*
X148043333Y-85399619D01*
X148043333Y-85256761D01*
X148090952Y-85161523D01*
X148138571Y-85113904D01*
X148233809Y-85066285D01*
X148471904Y-85066285D01*
X148567142Y-85113904D01*
X148614761Y-85161523D01*
X148662380Y-85256761D01*
X148662380Y-85542476D01*
X148614761Y-85637714D01*
X148567142Y-85685333D01*
X165004761Y-87669619D02*
X164909523Y-87622000D01*
X164814285Y-87526761D01*
X164671428Y-87383904D01*
X164576190Y-87336285D01*
X164480952Y-87336285D01*
X164528571Y-87574380D02*
X164433333Y-87526761D01*
X164338095Y-87431523D01*
X164290476Y-87241047D01*
X164290476Y-86907714D01*
X164338095Y-86717238D01*
X164433333Y-86622000D01*
X164528571Y-86574380D01*
X164719047Y-86574380D01*
X164814285Y-86622000D01*
X164909523Y-86717238D01*
X164957142Y-86907714D01*
X164957142Y-87241047D01*
X164909523Y-87431523D01*
X164814285Y-87526761D01*
X164719047Y-87574380D01*
X164528571Y-87574380D01*
X165338095Y-86669619D02*
X165385714Y-86622000D01*
X165480952Y-86574380D01*
X165719047Y-86574380D01*
X165814285Y-86622000D01*
X165861904Y-86669619D01*
X165909523Y-86764857D01*
X165909523Y-86860095D01*
X165861904Y-87002952D01*
X165290476Y-87574380D01*
X165909523Y-87574380D01*
X142200380Y-82803904D02*
X143009904Y-82803904D01*
X143105142Y-82756285D01*
X143152761Y-82708666D01*
X143200380Y-82613428D01*
X143200380Y-82422952D01*
X143152761Y-82327714D01*
X143105142Y-82280095D01*
X143009904Y-82232476D01*
X142200380Y-82232476D01*
X143200380Y-81232476D02*
X143200380Y-81803904D01*
X143200380Y-81518190D02*
X142200380Y-81518190D01*
X142343238Y-81613428D01*
X142438476Y-81708666D01*
X142486095Y-81803904D01*
X128373142Y-92114666D02*
X128420761Y-92162285D01*
X128468380Y-92305142D01*
X128468380Y-92400380D01*
X128420761Y-92543238D01*
X128325523Y-92638476D01*
X128230285Y-92686095D01*
X128039809Y-92733714D01*
X127896952Y-92733714D01*
X127706476Y-92686095D01*
X127611238Y-92638476D01*
X127516000Y-92543238D01*
X127468380Y-92400380D01*
X127468380Y-92305142D01*
X127516000Y-92162285D01*
X127563619Y-92114666D01*
X127896952Y-91543238D02*
X127849333Y-91638476D01*
X127801714Y-91686095D01*
X127706476Y-91733714D01*
X127658857Y-91733714D01*
X127563619Y-91686095D01*
X127516000Y-91638476D01*
X127468380Y-91543238D01*
X127468380Y-91352761D01*
X127516000Y-91257523D01*
X127563619Y-91209904D01*
X127658857Y-91162285D01*
X127706476Y-91162285D01*
X127801714Y-91209904D01*
X127849333Y-91257523D01*
X127896952Y-91352761D01*
X127896952Y-91543238D01*
X127944571Y-91638476D01*
X127992190Y-91686095D01*
X128087428Y-91733714D01*
X128277904Y-91733714D01*
X128373142Y-91686095D01*
X128420761Y-91638476D01*
X128468380Y-91543238D01*
X128468380Y-91352761D01*
X128420761Y-91257523D01*
X128373142Y-91209904D01*
X128277904Y-91162285D01*
X128087428Y-91162285D01*
X127992190Y-91209904D01*
X127944571Y-91257523D01*
X127896952Y-91352761D01*
X132691142Y-93384666D02*
X132738761Y-93432285D01*
X132786380Y-93575142D01*
X132786380Y-93670380D01*
X132738761Y-93813238D01*
X132643523Y-93908476D01*
X132548285Y-93956095D01*
X132357809Y-94003714D01*
X132214952Y-94003714D01*
X132024476Y-93956095D01*
X131929238Y-93908476D01*
X131834000Y-93813238D01*
X131786380Y-93670380D01*
X131786380Y-93575142D01*
X131834000Y-93432285D01*
X131881619Y-93384666D01*
X131786380Y-93051333D02*
X131786380Y-92384666D01*
X132786380Y-92813238D01*
X143700666Y-87526761D02*
X143843523Y-87574380D01*
X144081619Y-87574380D01*
X144176857Y-87526761D01*
X144224476Y-87479142D01*
X144272095Y-87383904D01*
X144272095Y-87288666D01*
X144224476Y-87193428D01*
X144176857Y-87145809D01*
X144081619Y-87098190D01*
X143891142Y-87050571D01*
X143795904Y-87002952D01*
X143748285Y-86955333D01*
X143700666Y-86860095D01*
X143700666Y-86764857D01*
X143748285Y-86669619D01*
X143795904Y-86622000D01*
X143891142Y-86574380D01*
X144129238Y-86574380D01*
X144272095Y-86622000D01*
X144605428Y-86574380D02*
X144843523Y-87574380D01*
X145034000Y-86860095D01*
X145224476Y-87574380D01*
X145462571Y-86574380D01*
X146367333Y-87574380D02*
X145795904Y-87574380D01*
X146081619Y-87574380D02*
X146081619Y-86574380D01*
X145986380Y-86717238D01*
X145891142Y-86812476D01*
X145795904Y-86860095D01*
X144867333Y-82876380D02*
X144534000Y-82400190D01*
X144295904Y-82876380D02*
X144295904Y-81876380D01*
X144676857Y-81876380D01*
X144772095Y-81924000D01*
X144819714Y-81971619D01*
X144867333Y-82066857D01*
X144867333Y-82209714D01*
X144819714Y-82304952D01*
X144772095Y-82352571D01*
X144676857Y-82400190D01*
X144295904Y-82400190D01*
X145248285Y-81971619D02*
X145295904Y-81924000D01*
X145391142Y-81876380D01*
X145629238Y-81876380D01*
X145724476Y-81924000D01*
X145772095Y-81971619D01*
X145819714Y-82066857D01*
X145819714Y-82162095D01*
X145772095Y-82304952D01*
X145200666Y-82876380D01*
X145819714Y-82876380D01*
X134048666Y-89812761D02*
X134191523Y-89860380D01*
X134429619Y-89860380D01*
X134524857Y-89812761D01*
X134572476Y-89765142D01*
X134620095Y-89669904D01*
X134620095Y-89574666D01*
X134572476Y-89479428D01*
X134524857Y-89431809D01*
X134429619Y-89384190D01*
X134239142Y-89336571D01*
X134143904Y-89288952D01*
X134096285Y-89241333D01*
X134048666Y-89146095D01*
X134048666Y-89050857D01*
X134096285Y-88955619D01*
X134143904Y-88908000D01*
X134239142Y-88860380D01*
X134477238Y-88860380D01*
X134620095Y-88908000D01*
X134953428Y-88860380D02*
X135191523Y-89860380D01*
X135382000Y-89146095D01*
X135572476Y-89860380D01*
X135810571Y-88860380D01*
X136143904Y-88955619D02*
X136191523Y-88908000D01*
X136286761Y-88860380D01*
X136524857Y-88860380D01*
X136620095Y-88908000D01*
X136667714Y-88955619D01*
X136715333Y-89050857D01*
X136715333Y-89146095D01*
X136667714Y-89288952D01*
X136096285Y-89860380D01*
X136715333Y-89860380D01*
X132055142Y-89320666D02*
X132102761Y-89368285D01*
X132150380Y-89511142D01*
X132150380Y-89606380D01*
X132102761Y-89749238D01*
X132007523Y-89844476D01*
X131912285Y-89892095D01*
X131721809Y-89939714D01*
X131578952Y-89939714D01*
X131388476Y-89892095D01*
X131293238Y-89844476D01*
X131198000Y-89749238D01*
X131150380Y-89606380D01*
X131150380Y-89511142D01*
X131198000Y-89368285D01*
X131245619Y-89320666D01*
X131483714Y-88463523D02*
X132150380Y-88463523D01*
X131102761Y-88701619D02*
X131817047Y-88939714D01*
X131817047Y-88320666D01*
X142581333Y-80716380D02*
X142248000Y-80240190D01*
X142009904Y-80716380D02*
X142009904Y-79716380D01*
X142390857Y-79716380D01*
X142486095Y-79764000D01*
X142533714Y-79811619D01*
X142581333Y-79906857D01*
X142581333Y-80049714D01*
X142533714Y-80144952D01*
X142486095Y-80192571D01*
X142390857Y-80240190D01*
X142009904Y-80240190D01*
X143533714Y-80716380D02*
X142962285Y-80716380D01*
X143248000Y-80716380D02*
X143248000Y-79716380D01*
X143152761Y-79859238D01*
X143057523Y-79954476D01*
X142962285Y-80002095D01*
X163242666Y-95254380D02*
X163242666Y-95968666D01*
X163195047Y-96111523D01*
X163099809Y-96206761D01*
X162956952Y-96254380D01*
X162861714Y-96254380D01*
X164147428Y-95587714D02*
X164147428Y-96254380D01*
X163909333Y-95206761D02*
X163671238Y-95921047D01*
X164290285Y-95921047D01*
X164679333Y-89098380D02*
X164346000Y-88622190D01*
X164107904Y-89098380D02*
X164107904Y-88098380D01*
X164488857Y-88098380D01*
X164584095Y-88146000D01*
X164631714Y-88193619D01*
X164679333Y-88288857D01*
X164679333Y-88431714D01*
X164631714Y-88526952D01*
X164584095Y-88574571D01*
X164488857Y-88622190D01*
X164107904Y-88622190D01*
X165584095Y-88098380D02*
X165107904Y-88098380D01*
X165060285Y-88574571D01*
X165107904Y-88526952D01*
X165203142Y-88479333D01*
X165441238Y-88479333D01*
X165536476Y-88526952D01*
X165584095Y-88574571D01*
X165631714Y-88669809D01*
X165631714Y-88907904D01*
X165584095Y-89003142D01*
X165536476Y-89050761D01*
X165441238Y-89098380D01*
X165203142Y-89098380D01*
X165107904Y-89050761D01*
X165060285Y-89003142D01*
X167473333Y-81352380D02*
X167140000Y-80876190D01*
X166901904Y-81352380D02*
X166901904Y-80352380D01*
X167282857Y-80352380D01*
X167378095Y-80400000D01*
X167425714Y-80447619D01*
X167473333Y-80542857D01*
X167473333Y-80685714D01*
X167425714Y-80780952D01*
X167378095Y-80828571D01*
X167282857Y-80876190D01*
X166901904Y-80876190D01*
X168330476Y-80352380D02*
X168140000Y-80352380D01*
X168044761Y-80400000D01*
X167997142Y-80447619D01*
X167901904Y-80590476D01*
X167854285Y-80780952D01*
X167854285Y-81161904D01*
X167901904Y-81257142D01*
X167949523Y-81304761D01*
X168044761Y-81352380D01*
X168235238Y-81352380D01*
X168330476Y-81304761D01*
X168378095Y-81257142D01*
X168425714Y-81161904D01*
X168425714Y-80923809D01*
X168378095Y-80828571D01*
X168330476Y-80780952D01*
X168235238Y-80733333D01*
X168044761Y-80733333D01*
X167949523Y-80780952D01*
X167901904Y-80828571D01*
X167854285Y-80923809D01*
X167544761Y-94487619D02*
X167449523Y-94440000D01*
X167354285Y-94344761D01*
X167211428Y-94201904D01*
X167116190Y-94154285D01*
X167020952Y-94154285D01*
X167068571Y-94392380D02*
X166973333Y-94344761D01*
X166878095Y-94249523D01*
X166830476Y-94059047D01*
X166830476Y-93725714D01*
X166878095Y-93535238D01*
X166973333Y-93440000D01*
X167068571Y-93392380D01*
X167259047Y-93392380D01*
X167354285Y-93440000D01*
X167449523Y-93535238D01*
X167497142Y-93725714D01*
X167497142Y-94059047D01*
X167449523Y-94249523D01*
X167354285Y-94344761D01*
X167259047Y-94392380D01*
X167068571Y-94392380D01*
X168449523Y-94392380D02*
X167878095Y-94392380D01*
X168163809Y-94392380D02*
X168163809Y-93392380D01*
X168068571Y-93535238D01*
X167973333Y-93630476D01*
X167878095Y-93678095D01*
X155448095Y-80186380D02*
X155448095Y-80995904D01*
X155495714Y-81091142D01*
X155543333Y-81138761D01*
X155638571Y-81186380D01*
X155829047Y-81186380D01*
X155924285Y-81138761D01*
X155971904Y-81091142D01*
X156019523Y-80995904D01*
X156019523Y-80186380D01*
X156448095Y-80281619D02*
X156495714Y-80234000D01*
X156590952Y-80186380D01*
X156829047Y-80186380D01*
X156924285Y-80234000D01*
X156971904Y-80281619D01*
X157019523Y-80376857D01*
X157019523Y-80472095D01*
X156971904Y-80614952D01*
X156400476Y-81186380D01*
X157019523Y-81186380D01*
X121181904Y-82748380D02*
X121181904Y-81748380D01*
X121420000Y-81748380D01*
X121562857Y-81796000D01*
X121658095Y-81891238D01*
X121705714Y-81986476D01*
X121753333Y-82176952D01*
X121753333Y-82319809D01*
X121705714Y-82510285D01*
X121658095Y-82605523D01*
X121562857Y-82700761D01*
X121420000Y-82748380D01*
X121181904Y-82748380D01*
X122134285Y-81843619D02*
X122181904Y-81796000D01*
X122277142Y-81748380D01*
X122515238Y-81748380D01*
X122610476Y-81796000D01*
X122658095Y-81843619D01*
X122705714Y-81938857D01*
X122705714Y-82034095D01*
X122658095Y-82176952D01*
X122086666Y-82748380D01*
X122705714Y-82748380D01*
X163266380Y-84748666D02*
X162790190Y-85082000D01*
X163266380Y-85320095D02*
X162266380Y-85320095D01*
X162266380Y-84939142D01*
X162314000Y-84843904D01*
X162361619Y-84796285D01*
X162456857Y-84748666D01*
X162599714Y-84748666D01*
X162694952Y-84796285D01*
X162742571Y-84843904D01*
X162790190Y-84939142D01*
X162790190Y-85320095D01*
X162266380Y-84415333D02*
X162266380Y-83748666D01*
X163266380Y-84177238D01*
X124912380Y-78906666D02*
X124436190Y-79240000D01*
X124912380Y-79478095D02*
X123912380Y-79478095D01*
X123912380Y-79097142D01*
X123960000Y-79001904D01*
X124007619Y-78954285D01*
X124102857Y-78906666D01*
X124245714Y-78906666D01*
X124340952Y-78954285D01*
X124388571Y-79001904D01*
X124436190Y-79097142D01*
X124436190Y-79478095D01*
X124340952Y-78335238D02*
X124293333Y-78430476D01*
X124245714Y-78478095D01*
X124150476Y-78525714D01*
X124102857Y-78525714D01*
X124007619Y-78478095D01*
X123960000Y-78430476D01*
X123912380Y-78335238D01*
X123912380Y-78144761D01*
X123960000Y-78049523D01*
X124007619Y-78001904D01*
X124102857Y-77954285D01*
X124150476Y-77954285D01*
X124245714Y-78001904D01*
X124293333Y-78049523D01*
X124340952Y-78144761D01*
X124340952Y-78335238D01*
X124388571Y-78430476D01*
X124436190Y-78478095D01*
X124531428Y-78525714D01*
X124721904Y-78525714D01*
X124817142Y-78478095D01*
X124864761Y-78430476D01*
X124912380Y-78335238D01*
X124912380Y-78144761D01*
X124864761Y-78049523D01*
X124817142Y-78001904D01*
X124721904Y-77954285D01*
X124531428Y-77954285D01*
X124436190Y-78001904D01*
X124388571Y-78049523D01*
X124340952Y-78144761D01*
X129309904Y-85034380D02*
X129309904Y-84034380D01*
X129548000Y-84034380D01*
X129690857Y-84082000D01*
X129786095Y-84177238D01*
X129833714Y-84272476D01*
X129881333Y-84462952D01*
X129881333Y-84605809D01*
X129833714Y-84796285D01*
X129786095Y-84891523D01*
X129690857Y-84986761D01*
X129548000Y-85034380D01*
X129309904Y-85034380D01*
X130833714Y-85034380D02*
X130262285Y-85034380D01*
X130548000Y-85034380D02*
X130548000Y-84034380D01*
X130452761Y-84177238D01*
X130357523Y-84272476D01*
X130262285Y-84320095D01*
X124408380Y-115903333D02*
X125122666Y-115903333D01*
X125265523Y-115950952D01*
X125360761Y-116046190D01*
X125408380Y-116189047D01*
X125408380Y-116284285D01*
X124408380Y-115522380D02*
X124408380Y-114903333D01*
X124789333Y-115236666D01*
X124789333Y-115093809D01*
X124836952Y-114998571D01*
X124884571Y-114950952D01*
X124979809Y-114903333D01*
X125217904Y-114903333D01*
X125313142Y-114950952D01*
X125360761Y-114998571D01*
X125408380Y-115093809D01*
X125408380Y-115379523D01*
X125360761Y-115474761D01*
X125313142Y-115522380D01*
X159345333Y-123801142D02*
X159297714Y-123848761D01*
X159154857Y-123896380D01*
X159059619Y-123896380D01*
X158916761Y-123848761D01*
X158821523Y-123753523D01*
X158773904Y-123658285D01*
X158726285Y-123467809D01*
X158726285Y-123324952D01*
X158773904Y-123134476D01*
X158821523Y-123039238D01*
X158916761Y-122944000D01*
X159059619Y-122896380D01*
X159154857Y-122896380D01*
X159297714Y-122944000D01*
X159345333Y-122991619D01*
X159726285Y-122991619D02*
X159773904Y-122944000D01*
X159869142Y-122896380D01*
X160107238Y-122896380D01*
X160202476Y-122944000D01*
X160250095Y-122991619D01*
X160297714Y-123086857D01*
X160297714Y-123182095D01*
X160250095Y-123324952D01*
X159678666Y-123896380D01*
X160297714Y-123896380D01*
X137026666Y-107041904D02*
X136760000Y-106660952D01*
X136569523Y-107041904D02*
X136569523Y-106241904D01*
X136874285Y-106241904D01*
X136950476Y-106280000D01*
X136988571Y-106318095D01*
X137026666Y-106394285D01*
X137026666Y-106508571D01*
X136988571Y-106584761D01*
X136950476Y-106622857D01*
X136874285Y-106660952D01*
X136569523Y-106660952D01*
X137712380Y-106508571D02*
X137712380Y-107041904D01*
X137521904Y-106203809D02*
X137331428Y-106775238D01*
X137826666Y-106775238D01*
X161623619Y-109061238D02*
X161576000Y-109156476D01*
X161480761Y-109251714D01*
X161337904Y-109394571D01*
X161290285Y-109489809D01*
X161290285Y-109585047D01*
X161528380Y-109537428D02*
X161480761Y-109632666D01*
X161385523Y-109727904D01*
X161195047Y-109775523D01*
X160861714Y-109775523D01*
X160671238Y-109727904D01*
X160576000Y-109632666D01*
X160528380Y-109537428D01*
X160528380Y-109346952D01*
X160576000Y-109251714D01*
X160671238Y-109156476D01*
X160861714Y-109108857D01*
X161195047Y-109108857D01*
X161385523Y-109156476D01*
X161480761Y-109251714D01*
X161528380Y-109346952D01*
X161528380Y-109537428D01*
X160528380Y-108775523D02*
X160528380Y-108156476D01*
X160909333Y-108489809D01*
X160909333Y-108346952D01*
X160956952Y-108251714D01*
X161004571Y-108204095D01*
X161099809Y-108156476D01*
X161337904Y-108156476D01*
X161433142Y-108204095D01*
X161480761Y-108251714D01*
X161528380Y-108346952D01*
X161528380Y-108632666D01*
X161480761Y-108727904D01*
X161433142Y-108775523D01*
X136398095Y-112990380D02*
X136398095Y-113799904D01*
X136445714Y-113895142D01*
X136493333Y-113942761D01*
X136588571Y-113990380D01*
X136779047Y-113990380D01*
X136874285Y-113942761D01*
X136921904Y-113895142D01*
X136969523Y-113799904D01*
X136969523Y-112990380D01*
X137350476Y-112990380D02*
X137969523Y-112990380D01*
X137636190Y-113371333D01*
X137779047Y-113371333D01*
X137874285Y-113418952D01*
X137921904Y-113466571D01*
X137969523Y-113561809D01*
X137969523Y-113799904D01*
X137921904Y-113895142D01*
X137874285Y-113942761D01*
X137779047Y-113990380D01*
X137493333Y-113990380D01*
X137398095Y-113942761D01*
X137350476Y-113895142D01*
X145121333Y-120117142D02*
X145073714Y-120164761D01*
X144930857Y-120212380D01*
X144835619Y-120212380D01*
X144692761Y-120164761D01*
X144597523Y-120069523D01*
X144549904Y-119974285D01*
X144502285Y-119783809D01*
X144502285Y-119640952D01*
X144549904Y-119450476D01*
X144597523Y-119355238D01*
X144692761Y-119260000D01*
X144835619Y-119212380D01*
X144930857Y-119212380D01*
X145073714Y-119260000D01*
X145121333Y-119307619D01*
X145978476Y-119212380D02*
X145788000Y-119212380D01*
X145692761Y-119260000D01*
X145645142Y-119307619D01*
X145549904Y-119450476D01*
X145502285Y-119640952D01*
X145502285Y-120021904D01*
X145549904Y-120117142D01*
X145597523Y-120164761D01*
X145692761Y-120212380D01*
X145883238Y-120212380D01*
X145978476Y-120164761D01*
X146026095Y-120117142D01*
X146073714Y-120021904D01*
X146073714Y-119783809D01*
X146026095Y-119688571D01*
X145978476Y-119640952D01*
X145883238Y-119593333D01*
X145692761Y-119593333D01*
X145597523Y-119640952D01*
X145549904Y-119688571D01*
X145502285Y-119783809D01*
X150455333Y-111735142D02*
X150407714Y-111782761D01*
X150264857Y-111830380D01*
X150169619Y-111830380D01*
X150026761Y-111782761D01*
X149931523Y-111687523D01*
X149883904Y-111592285D01*
X149836285Y-111401809D01*
X149836285Y-111258952D01*
X149883904Y-111068476D01*
X149931523Y-110973238D01*
X150026761Y-110878000D01*
X150169619Y-110830380D01*
X150264857Y-110830380D01*
X150407714Y-110878000D01*
X150455333Y-110925619D01*
X151407714Y-111830380D02*
X150836285Y-111830380D01*
X151122000Y-111830380D02*
X151122000Y-110830380D01*
X151026761Y-110973238D01*
X150931523Y-111068476D01*
X150836285Y-111116095D01*
X128444666Y-108672380D02*
X128444666Y-109386666D01*
X128397047Y-109529523D01*
X128301809Y-109624761D01*
X128158952Y-109672380D01*
X128063714Y-109672380D01*
X129397047Y-108672380D02*
X128920857Y-108672380D01*
X128873238Y-109148571D01*
X128920857Y-109100952D01*
X129016095Y-109053333D01*
X129254190Y-109053333D01*
X129349428Y-109100952D01*
X129397047Y-109148571D01*
X129444666Y-109243809D01*
X129444666Y-109481904D01*
X129397047Y-109577142D01*
X129349428Y-109624761D01*
X129254190Y-109672380D01*
X129016095Y-109672380D01*
X128920857Y-109624761D01*
X128873238Y-109577142D01*
X138374380Y-121324666D02*
X137898190Y-121658000D01*
X138374380Y-121896095D02*
X137374380Y-121896095D01*
X137374380Y-121515142D01*
X137422000Y-121419904D01*
X137469619Y-121372285D01*
X137564857Y-121324666D01*
X137707714Y-121324666D01*
X137802952Y-121372285D01*
X137850571Y-121419904D01*
X137898190Y-121515142D01*
X137898190Y-121896095D01*
X137374380Y-120991333D02*
X137374380Y-120372285D01*
X137755333Y-120705619D01*
X137755333Y-120562761D01*
X137802952Y-120467523D01*
X137850571Y-120419904D01*
X137945809Y-120372285D01*
X138183904Y-120372285D01*
X138279142Y-120419904D01*
X138326761Y-120467523D01*
X138374380Y-120562761D01*
X138374380Y-120848476D01*
X138326761Y-120943714D01*
X138279142Y-120991333D01*
X140041333Y-116561142D02*
X139993714Y-116608761D01*
X139850857Y-116656380D01*
X139755619Y-116656380D01*
X139612761Y-116608761D01*
X139517523Y-116513523D01*
X139469904Y-116418285D01*
X139422285Y-116227809D01*
X139422285Y-116084952D01*
X139469904Y-115894476D01*
X139517523Y-115799238D01*
X139612761Y-115704000D01*
X139755619Y-115656380D01*
X139850857Y-115656380D01*
X139993714Y-115704000D01*
X140041333Y-115751619D01*
X140946095Y-115656380D02*
X140469904Y-115656380D01*
X140422285Y-116132571D01*
X140469904Y-116084952D01*
X140565142Y-116037333D01*
X140803238Y-116037333D01*
X140898476Y-116084952D01*
X140946095Y-116132571D01*
X140993714Y-116227809D01*
X140993714Y-116465904D01*
X140946095Y-116561142D01*
X140898476Y-116608761D01*
X140803238Y-116656380D01*
X140565142Y-116656380D01*
X140469904Y-116608761D01*
X140422285Y-116561142D01*
X136739333Y-115165142D02*
X136691714Y-115212761D01*
X136548857Y-115260380D01*
X136453619Y-115260380D01*
X136310761Y-115212761D01*
X136215523Y-115117523D01*
X136167904Y-115022285D01*
X136120285Y-114831809D01*
X136120285Y-114688952D01*
X136167904Y-114498476D01*
X136215523Y-114403238D01*
X136310761Y-114308000D01*
X136453619Y-114260380D01*
X136548857Y-114260380D01*
X136691714Y-114308000D01*
X136739333Y-114355619D01*
X137215523Y-115260380D02*
X137406000Y-115260380D01*
X137501238Y-115212761D01*
X137548857Y-115165142D01*
X137644095Y-115022285D01*
X137691714Y-114831809D01*
X137691714Y-114450857D01*
X137644095Y-114355619D01*
X137596476Y-114308000D01*
X137501238Y-114260380D01*
X137310761Y-114260380D01*
X137215523Y-114308000D01*
X137167904Y-114355619D01*
X137120285Y-114450857D01*
X137120285Y-114688952D01*
X137167904Y-114784190D01*
X137215523Y-114831809D01*
X137310761Y-114879428D01*
X137501238Y-114879428D01*
X137596476Y-114831809D01*
X137644095Y-114784190D01*
X137691714Y-114688952D01*
X148567142Y-113958666D02*
X148614761Y-114006285D01*
X148662380Y-114149142D01*
X148662380Y-114244380D01*
X148614761Y-114387238D01*
X148519523Y-114482476D01*
X148424285Y-114530095D01*
X148233809Y-114577714D01*
X148090952Y-114577714D01*
X147900476Y-114530095D01*
X147805238Y-114482476D01*
X147710000Y-114387238D01*
X147662380Y-114244380D01*
X147662380Y-114149142D01*
X147710000Y-114006285D01*
X147757619Y-113958666D01*
X147662380Y-113625333D02*
X147662380Y-113006285D01*
X148043333Y-113339619D01*
X148043333Y-113196761D01*
X148090952Y-113101523D01*
X148138571Y-113053904D01*
X148233809Y-113006285D01*
X148471904Y-113006285D01*
X148567142Y-113053904D01*
X148614761Y-113101523D01*
X148662380Y-113196761D01*
X148662380Y-113482476D01*
X148614761Y-113577714D01*
X148567142Y-113625333D01*
X165004761Y-115609619D02*
X164909523Y-115562000D01*
X164814285Y-115466761D01*
X164671428Y-115323904D01*
X164576190Y-115276285D01*
X164480952Y-115276285D01*
X164528571Y-115514380D02*
X164433333Y-115466761D01*
X164338095Y-115371523D01*
X164290476Y-115181047D01*
X164290476Y-114847714D01*
X164338095Y-114657238D01*
X164433333Y-114562000D01*
X164528571Y-114514380D01*
X164719047Y-114514380D01*
X164814285Y-114562000D01*
X164909523Y-114657238D01*
X164957142Y-114847714D01*
X164957142Y-115181047D01*
X164909523Y-115371523D01*
X164814285Y-115466761D01*
X164719047Y-115514380D01*
X164528571Y-115514380D01*
X165338095Y-114609619D02*
X165385714Y-114562000D01*
X165480952Y-114514380D01*
X165719047Y-114514380D01*
X165814285Y-114562000D01*
X165861904Y-114609619D01*
X165909523Y-114704857D01*
X165909523Y-114800095D01*
X165861904Y-114942952D01*
X165290476Y-115514380D01*
X165909523Y-115514380D01*
X142200380Y-110743904D02*
X143009904Y-110743904D01*
X143105142Y-110696285D01*
X143152761Y-110648666D01*
X143200380Y-110553428D01*
X143200380Y-110362952D01*
X143152761Y-110267714D01*
X143105142Y-110220095D01*
X143009904Y-110172476D01*
X142200380Y-110172476D01*
X143200380Y-109172476D02*
X143200380Y-109743904D01*
X143200380Y-109458190D02*
X142200380Y-109458190D01*
X142343238Y-109553428D01*
X142438476Y-109648666D01*
X142486095Y-109743904D01*
X128373142Y-120054666D02*
X128420761Y-120102285D01*
X128468380Y-120245142D01*
X128468380Y-120340380D01*
X128420761Y-120483238D01*
X128325523Y-120578476D01*
X128230285Y-120626095D01*
X128039809Y-120673714D01*
X127896952Y-120673714D01*
X127706476Y-120626095D01*
X127611238Y-120578476D01*
X127516000Y-120483238D01*
X127468380Y-120340380D01*
X127468380Y-120245142D01*
X127516000Y-120102285D01*
X127563619Y-120054666D01*
X127896952Y-119483238D02*
X127849333Y-119578476D01*
X127801714Y-119626095D01*
X127706476Y-119673714D01*
X127658857Y-119673714D01*
X127563619Y-119626095D01*
X127516000Y-119578476D01*
X127468380Y-119483238D01*
X127468380Y-119292761D01*
X127516000Y-119197523D01*
X127563619Y-119149904D01*
X127658857Y-119102285D01*
X127706476Y-119102285D01*
X127801714Y-119149904D01*
X127849333Y-119197523D01*
X127896952Y-119292761D01*
X127896952Y-119483238D01*
X127944571Y-119578476D01*
X127992190Y-119626095D01*
X128087428Y-119673714D01*
X128277904Y-119673714D01*
X128373142Y-119626095D01*
X128420761Y-119578476D01*
X128468380Y-119483238D01*
X128468380Y-119292761D01*
X128420761Y-119197523D01*
X128373142Y-119149904D01*
X128277904Y-119102285D01*
X128087428Y-119102285D01*
X127992190Y-119149904D01*
X127944571Y-119197523D01*
X127896952Y-119292761D01*
X132691142Y-121324666D02*
X132738761Y-121372285D01*
X132786380Y-121515142D01*
X132786380Y-121610380D01*
X132738761Y-121753238D01*
X132643523Y-121848476D01*
X132548285Y-121896095D01*
X132357809Y-121943714D01*
X132214952Y-121943714D01*
X132024476Y-121896095D01*
X131929238Y-121848476D01*
X131834000Y-121753238D01*
X131786380Y-121610380D01*
X131786380Y-121515142D01*
X131834000Y-121372285D01*
X131881619Y-121324666D01*
X131786380Y-120991333D02*
X131786380Y-120324666D01*
X132786380Y-120753238D01*
X143700666Y-115466761D02*
X143843523Y-115514380D01*
X144081619Y-115514380D01*
X144176857Y-115466761D01*
X144224476Y-115419142D01*
X144272095Y-115323904D01*
X144272095Y-115228666D01*
X144224476Y-115133428D01*
X144176857Y-115085809D01*
X144081619Y-115038190D01*
X143891142Y-114990571D01*
X143795904Y-114942952D01*
X143748285Y-114895333D01*
X143700666Y-114800095D01*
X143700666Y-114704857D01*
X143748285Y-114609619D01*
X143795904Y-114562000D01*
X143891142Y-114514380D01*
X144129238Y-114514380D01*
X144272095Y-114562000D01*
X144605428Y-114514380D02*
X144843523Y-115514380D01*
X145034000Y-114800095D01*
X145224476Y-115514380D01*
X145462571Y-114514380D01*
X146367333Y-115514380D02*
X145795904Y-115514380D01*
X146081619Y-115514380D02*
X146081619Y-114514380D01*
X145986380Y-114657238D01*
X145891142Y-114752476D01*
X145795904Y-114800095D01*
X144867333Y-110816380D02*
X144534000Y-110340190D01*
X144295904Y-110816380D02*
X144295904Y-109816380D01*
X144676857Y-109816380D01*
X144772095Y-109864000D01*
X144819714Y-109911619D01*
X144867333Y-110006857D01*
X144867333Y-110149714D01*
X144819714Y-110244952D01*
X144772095Y-110292571D01*
X144676857Y-110340190D01*
X144295904Y-110340190D01*
X145248285Y-109911619D02*
X145295904Y-109864000D01*
X145391142Y-109816380D01*
X145629238Y-109816380D01*
X145724476Y-109864000D01*
X145772095Y-109911619D01*
X145819714Y-110006857D01*
X145819714Y-110102095D01*
X145772095Y-110244952D01*
X145200666Y-110816380D01*
X145819714Y-110816380D01*
X134048666Y-117752761D02*
X134191523Y-117800380D01*
X134429619Y-117800380D01*
X134524857Y-117752761D01*
X134572476Y-117705142D01*
X134620095Y-117609904D01*
X134620095Y-117514666D01*
X134572476Y-117419428D01*
X134524857Y-117371809D01*
X134429619Y-117324190D01*
X134239142Y-117276571D01*
X134143904Y-117228952D01*
X134096285Y-117181333D01*
X134048666Y-117086095D01*
X134048666Y-116990857D01*
X134096285Y-116895619D01*
X134143904Y-116848000D01*
X134239142Y-116800380D01*
X134477238Y-116800380D01*
X134620095Y-116848000D01*
X134953428Y-116800380D02*
X135191523Y-117800380D01*
X135382000Y-117086095D01*
X135572476Y-117800380D01*
X135810571Y-116800380D01*
X136143904Y-116895619D02*
X136191523Y-116848000D01*
X136286761Y-116800380D01*
X136524857Y-116800380D01*
X136620095Y-116848000D01*
X136667714Y-116895619D01*
X136715333Y-116990857D01*
X136715333Y-117086095D01*
X136667714Y-117228952D01*
X136096285Y-117800380D01*
X136715333Y-117800380D01*
X132055142Y-117260666D02*
X132102761Y-117308285D01*
X132150380Y-117451142D01*
X132150380Y-117546380D01*
X132102761Y-117689238D01*
X132007523Y-117784476D01*
X131912285Y-117832095D01*
X131721809Y-117879714D01*
X131578952Y-117879714D01*
X131388476Y-117832095D01*
X131293238Y-117784476D01*
X131198000Y-117689238D01*
X131150380Y-117546380D01*
X131150380Y-117451142D01*
X131198000Y-117308285D01*
X131245619Y-117260666D01*
X131483714Y-116403523D02*
X132150380Y-116403523D01*
X131102761Y-116641619D02*
X131817047Y-116879714D01*
X131817047Y-116260666D01*
X142581333Y-108656380D02*
X142248000Y-108180190D01*
X142009904Y-108656380D02*
X142009904Y-107656380D01*
X142390857Y-107656380D01*
X142486095Y-107704000D01*
X142533714Y-107751619D01*
X142581333Y-107846857D01*
X142581333Y-107989714D01*
X142533714Y-108084952D01*
X142486095Y-108132571D01*
X142390857Y-108180190D01*
X142009904Y-108180190D01*
X143533714Y-108656380D02*
X142962285Y-108656380D01*
X143248000Y-108656380D02*
X143248000Y-107656380D01*
X143152761Y-107799238D01*
X143057523Y-107894476D01*
X142962285Y-107942095D01*
X163242666Y-123194380D02*
X163242666Y-123908666D01*
X163195047Y-124051523D01*
X163099809Y-124146761D01*
X162956952Y-124194380D01*
X162861714Y-124194380D01*
X164147428Y-123527714D02*
X164147428Y-124194380D01*
X163909333Y-123146761D02*
X163671238Y-123861047D01*
X164290285Y-123861047D01*
X164679333Y-117038380D02*
X164346000Y-116562190D01*
X164107904Y-117038380D02*
X164107904Y-116038380D01*
X164488857Y-116038380D01*
X164584095Y-116086000D01*
X164631714Y-116133619D01*
X164679333Y-116228857D01*
X164679333Y-116371714D01*
X164631714Y-116466952D01*
X164584095Y-116514571D01*
X164488857Y-116562190D01*
X164107904Y-116562190D01*
X165584095Y-116038380D02*
X165107904Y-116038380D01*
X165060285Y-116514571D01*
X165107904Y-116466952D01*
X165203142Y-116419333D01*
X165441238Y-116419333D01*
X165536476Y-116466952D01*
X165584095Y-116514571D01*
X165631714Y-116609809D01*
X165631714Y-116847904D01*
X165584095Y-116943142D01*
X165536476Y-116990761D01*
X165441238Y-117038380D01*
X165203142Y-117038380D01*
X165107904Y-116990761D01*
X165060285Y-116943142D01*
X167473333Y-109292380D02*
X167140000Y-108816190D01*
X166901904Y-109292380D02*
X166901904Y-108292380D01*
X167282857Y-108292380D01*
X167378095Y-108340000D01*
X167425714Y-108387619D01*
X167473333Y-108482857D01*
X167473333Y-108625714D01*
X167425714Y-108720952D01*
X167378095Y-108768571D01*
X167282857Y-108816190D01*
X166901904Y-108816190D01*
X168330476Y-108292380D02*
X168140000Y-108292380D01*
X168044761Y-108340000D01*
X167997142Y-108387619D01*
X167901904Y-108530476D01*
X167854285Y-108720952D01*
X167854285Y-109101904D01*
X167901904Y-109197142D01*
X167949523Y-109244761D01*
X168044761Y-109292380D01*
X168235238Y-109292380D01*
X168330476Y-109244761D01*
X168378095Y-109197142D01*
X168425714Y-109101904D01*
X168425714Y-108863809D01*
X168378095Y-108768571D01*
X168330476Y-108720952D01*
X168235238Y-108673333D01*
X168044761Y-108673333D01*
X167949523Y-108720952D01*
X167901904Y-108768571D01*
X167854285Y-108863809D01*
X167544761Y-122427619D02*
X167449523Y-122380000D01*
X167354285Y-122284761D01*
X167211428Y-122141904D01*
X167116190Y-122094285D01*
X167020952Y-122094285D01*
X167068571Y-122332380D02*
X166973333Y-122284761D01*
X166878095Y-122189523D01*
X166830476Y-121999047D01*
X166830476Y-121665714D01*
X166878095Y-121475238D01*
X166973333Y-121380000D01*
X167068571Y-121332380D01*
X167259047Y-121332380D01*
X167354285Y-121380000D01*
X167449523Y-121475238D01*
X167497142Y-121665714D01*
X167497142Y-121999047D01*
X167449523Y-122189523D01*
X167354285Y-122284761D01*
X167259047Y-122332380D01*
X167068571Y-122332380D01*
X168449523Y-122332380D02*
X167878095Y-122332380D01*
X168163809Y-122332380D02*
X168163809Y-121332380D01*
X168068571Y-121475238D01*
X167973333Y-121570476D01*
X167878095Y-121618095D01*
X155448095Y-108126380D02*
X155448095Y-108935904D01*
X155495714Y-109031142D01*
X155543333Y-109078761D01*
X155638571Y-109126380D01*
X155829047Y-109126380D01*
X155924285Y-109078761D01*
X155971904Y-109031142D01*
X156019523Y-108935904D01*
X156019523Y-108126380D01*
X156448095Y-108221619D02*
X156495714Y-108174000D01*
X156590952Y-108126380D01*
X156829047Y-108126380D01*
X156924285Y-108174000D01*
X156971904Y-108221619D01*
X157019523Y-108316857D01*
X157019523Y-108412095D01*
X156971904Y-108554952D01*
X156400476Y-109126380D01*
X157019523Y-109126380D01*
X121181904Y-110688380D02*
X121181904Y-109688380D01*
X121420000Y-109688380D01*
X121562857Y-109736000D01*
X121658095Y-109831238D01*
X121705714Y-109926476D01*
X121753333Y-110116952D01*
X121753333Y-110259809D01*
X121705714Y-110450285D01*
X121658095Y-110545523D01*
X121562857Y-110640761D01*
X121420000Y-110688380D01*
X121181904Y-110688380D01*
X122134285Y-109783619D02*
X122181904Y-109736000D01*
X122277142Y-109688380D01*
X122515238Y-109688380D01*
X122610476Y-109736000D01*
X122658095Y-109783619D01*
X122705714Y-109878857D01*
X122705714Y-109974095D01*
X122658095Y-110116952D01*
X122086666Y-110688380D01*
X122705714Y-110688380D01*
X163266380Y-112688666D02*
X162790190Y-113022000D01*
X163266380Y-113260095D02*
X162266380Y-113260095D01*
X162266380Y-112879142D01*
X162314000Y-112783904D01*
X162361619Y-112736285D01*
X162456857Y-112688666D01*
X162599714Y-112688666D01*
X162694952Y-112736285D01*
X162742571Y-112783904D01*
X162790190Y-112879142D01*
X162790190Y-113260095D01*
X162266380Y-112355333D02*
X162266380Y-111688666D01*
X163266380Y-112117238D01*
X124912380Y-106846666D02*
X124436190Y-107180000D01*
X124912380Y-107418095D02*
X123912380Y-107418095D01*
X123912380Y-107037142D01*
X123960000Y-106941904D01*
X124007619Y-106894285D01*
X124102857Y-106846666D01*
X124245714Y-106846666D01*
X124340952Y-106894285D01*
X124388571Y-106941904D01*
X124436190Y-107037142D01*
X124436190Y-107418095D01*
X124340952Y-106275238D02*
X124293333Y-106370476D01*
X124245714Y-106418095D01*
X124150476Y-106465714D01*
X124102857Y-106465714D01*
X124007619Y-106418095D01*
X123960000Y-106370476D01*
X123912380Y-106275238D01*
X123912380Y-106084761D01*
X123960000Y-105989523D01*
X124007619Y-105941904D01*
X124102857Y-105894285D01*
X124150476Y-105894285D01*
X124245714Y-105941904D01*
X124293333Y-105989523D01*
X124340952Y-106084761D01*
X124340952Y-106275238D01*
X124388571Y-106370476D01*
X124436190Y-106418095D01*
X124531428Y-106465714D01*
X124721904Y-106465714D01*
X124817142Y-106418095D01*
X124864761Y-106370476D01*
X124912380Y-106275238D01*
X124912380Y-106084761D01*
X124864761Y-105989523D01*
X124817142Y-105941904D01*
X124721904Y-105894285D01*
X124531428Y-105894285D01*
X124436190Y-105941904D01*
X124388571Y-105989523D01*
X124340952Y-106084761D01*
X129309904Y-112974380D02*
X129309904Y-111974380D01*
X129548000Y-111974380D01*
X129690857Y-112022000D01*
X129786095Y-112117238D01*
X129833714Y-112212476D01*
X129881333Y-112402952D01*
X129881333Y-112545809D01*
X129833714Y-112736285D01*
X129786095Y-112831523D01*
X129690857Y-112926761D01*
X129548000Y-112974380D01*
X129309904Y-112974380D01*
X130833714Y-112974380D02*
X130262285Y-112974380D01*
X130548000Y-112974380D02*
X130548000Y-111974380D01*
X130452761Y-112117238D01*
X130357523Y-112212476D01*
X130262285Y-112260095D01*
X68528380Y-115903333D02*
X69242666Y-115903333D01*
X69385523Y-115950952D01*
X69480761Y-116046190D01*
X69528380Y-116189047D01*
X69528380Y-116284285D01*
X68528380Y-115522380D02*
X68528380Y-114903333D01*
X68909333Y-115236666D01*
X68909333Y-115093809D01*
X68956952Y-114998571D01*
X69004571Y-114950952D01*
X69099809Y-114903333D01*
X69337904Y-114903333D01*
X69433142Y-114950952D01*
X69480761Y-114998571D01*
X69528380Y-115093809D01*
X69528380Y-115379523D01*
X69480761Y-115474761D01*
X69433142Y-115522380D01*
X103465333Y-123801142D02*
X103417714Y-123848761D01*
X103274857Y-123896380D01*
X103179619Y-123896380D01*
X103036761Y-123848761D01*
X102941523Y-123753523D01*
X102893904Y-123658285D01*
X102846285Y-123467809D01*
X102846285Y-123324952D01*
X102893904Y-123134476D01*
X102941523Y-123039238D01*
X103036761Y-122944000D01*
X103179619Y-122896380D01*
X103274857Y-122896380D01*
X103417714Y-122944000D01*
X103465333Y-122991619D01*
X103846285Y-122991619D02*
X103893904Y-122944000D01*
X103989142Y-122896380D01*
X104227238Y-122896380D01*
X104322476Y-122944000D01*
X104370095Y-122991619D01*
X104417714Y-123086857D01*
X104417714Y-123182095D01*
X104370095Y-123324952D01*
X103798666Y-123896380D01*
X104417714Y-123896380D01*
X80859333Y-115165142D02*
X80811714Y-115212761D01*
X80668857Y-115260380D01*
X80573619Y-115260380D01*
X80430761Y-115212761D01*
X80335523Y-115117523D01*
X80287904Y-115022285D01*
X80240285Y-114831809D01*
X80240285Y-114688952D01*
X80287904Y-114498476D01*
X80335523Y-114403238D01*
X80430761Y-114308000D01*
X80573619Y-114260380D01*
X80668857Y-114260380D01*
X80811714Y-114308000D01*
X80859333Y-114355619D01*
X81335523Y-115260380D02*
X81526000Y-115260380D01*
X81621238Y-115212761D01*
X81668857Y-115165142D01*
X81764095Y-115022285D01*
X81811714Y-114831809D01*
X81811714Y-114450857D01*
X81764095Y-114355619D01*
X81716476Y-114308000D01*
X81621238Y-114260380D01*
X81430761Y-114260380D01*
X81335523Y-114308000D01*
X81287904Y-114355619D01*
X81240285Y-114450857D01*
X81240285Y-114688952D01*
X81287904Y-114784190D01*
X81335523Y-114831809D01*
X81430761Y-114879428D01*
X81621238Y-114879428D01*
X81716476Y-114831809D01*
X81764095Y-114784190D01*
X81811714Y-114688952D01*
X76175142Y-117260666D02*
X76222761Y-117308285D01*
X76270380Y-117451142D01*
X76270380Y-117546380D01*
X76222761Y-117689238D01*
X76127523Y-117784476D01*
X76032285Y-117832095D01*
X75841809Y-117879714D01*
X75698952Y-117879714D01*
X75508476Y-117832095D01*
X75413238Y-117784476D01*
X75318000Y-117689238D01*
X75270380Y-117546380D01*
X75270380Y-117451142D01*
X75318000Y-117308285D01*
X75365619Y-117260666D01*
X75603714Y-116403523D02*
X76270380Y-116403523D01*
X75222761Y-116641619D02*
X75937047Y-116879714D01*
X75937047Y-116260666D01*
X81146666Y-107041904D02*
X80880000Y-106660952D01*
X80689523Y-107041904D02*
X80689523Y-106241904D01*
X80994285Y-106241904D01*
X81070476Y-106280000D01*
X81108571Y-106318095D01*
X81146666Y-106394285D01*
X81146666Y-106508571D01*
X81108571Y-106584761D01*
X81070476Y-106622857D01*
X80994285Y-106660952D01*
X80689523Y-106660952D01*
X81832380Y-106508571D02*
X81832380Y-107041904D01*
X81641904Y-106203809D02*
X81451428Y-106775238D01*
X81946666Y-106775238D01*
X86701333Y-108656380D02*
X86368000Y-108180190D01*
X86129904Y-108656380D02*
X86129904Y-107656380D01*
X86510857Y-107656380D01*
X86606095Y-107704000D01*
X86653714Y-107751619D01*
X86701333Y-107846857D01*
X86701333Y-107989714D01*
X86653714Y-108084952D01*
X86606095Y-108132571D01*
X86510857Y-108180190D01*
X86129904Y-108180190D01*
X87653714Y-108656380D02*
X87082285Y-108656380D01*
X87368000Y-108656380D02*
X87368000Y-107656380D01*
X87272761Y-107799238D01*
X87177523Y-107894476D01*
X87082285Y-107942095D01*
X92687142Y-113958666D02*
X92734761Y-114006285D01*
X92782380Y-114149142D01*
X92782380Y-114244380D01*
X92734761Y-114387238D01*
X92639523Y-114482476D01*
X92544285Y-114530095D01*
X92353809Y-114577714D01*
X92210952Y-114577714D01*
X92020476Y-114530095D01*
X91925238Y-114482476D01*
X91830000Y-114387238D01*
X91782380Y-114244380D01*
X91782380Y-114149142D01*
X91830000Y-114006285D01*
X91877619Y-113958666D01*
X91782380Y-113625333D02*
X91782380Y-113006285D01*
X92163333Y-113339619D01*
X92163333Y-113196761D01*
X92210952Y-113101523D01*
X92258571Y-113053904D01*
X92353809Y-113006285D01*
X92591904Y-113006285D01*
X92687142Y-113053904D01*
X92734761Y-113101523D01*
X92782380Y-113196761D01*
X92782380Y-113482476D01*
X92734761Y-113577714D01*
X92687142Y-113625333D01*
X89241333Y-120117142D02*
X89193714Y-120164761D01*
X89050857Y-120212380D01*
X88955619Y-120212380D01*
X88812761Y-120164761D01*
X88717523Y-120069523D01*
X88669904Y-119974285D01*
X88622285Y-119783809D01*
X88622285Y-119640952D01*
X88669904Y-119450476D01*
X88717523Y-119355238D01*
X88812761Y-119260000D01*
X88955619Y-119212380D01*
X89050857Y-119212380D01*
X89193714Y-119260000D01*
X89241333Y-119307619D01*
X90098476Y-119212380D02*
X89908000Y-119212380D01*
X89812761Y-119260000D01*
X89765142Y-119307619D01*
X89669904Y-119450476D01*
X89622285Y-119640952D01*
X89622285Y-120021904D01*
X89669904Y-120117142D01*
X89717523Y-120164761D01*
X89812761Y-120212380D01*
X90003238Y-120212380D01*
X90098476Y-120164761D01*
X90146095Y-120117142D01*
X90193714Y-120021904D01*
X90193714Y-119783809D01*
X90146095Y-119688571D01*
X90098476Y-119640952D01*
X90003238Y-119593333D01*
X89812761Y-119593333D01*
X89717523Y-119640952D01*
X89669904Y-119688571D01*
X89622285Y-119783809D01*
X76811142Y-121324666D02*
X76858761Y-121372285D01*
X76906380Y-121515142D01*
X76906380Y-121610380D01*
X76858761Y-121753238D01*
X76763523Y-121848476D01*
X76668285Y-121896095D01*
X76477809Y-121943714D01*
X76334952Y-121943714D01*
X76144476Y-121896095D01*
X76049238Y-121848476D01*
X75954000Y-121753238D01*
X75906380Y-121610380D01*
X75906380Y-121515142D01*
X75954000Y-121372285D01*
X76001619Y-121324666D01*
X75906380Y-120991333D02*
X75906380Y-120324666D01*
X76906380Y-120753238D01*
X78168666Y-117752761D02*
X78311523Y-117800380D01*
X78549619Y-117800380D01*
X78644857Y-117752761D01*
X78692476Y-117705142D01*
X78740095Y-117609904D01*
X78740095Y-117514666D01*
X78692476Y-117419428D01*
X78644857Y-117371809D01*
X78549619Y-117324190D01*
X78359142Y-117276571D01*
X78263904Y-117228952D01*
X78216285Y-117181333D01*
X78168666Y-117086095D01*
X78168666Y-116990857D01*
X78216285Y-116895619D01*
X78263904Y-116848000D01*
X78359142Y-116800380D01*
X78597238Y-116800380D01*
X78740095Y-116848000D01*
X79073428Y-116800380D02*
X79311523Y-117800380D01*
X79502000Y-117086095D01*
X79692476Y-117800380D01*
X79930571Y-116800380D01*
X80263904Y-116895619D02*
X80311523Y-116848000D01*
X80406761Y-116800380D01*
X80644857Y-116800380D01*
X80740095Y-116848000D01*
X80787714Y-116895619D01*
X80835333Y-116990857D01*
X80835333Y-117086095D01*
X80787714Y-117228952D01*
X80216285Y-117800380D01*
X80835333Y-117800380D01*
X72493142Y-120054666D02*
X72540761Y-120102285D01*
X72588380Y-120245142D01*
X72588380Y-120340380D01*
X72540761Y-120483238D01*
X72445523Y-120578476D01*
X72350285Y-120626095D01*
X72159809Y-120673714D01*
X72016952Y-120673714D01*
X71826476Y-120626095D01*
X71731238Y-120578476D01*
X71636000Y-120483238D01*
X71588380Y-120340380D01*
X71588380Y-120245142D01*
X71636000Y-120102285D01*
X71683619Y-120054666D01*
X72016952Y-119483238D02*
X71969333Y-119578476D01*
X71921714Y-119626095D01*
X71826476Y-119673714D01*
X71778857Y-119673714D01*
X71683619Y-119626095D01*
X71636000Y-119578476D01*
X71588380Y-119483238D01*
X71588380Y-119292761D01*
X71636000Y-119197523D01*
X71683619Y-119149904D01*
X71778857Y-119102285D01*
X71826476Y-119102285D01*
X71921714Y-119149904D01*
X71969333Y-119197523D01*
X72016952Y-119292761D01*
X72016952Y-119483238D01*
X72064571Y-119578476D01*
X72112190Y-119626095D01*
X72207428Y-119673714D01*
X72397904Y-119673714D01*
X72493142Y-119626095D01*
X72540761Y-119578476D01*
X72588380Y-119483238D01*
X72588380Y-119292761D01*
X72540761Y-119197523D01*
X72493142Y-119149904D01*
X72397904Y-119102285D01*
X72207428Y-119102285D01*
X72112190Y-119149904D01*
X72064571Y-119197523D01*
X72016952Y-119292761D01*
X94575333Y-111735142D02*
X94527714Y-111782761D01*
X94384857Y-111830380D01*
X94289619Y-111830380D01*
X94146761Y-111782761D01*
X94051523Y-111687523D01*
X94003904Y-111592285D01*
X93956285Y-111401809D01*
X93956285Y-111258952D01*
X94003904Y-111068476D01*
X94051523Y-110973238D01*
X94146761Y-110878000D01*
X94289619Y-110830380D01*
X94384857Y-110830380D01*
X94527714Y-110878000D01*
X94575333Y-110925619D01*
X95527714Y-111830380D02*
X94956285Y-111830380D01*
X95242000Y-111830380D02*
X95242000Y-110830380D01*
X95146761Y-110973238D01*
X95051523Y-111068476D01*
X94956285Y-111116095D01*
X82494380Y-121324666D02*
X82018190Y-121658000D01*
X82494380Y-121896095D02*
X81494380Y-121896095D01*
X81494380Y-121515142D01*
X81542000Y-121419904D01*
X81589619Y-121372285D01*
X81684857Y-121324666D01*
X81827714Y-121324666D01*
X81922952Y-121372285D01*
X81970571Y-121419904D01*
X82018190Y-121515142D01*
X82018190Y-121896095D01*
X81494380Y-120991333D02*
X81494380Y-120372285D01*
X81875333Y-120705619D01*
X81875333Y-120562761D01*
X81922952Y-120467523D01*
X81970571Y-120419904D01*
X82065809Y-120372285D01*
X82303904Y-120372285D01*
X82399142Y-120419904D01*
X82446761Y-120467523D01*
X82494380Y-120562761D01*
X82494380Y-120848476D01*
X82446761Y-120943714D01*
X82399142Y-120991333D01*
X84161333Y-116561142D02*
X84113714Y-116608761D01*
X83970857Y-116656380D01*
X83875619Y-116656380D01*
X83732761Y-116608761D01*
X83637523Y-116513523D01*
X83589904Y-116418285D01*
X83542285Y-116227809D01*
X83542285Y-116084952D01*
X83589904Y-115894476D01*
X83637523Y-115799238D01*
X83732761Y-115704000D01*
X83875619Y-115656380D01*
X83970857Y-115656380D01*
X84113714Y-115704000D01*
X84161333Y-115751619D01*
X85066095Y-115656380D02*
X84589904Y-115656380D01*
X84542285Y-116132571D01*
X84589904Y-116084952D01*
X84685142Y-116037333D01*
X84923238Y-116037333D01*
X85018476Y-116084952D01*
X85066095Y-116132571D01*
X85113714Y-116227809D01*
X85113714Y-116465904D01*
X85066095Y-116561142D01*
X85018476Y-116608761D01*
X84923238Y-116656380D01*
X84685142Y-116656380D01*
X84589904Y-116608761D01*
X84542285Y-116561142D01*
X86320380Y-110743904D02*
X87129904Y-110743904D01*
X87225142Y-110696285D01*
X87272761Y-110648666D01*
X87320380Y-110553428D01*
X87320380Y-110362952D01*
X87272761Y-110267714D01*
X87225142Y-110220095D01*
X87129904Y-110172476D01*
X86320380Y-110172476D01*
X87320380Y-109172476D02*
X87320380Y-109743904D01*
X87320380Y-109458190D02*
X86320380Y-109458190D01*
X86463238Y-109553428D01*
X86558476Y-109648666D01*
X86606095Y-109743904D01*
X88987333Y-110816380D02*
X88654000Y-110340190D01*
X88415904Y-110816380D02*
X88415904Y-109816380D01*
X88796857Y-109816380D01*
X88892095Y-109864000D01*
X88939714Y-109911619D01*
X88987333Y-110006857D01*
X88987333Y-110149714D01*
X88939714Y-110244952D01*
X88892095Y-110292571D01*
X88796857Y-110340190D01*
X88415904Y-110340190D01*
X89368285Y-109911619D02*
X89415904Y-109864000D01*
X89511142Y-109816380D01*
X89749238Y-109816380D01*
X89844476Y-109864000D01*
X89892095Y-109911619D01*
X89939714Y-110006857D01*
X89939714Y-110102095D01*
X89892095Y-110244952D01*
X89320666Y-110816380D01*
X89939714Y-110816380D01*
X87820666Y-115466761D02*
X87963523Y-115514380D01*
X88201619Y-115514380D01*
X88296857Y-115466761D01*
X88344476Y-115419142D01*
X88392095Y-115323904D01*
X88392095Y-115228666D01*
X88344476Y-115133428D01*
X88296857Y-115085809D01*
X88201619Y-115038190D01*
X88011142Y-114990571D01*
X87915904Y-114942952D01*
X87868285Y-114895333D01*
X87820666Y-114800095D01*
X87820666Y-114704857D01*
X87868285Y-114609619D01*
X87915904Y-114562000D01*
X88011142Y-114514380D01*
X88249238Y-114514380D01*
X88392095Y-114562000D01*
X88725428Y-114514380D02*
X88963523Y-115514380D01*
X89154000Y-114800095D01*
X89344476Y-115514380D01*
X89582571Y-114514380D01*
X90487333Y-115514380D02*
X89915904Y-115514380D01*
X90201619Y-115514380D02*
X90201619Y-114514380D01*
X90106380Y-114657238D01*
X90011142Y-114752476D01*
X89915904Y-114800095D01*
X80518095Y-112990380D02*
X80518095Y-113799904D01*
X80565714Y-113895142D01*
X80613333Y-113942761D01*
X80708571Y-113990380D01*
X80899047Y-113990380D01*
X80994285Y-113942761D01*
X81041904Y-113895142D01*
X81089523Y-113799904D01*
X81089523Y-112990380D01*
X81470476Y-112990380D02*
X82089523Y-112990380D01*
X81756190Y-113371333D01*
X81899047Y-113371333D01*
X81994285Y-113418952D01*
X82041904Y-113466571D01*
X82089523Y-113561809D01*
X82089523Y-113799904D01*
X82041904Y-113895142D01*
X81994285Y-113942761D01*
X81899047Y-113990380D01*
X81613333Y-113990380D01*
X81518095Y-113942761D01*
X81470476Y-113895142D01*
X109124761Y-115609619D02*
X109029523Y-115562000D01*
X108934285Y-115466761D01*
X108791428Y-115323904D01*
X108696190Y-115276285D01*
X108600952Y-115276285D01*
X108648571Y-115514380D02*
X108553333Y-115466761D01*
X108458095Y-115371523D01*
X108410476Y-115181047D01*
X108410476Y-114847714D01*
X108458095Y-114657238D01*
X108553333Y-114562000D01*
X108648571Y-114514380D01*
X108839047Y-114514380D01*
X108934285Y-114562000D01*
X109029523Y-114657238D01*
X109077142Y-114847714D01*
X109077142Y-115181047D01*
X109029523Y-115371523D01*
X108934285Y-115466761D01*
X108839047Y-115514380D01*
X108648571Y-115514380D01*
X109458095Y-114609619D02*
X109505714Y-114562000D01*
X109600952Y-114514380D01*
X109839047Y-114514380D01*
X109934285Y-114562000D01*
X109981904Y-114609619D01*
X110029523Y-114704857D01*
X110029523Y-114800095D01*
X109981904Y-114942952D01*
X109410476Y-115514380D01*
X110029523Y-115514380D01*
X72564666Y-108672380D02*
X72564666Y-109386666D01*
X72517047Y-109529523D01*
X72421809Y-109624761D01*
X72278952Y-109672380D01*
X72183714Y-109672380D01*
X73517047Y-108672380D02*
X73040857Y-108672380D01*
X72993238Y-109148571D01*
X73040857Y-109100952D01*
X73136095Y-109053333D01*
X73374190Y-109053333D01*
X73469428Y-109100952D01*
X73517047Y-109148571D01*
X73564666Y-109243809D01*
X73564666Y-109481904D01*
X73517047Y-109577142D01*
X73469428Y-109624761D01*
X73374190Y-109672380D01*
X73136095Y-109672380D01*
X73040857Y-109624761D01*
X72993238Y-109577142D01*
X105743619Y-109061238D02*
X105696000Y-109156476D01*
X105600761Y-109251714D01*
X105457904Y-109394571D01*
X105410285Y-109489809D01*
X105410285Y-109585047D01*
X105648380Y-109537428D02*
X105600761Y-109632666D01*
X105505523Y-109727904D01*
X105315047Y-109775523D01*
X104981714Y-109775523D01*
X104791238Y-109727904D01*
X104696000Y-109632666D01*
X104648380Y-109537428D01*
X104648380Y-109346952D01*
X104696000Y-109251714D01*
X104791238Y-109156476D01*
X104981714Y-109108857D01*
X105315047Y-109108857D01*
X105505523Y-109156476D01*
X105600761Y-109251714D01*
X105648380Y-109346952D01*
X105648380Y-109537428D01*
X104648380Y-108775523D02*
X104648380Y-108156476D01*
X105029333Y-108489809D01*
X105029333Y-108346952D01*
X105076952Y-108251714D01*
X105124571Y-108204095D01*
X105219809Y-108156476D01*
X105457904Y-108156476D01*
X105553142Y-108204095D01*
X105600761Y-108251714D01*
X105648380Y-108346952D01*
X105648380Y-108632666D01*
X105600761Y-108727904D01*
X105553142Y-108775523D01*
X107362666Y-123194380D02*
X107362666Y-123908666D01*
X107315047Y-124051523D01*
X107219809Y-124146761D01*
X107076952Y-124194380D01*
X106981714Y-124194380D01*
X108267428Y-123527714D02*
X108267428Y-124194380D01*
X108029333Y-123146761D02*
X107791238Y-123861047D01*
X108410285Y-123861047D01*
X108799333Y-117038380D02*
X108466000Y-116562190D01*
X108227904Y-117038380D02*
X108227904Y-116038380D01*
X108608857Y-116038380D01*
X108704095Y-116086000D01*
X108751714Y-116133619D01*
X108799333Y-116228857D01*
X108799333Y-116371714D01*
X108751714Y-116466952D01*
X108704095Y-116514571D01*
X108608857Y-116562190D01*
X108227904Y-116562190D01*
X109704095Y-116038380D02*
X109227904Y-116038380D01*
X109180285Y-116514571D01*
X109227904Y-116466952D01*
X109323142Y-116419333D01*
X109561238Y-116419333D01*
X109656476Y-116466952D01*
X109704095Y-116514571D01*
X109751714Y-116609809D01*
X109751714Y-116847904D01*
X109704095Y-116943142D01*
X109656476Y-116990761D01*
X109561238Y-117038380D01*
X109323142Y-117038380D01*
X109227904Y-116990761D01*
X109180285Y-116943142D01*
X111593333Y-109292380D02*
X111260000Y-108816190D01*
X111021904Y-109292380D02*
X111021904Y-108292380D01*
X111402857Y-108292380D01*
X111498095Y-108340000D01*
X111545714Y-108387619D01*
X111593333Y-108482857D01*
X111593333Y-108625714D01*
X111545714Y-108720952D01*
X111498095Y-108768571D01*
X111402857Y-108816190D01*
X111021904Y-108816190D01*
X112450476Y-108292380D02*
X112260000Y-108292380D01*
X112164761Y-108340000D01*
X112117142Y-108387619D01*
X112021904Y-108530476D01*
X111974285Y-108720952D01*
X111974285Y-109101904D01*
X112021904Y-109197142D01*
X112069523Y-109244761D01*
X112164761Y-109292380D01*
X112355238Y-109292380D01*
X112450476Y-109244761D01*
X112498095Y-109197142D01*
X112545714Y-109101904D01*
X112545714Y-108863809D01*
X112498095Y-108768571D01*
X112450476Y-108720952D01*
X112355238Y-108673333D01*
X112164761Y-108673333D01*
X112069523Y-108720952D01*
X112021904Y-108768571D01*
X111974285Y-108863809D01*
X111664761Y-122427619D02*
X111569523Y-122380000D01*
X111474285Y-122284761D01*
X111331428Y-122141904D01*
X111236190Y-122094285D01*
X111140952Y-122094285D01*
X111188571Y-122332380D02*
X111093333Y-122284761D01*
X110998095Y-122189523D01*
X110950476Y-121999047D01*
X110950476Y-121665714D01*
X110998095Y-121475238D01*
X111093333Y-121380000D01*
X111188571Y-121332380D01*
X111379047Y-121332380D01*
X111474285Y-121380000D01*
X111569523Y-121475238D01*
X111617142Y-121665714D01*
X111617142Y-121999047D01*
X111569523Y-122189523D01*
X111474285Y-122284761D01*
X111379047Y-122332380D01*
X111188571Y-122332380D01*
X112569523Y-122332380D02*
X111998095Y-122332380D01*
X112283809Y-122332380D02*
X112283809Y-121332380D01*
X112188571Y-121475238D01*
X112093333Y-121570476D01*
X111998095Y-121618095D01*
X65301904Y-110688380D02*
X65301904Y-109688380D01*
X65540000Y-109688380D01*
X65682857Y-109736000D01*
X65778095Y-109831238D01*
X65825714Y-109926476D01*
X65873333Y-110116952D01*
X65873333Y-110259809D01*
X65825714Y-110450285D01*
X65778095Y-110545523D01*
X65682857Y-110640761D01*
X65540000Y-110688380D01*
X65301904Y-110688380D01*
X66254285Y-109783619D02*
X66301904Y-109736000D01*
X66397142Y-109688380D01*
X66635238Y-109688380D01*
X66730476Y-109736000D01*
X66778095Y-109783619D01*
X66825714Y-109878857D01*
X66825714Y-109974095D01*
X66778095Y-110116952D01*
X66206666Y-110688380D01*
X66825714Y-110688380D01*
X107386380Y-112688666D02*
X106910190Y-113022000D01*
X107386380Y-113260095D02*
X106386380Y-113260095D01*
X106386380Y-112879142D01*
X106434000Y-112783904D01*
X106481619Y-112736285D01*
X106576857Y-112688666D01*
X106719714Y-112688666D01*
X106814952Y-112736285D01*
X106862571Y-112783904D01*
X106910190Y-112879142D01*
X106910190Y-113260095D01*
X106386380Y-112355333D02*
X106386380Y-111688666D01*
X107386380Y-112117238D01*
X69032380Y-106846666D02*
X68556190Y-107180000D01*
X69032380Y-107418095D02*
X68032380Y-107418095D01*
X68032380Y-107037142D01*
X68080000Y-106941904D01*
X68127619Y-106894285D01*
X68222857Y-106846666D01*
X68365714Y-106846666D01*
X68460952Y-106894285D01*
X68508571Y-106941904D01*
X68556190Y-107037142D01*
X68556190Y-107418095D01*
X68460952Y-106275238D02*
X68413333Y-106370476D01*
X68365714Y-106418095D01*
X68270476Y-106465714D01*
X68222857Y-106465714D01*
X68127619Y-106418095D01*
X68080000Y-106370476D01*
X68032380Y-106275238D01*
X68032380Y-106084761D01*
X68080000Y-105989523D01*
X68127619Y-105941904D01*
X68222857Y-105894285D01*
X68270476Y-105894285D01*
X68365714Y-105941904D01*
X68413333Y-105989523D01*
X68460952Y-106084761D01*
X68460952Y-106275238D01*
X68508571Y-106370476D01*
X68556190Y-106418095D01*
X68651428Y-106465714D01*
X68841904Y-106465714D01*
X68937142Y-106418095D01*
X68984761Y-106370476D01*
X69032380Y-106275238D01*
X69032380Y-106084761D01*
X68984761Y-105989523D01*
X68937142Y-105941904D01*
X68841904Y-105894285D01*
X68651428Y-105894285D01*
X68556190Y-105941904D01*
X68508571Y-105989523D01*
X68460952Y-106084761D01*
X99568095Y-108126380D02*
X99568095Y-108935904D01*
X99615714Y-109031142D01*
X99663333Y-109078761D01*
X99758571Y-109126380D01*
X99949047Y-109126380D01*
X100044285Y-109078761D01*
X100091904Y-109031142D01*
X100139523Y-108935904D01*
X100139523Y-108126380D01*
X100568095Y-108221619D02*
X100615714Y-108174000D01*
X100710952Y-108126380D01*
X100949047Y-108126380D01*
X101044285Y-108174000D01*
X101091904Y-108221619D01*
X101139523Y-108316857D01*
X101139523Y-108412095D01*
X101091904Y-108554952D01*
X100520476Y-109126380D01*
X101139523Y-109126380D01*
X73429904Y-112974380D02*
X73429904Y-111974380D01*
X73668000Y-111974380D01*
X73810857Y-112022000D01*
X73906095Y-112117238D01*
X73953714Y-112212476D01*
X74001333Y-112402952D01*
X74001333Y-112545809D01*
X73953714Y-112736285D01*
X73906095Y-112831523D01*
X73810857Y-112926761D01*
X73668000Y-112974380D01*
X73429904Y-112974380D01*
X74953714Y-112974380D02*
X74382285Y-112974380D01*
X74668000Y-112974380D02*
X74668000Y-111974380D01*
X74572761Y-112117238D01*
X74477523Y-112212476D01*
X74382285Y-112260095D01*
M02*
