M48
; DRILL file {KiCad (5.1.4)-1} date 18.09.2020 21:32:55
; FORMAT={-:-/ absolute / inch / decimal}
; #@! TF.CreationDate,2020-09-18T21:32:55+02:00
; #@! TF.GenerationSoftware,Kicad,Pcbnew,(5.1.4)-1
FMAT,2
INCH
T1C0.0118
T2C0.0157
T3C0.0236
T4C0.0295
T5C0.0394
T6C0.0157
T7C0.0236
T8C0.0984
T9C0.1063
%
G90
G05
T1
X2.7228Y-2.2033
X2.7228Y-3.3033
X2.7228Y-4.4033
X2.75Y-2.34
X2.75Y-3.44
X2.75Y-4.54
X2.7564Y-2.38
X2.7564Y-3.48
X2.7564Y-4.58
X2.84Y-2.04
X2.84Y-3.14
X2.84Y-4.24
X2.915Y-2.08
X2.915Y-3.18
X2.915Y-4.28
X2.93Y-2.5
X2.93Y-3.6
X2.93Y-4.7
X2.9787Y-2.6313
X2.9787Y-3.7313
X2.9787Y-4.8313
X3.03Y-2.1
X3.03Y-3.2
X3.03Y-4.3
X3.15Y-2.43
X3.15Y-3.53
X3.15Y-4.63
X3.17Y-2.17
X3.17Y-3.27
X3.17Y-4.37
X3.4Y-2.2014
X3.4Y-3.3014
X3.4Y-4.4014
X3.44Y-2.12
X3.44Y-3.22
X3.44Y-4.32
X3.5118Y-2.1082
X3.5118Y-3.2082
X3.5118Y-4.3082
X3.5223Y-2.2877
X3.5223Y-3.3877
X3.5223Y-4.4877
X3.58Y-2.54
X3.58Y-3.64
X3.58Y-4.74
X3.61Y-2.15
X3.61Y-3.25
X3.61Y-4.35
X3.65Y-2.39
X3.65Y-3.49
X3.65Y-4.59
X3.84Y-2.65
X3.84Y-3.75
X3.84Y-4.85
X3.85Y-2.27
X3.85Y-3.37
X3.85Y-4.47
X3.89Y-2.24
X3.89Y-2.41
X3.89Y-2.55
X3.89Y-3.34
X3.89Y-3.51
X3.89Y-3.65
X3.89Y-4.44
X3.89Y-4.61
X3.89Y-4.75
X3.9Y-2.3
X3.9Y-3.4
X3.9Y-4.5
X3.9343Y-2.4043
X3.9343Y-3.5043
X3.9343Y-4.6043
X3.98Y-2.26
X3.98Y-3.36
X3.98Y-4.46
X4.0143Y-2.3257
X4.0143Y-3.4257
X4.0143Y-4.5257
X4.03Y-2.26
X4.03Y-3.36
X4.03Y-4.46
X4.04Y-2.04
X4.04Y-3.14
X4.04Y-4.24
X4.0428Y-2.3572
X4.0428Y-3.4572
X4.0428Y-4.5572
X4.12Y-2.04
X4.12Y-2.66
X4.12Y-3.14
X4.12Y-3.76
X4.12Y-4.24
X4.12Y-4.86
X4.3Y-2.34
X4.3Y-3.44
X4.3Y-4.54
X4.31Y-2.41
X4.31Y-3.51
X4.31Y-4.61
X4.33Y-2.31
X4.33Y-3.41
X4.33Y-4.51
X4.9228Y-2.2033
X4.9228Y-3.3033
X4.9228Y-4.4033
X4.95Y-2.34
X4.95Y-3.44
X4.95Y-4.54
X4.9564Y-2.38
X4.9564Y-3.48
X4.9564Y-4.58
X5.04Y-2.04
X5.04Y-3.14
X5.04Y-4.24
X5.115Y-2.08
X5.115Y-3.18
X5.115Y-4.28
X5.13Y-2.5
X5.13Y-3.6
X5.13Y-4.7
X5.1787Y-2.6313
X5.1787Y-3.7313
X5.1787Y-4.8313
X5.23Y-2.1
X5.23Y-3.2
X5.23Y-4.3
X5.35Y-2.43
X5.35Y-3.53
X5.35Y-4.63
X5.37Y-2.17
X5.37Y-3.27
X5.37Y-4.37
X5.6Y-2.2014
X5.6Y-3.3014
X5.6Y-4.4014
X5.64Y-2.12
X5.64Y-3.22
X5.64Y-4.32
X5.7118Y-2.1082
X5.7118Y-3.2082
X5.7118Y-4.3082
X5.7223Y-2.2877
X5.7223Y-3.3877
X5.7223Y-4.4877
X5.78Y-2.54
X5.78Y-3.64
X5.78Y-4.74
X5.81Y-2.15
X5.81Y-3.25
X5.81Y-4.35
X5.85Y-2.39
X5.85Y-3.49
X5.85Y-4.59
X6.04Y-2.65
X6.04Y-3.75
X6.04Y-4.85
X6.05Y-2.27
X6.05Y-3.37
X6.05Y-4.47
X6.09Y-2.24
X6.09Y-2.41
X6.09Y-2.55
X6.09Y-3.34
X6.09Y-3.51
X6.09Y-3.65
X6.09Y-4.44
X6.09Y-4.61
X6.09Y-4.75
X6.1Y-2.3
X6.1Y-3.4
X6.1Y-4.5
X6.1343Y-2.4043
X6.1343Y-3.5043
X6.1343Y-4.6043
X6.18Y-2.26
X6.18Y-3.36
X6.18Y-4.46
X6.2143Y-2.3257
X6.2143Y-3.4257
X6.2143Y-4.5257
X6.23Y-2.26
X6.23Y-3.36
X6.23Y-4.46
X6.24Y-2.04
X6.24Y-3.14
X6.24Y-4.24
X6.2428Y-2.3572
X6.2428Y-3.4572
X6.2428Y-4.5572
X6.32Y-2.04
X6.32Y-2.66
X6.32Y-3.14
X6.32Y-3.76
X6.32Y-4.24
X6.32Y-4.86
X6.5Y-2.34
X6.5Y-3.44
X6.5Y-4.54
X6.51Y-2.41
X6.51Y-3.51
X6.51Y-4.61
X6.53Y-2.31
X6.53Y-3.41
X6.53Y-4.51
T2
X3.3813Y-2.44
X3.3813Y-3.54
X3.3813Y-4.64
X3.66Y-2.4257
X3.66Y-3.5257
X3.66Y-4.6257
X5.5813Y-2.44
X5.5813Y-3.54
X5.5813Y-4.64
X5.86Y-2.4257
X5.86Y-3.5257
X5.86Y-4.6257
T4
X5.0913Y-4.36
X5.17Y-4.36
X2.8913Y-2.16
X2.97Y-2.16
X2.8913Y-4.36
X2.97Y-4.36
X5.0913Y-2.16
X5.17Y-2.16
X2.8913Y-3.26
X2.97Y-3.26
X5.0913Y-3.26
X5.17Y-3.26
T5
X2.75Y-4.95
X2.85Y-4.95
X2.95Y-4.95
X3.05Y-4.95
X3.15Y-4.95
X3.25Y-4.95
X3.35Y-4.95
X3.45Y-4.95
X3.55Y-4.95
X3.65Y-4.95
X3.75Y-4.95
X3.85Y-4.95
X3.95Y-4.95
X4.05Y-4.95
X4.15Y-4.95
X4.25Y-4.95
X5.35Y-1.95
X5.45Y-1.95
X5.55Y-1.95
X5.65Y-1.95
X5.75Y-1.95
X5.85Y-1.95
X5.95Y-1.95
X6.05Y-1.95
X6.15Y-1.95
X6.25Y-1.95
X6.35Y-1.95
X6.45Y-1.95
X4.95Y-4.95
X5.05Y-4.95
X5.15Y-4.95
X5.25Y-4.95
X5.35Y-4.95
X5.45Y-4.95
X5.55Y-4.95
X5.65Y-4.95
X5.75Y-4.95
X5.85Y-4.95
X5.95Y-4.95
X6.05Y-4.95
X6.15Y-4.95
X6.25Y-4.95
X6.35Y-4.95
X6.45Y-4.95
X6.44Y-2.48
X6.44Y-2.58
X4.95Y-2.75
X5.05Y-2.75
X5.15Y-2.75
X5.25Y-2.75
X5.35Y-2.75
X5.45Y-2.75
X5.55Y-2.75
X5.65Y-2.75
X5.75Y-2.75
X5.85Y-2.75
X5.95Y-2.75
X6.05Y-2.75
X6.15Y-2.75
X6.25Y-2.75
X6.35Y-2.75
X6.45Y-2.75
X3.15Y-4.15
X3.25Y-4.15
X3.35Y-4.15
X3.45Y-4.15
X3.55Y-4.15
X3.65Y-4.15
X3.75Y-4.15
X3.85Y-4.15
X3.95Y-4.15
X4.05Y-4.15
X4.15Y-4.15
X4.25Y-4.15
X6.44Y-3.58
X6.44Y-3.68
X2.75Y-2.75
X2.85Y-2.75
X2.95Y-2.75
X3.05Y-2.75
X3.15Y-2.75
X3.25Y-2.75
X3.35Y-2.75
X3.45Y-2.75
X3.55Y-2.75
X3.65Y-2.75
X3.75Y-2.75
X3.85Y-2.75
X3.95Y-2.75
X4.05Y-2.75
X4.15Y-2.75
X4.25Y-2.75
X5.35Y-4.15
X5.45Y-4.15
X5.55Y-4.15
X5.65Y-4.15
X5.75Y-4.15
X5.85Y-4.15
X5.95Y-4.15
X6.05Y-4.15
X6.15Y-4.15
X6.25Y-4.15
X6.35Y-4.15
X6.45Y-4.15
X3.15Y-1.95
X3.25Y-1.95
X3.35Y-1.95
X3.45Y-1.95
X3.55Y-1.95
X3.65Y-1.95
X3.75Y-1.95
X3.85Y-1.95
X3.95Y-1.95
X4.05Y-1.95
X4.15Y-1.95
X4.25Y-1.95
X6.44Y-4.68
X6.44Y-4.78
X2.75Y-3.85
X2.85Y-3.85
X2.95Y-3.85
X3.05Y-3.85
X3.15Y-3.85
X3.25Y-3.85
X3.35Y-3.85
X3.45Y-3.85
X3.55Y-3.85
X3.65Y-3.85
X3.75Y-3.85
X3.85Y-3.85
X3.95Y-3.85
X4.05Y-3.85
X4.15Y-3.85
X4.25Y-3.85
X3.15Y-3.05
X3.25Y-3.05
X3.35Y-3.05
X3.45Y-3.05
X3.55Y-3.05
X3.65Y-3.05
X3.75Y-3.05
X3.85Y-3.05
X3.95Y-3.05
X4.05Y-3.05
X4.15Y-3.05
X4.25Y-3.05
X4.24Y-3.58
X4.24Y-3.68
X4.24Y-4.68
X4.24Y-4.78
X5.35Y-3.05
X5.45Y-3.05
X5.55Y-3.05
X5.65Y-3.05
X5.75Y-3.05
X5.85Y-3.05
X5.95Y-3.05
X6.05Y-3.05
X6.15Y-3.05
X6.25Y-3.05
X6.35Y-3.05
X6.45Y-3.05
X4.95Y-3.85
X5.05Y-3.85
X5.15Y-3.85
X5.25Y-3.85
X5.35Y-3.85
X5.45Y-3.85
X5.55Y-3.85
X5.65Y-3.85
X5.75Y-3.85
X5.85Y-3.85
X5.95Y-3.85
X6.05Y-3.85
X6.15Y-3.85
X6.25Y-3.85
X6.35Y-3.85
X6.45Y-3.85
X4.24Y-2.48
X4.24Y-2.58
T6
X4.8506Y-2.2713
X4.8506Y-2.4287
X2.6506Y-3.3713
X2.6506Y-3.5287
X4.8506Y-3.3713
X4.8506Y-3.5287
X4.8506Y-4.4713
X4.8506Y-4.6287
X2.6506Y-4.4713
X2.6506Y-4.6287
X2.6506Y-2.2713
X2.6506Y-2.4287
T7
X4.1213Y-4.085
X4.1606Y-4.085
X4.2Y-4.085
X4.2394Y-4.085
X4.2787Y-4.085
X4.1213Y-3.915
X4.1606Y-3.915
X4.2Y-3.915
X4.2394Y-3.915
X4.2787Y-3.915
X6.3213Y-1.885
X6.3606Y-1.885
X6.4Y-1.885
X6.4394Y-1.885
X6.4787Y-1.885
X2.7213Y-2.985
X2.7606Y-2.985
X2.8Y-2.985
X2.8394Y-2.985
X2.8787Y-2.985
X4.9213Y-1.885
X4.9606Y-1.885
X5.0Y-1.885
X5.0394Y-1.885
X5.0787Y-1.885
X2.7213Y-2.815
X2.7606Y-2.815
X2.8Y-2.815
X2.8394Y-2.815
X2.8787Y-2.815
X4.1213Y-2.815
X4.1606Y-2.815
X4.2Y-2.815
X4.2394Y-2.815
X4.2787Y-2.815
X6.3213Y-2.815
X6.3606Y-2.815
X6.4Y-2.815
X6.4394Y-2.815
X6.4787Y-2.815
X4.1213Y-2.985
X4.1606Y-2.985
X4.2Y-2.985
X4.2394Y-2.985
X4.2787Y-2.985
X4.9213Y-5.015
X4.9606Y-5.015
X5.0Y-5.015
X5.0394Y-5.015
X5.0787Y-5.015
X4.9213Y-2.815
X4.9606Y-2.815
X5.0Y-2.815
X5.0394Y-2.815
X5.0787Y-2.815
X4.9213Y-4.085
X4.9606Y-4.085
X5.0Y-4.085
X5.0394Y-4.085
X5.0787Y-4.085
X4.1213Y-5.015
X4.1606Y-5.015
X4.2Y-5.015
X4.2394Y-5.015
X4.2787Y-5.015
X2.7213Y-1.885
X2.7606Y-1.885
X2.8Y-1.885
X2.8394Y-1.885
X2.8787Y-1.885
X6.3213Y-5.015
X6.3606Y-5.015
X6.4Y-5.015
X6.4394Y-5.015
X6.4787Y-5.015
X2.7213Y-3.915
X2.7606Y-3.915
X2.8Y-3.915
X2.8394Y-3.915
X2.8787Y-3.915
X4.9213Y-2.985
X4.9606Y-2.985
X5.0Y-2.985
X5.0394Y-2.985
X5.0787Y-2.985
X6.3213Y-4.085
X6.3606Y-4.085
X6.4Y-4.085
X6.4394Y-4.085
X6.4787Y-4.085
X2.7213Y-5.015
X2.7606Y-5.015
X2.8Y-5.015
X2.8394Y-5.015
X2.8787Y-5.015
X2.7213Y-4.085
X2.7606Y-4.085
X2.8Y-4.085
X2.8394Y-4.085
X2.8787Y-4.085
X6.3213Y-2.985
X6.3606Y-2.985
X6.4Y-2.985
X6.4394Y-2.985
X6.4787Y-2.985
X4.1213Y-1.885
X4.1606Y-1.885
X4.2Y-1.885
X4.2394Y-1.885
X4.2787Y-1.885
X4.9213Y-3.915
X4.9606Y-3.915
X5.0Y-3.915
X5.0394Y-3.915
X5.0787Y-3.915
X6.3213Y-3.915
X6.3606Y-3.915
X6.4Y-3.915
X6.4394Y-3.915
X6.4787Y-3.915
T8
X2.8Y-1.6
X6.4Y-5.3
X2.8Y-5.3
X6.4Y-1.6
T9
X4.8Y-2.7
X4.8Y-4.9
X2.6Y-4.9
X6.6Y-2.7
X2.6Y-2.7
X4.4Y-4.2
X4.4Y-3.1
X4.8Y-3.8
X4.8Y-2.0
X6.6Y-3.1
X4.8Y-4.2
X2.6Y-2.0
X4.4Y-2.7
X2.6Y-3.1
X4.4Y-2.0
X6.6Y-4.9
X4.4Y-4.9
X2.6Y-3.8
X4.4Y-3.8
X6.6Y-2.0
X6.6Y-4.2
X2.6Y-4.2
X6.6Y-3.8
X4.8Y-3.1
T3
G00X4.7463Y-2.239
M15
G01X4.7699Y-2.239
M16
G05
G00X4.7463Y-2.461
M15
G01X4.7699Y-2.461
M16
G05
G00X2.5463Y-3.339
M15
G01X2.5699Y-3.339
M16
G05
G00X2.5463Y-3.561
M15
G01X2.5699Y-3.561
M16
G05
G00X4.7463Y-3.339
M15
G01X4.7699Y-3.339
M16
G05
G00X4.7463Y-3.561
M15
G01X4.7699Y-3.561
M16
G05
G00X4.7463Y-4.439
M15
G01X4.7699Y-4.439
M16
G05
G00X4.7463Y-4.661
M15
G01X4.7699Y-4.661
M16
G05
G00X2.5463Y-4.439
M15
G01X2.5699Y-4.439
M16
G05
G00X2.5463Y-4.661
M15
G01X2.5699Y-4.661
M16
G05
G00X2.5463Y-2.239
M15
G01X2.5699Y-2.239
M16
G05
G00X2.5463Y-2.461
M15
G01X2.5699Y-2.461
M16
G05
T0
M30
